<?xml version="1.0" encoding="UTF-8"?>
<svg id="Layer_1" data-name="Layer 1" xmlns="http://www.w3.org/2000/svg" viewBox="0 0 123.22 102.62">
  <defs>
    <style>
      .cls-1 {
        fill: none;
        stroke: #b87fb7;
        stroke-miterlimit: 10;
        stroke-width: .75px;
      }
    </style>
  </defs>
  <g>
    <path className="cls-1" d="m95.33,65.77l27.52-2.34h0c0,10.11-13.32,18.3-23.42,18.3h-4.1"/>
    <polyline className="cls-1" points="81.63 57.82 75.33 57.71 79.41 60.23"/>
    <path className="cls-1" d="m80.42,57.71c1.2-2.26,3.47-3.89,6.1-4.18,4.77-.53,8.8,3.19,8.8,7.86,0,.05,0,.11,0,.16-.03,1.53.5,2.97,1.45,4.11"/>
    <path className="cls-1" d="m102.76,81.46c-.03.09-.07.19-.11.28h.01s11.98,20.34,11.98,20.34c-1.08.72-5.31-1.13-6.44-1.76,0,0-23.3-11.95-24.65-12.93-3.16-2.29-5.22-6-5.22-10.2,0-1.24.18-2.43.51-3.56,1.07-3.63,1.25-7.42.73-11.16-.1-.71-.1-1.46,0-2.22"/>
    <path className="cls-1" d="m101.29,94.56c-5.39-3.04-10.54-5.97-11.15-6.44-3.08-2.39-5.01-6.17-4.87-10.37"/>
    <circle className="cls-1" cx="85.96" cy="59.33" r=".59"/>
  </g>
  <g>
    <path className="cls-1" d="m21.02,11.4L43.66.51h0c3.27,8.59-5.4,19.86-13.99,23.12l-3.48,1.32"/>
    <polyline className="cls-1" points="6.81 9.07 1.42 11.01 5.7 11.83"/>
    <path className="cls-1" d="m5.74,9.36c.29-2.31,1.7-4.43,3.84-5.53,3.88-1.99,8.52-.13,10.02,3.83.02.04.03.09.05.13.47,1.31,1.39,2.37,2.56,3.03"/>
    <path className="cls-1" d="m32.41,22.33c0,.09,0,.18,0,.27h0s16.76,13.41,16.76,13.41c-.68.96-4.88.76-6.04.59,0,0-23.67-2.63-25.13-3.02-3.43-.92-6.37-3.42-7.73-6.99-.4-1.05-.63-2.12-.71-3.19-.26-3.43-1.33-6.71-2.98-9.73-.31-.57-.56-1.21-.71-1.89"/>
    <path className="cls-1" d="m35.39,33.94c-5.57-.84-10.89-1.67-11.55-1.87-3.39-1.04-6.26-3.63-7.49-7.24"/>
    <circle className="cls-1" cx="10.98" cy="8.95" r=".53"/>
  </g>
</svg>