<svg width="459" height="219" viewBox="0 0 459 219" fill="none" xmlns="http://www.w3.org/2000/svg">
<g clip-path="url(#clip0_110_11101)">
<path d="M428.25 16.0063L391.166 11.2021C390.542 24.7223 408.067 36.5039 421.731 37.1216L427.279 37.3732" stroke="#104C65" stroke-width="2" stroke-miterlimit="10"/>
<path d="M447.278 6.19208L455.81 6.39797L450.122 9.5321" stroke="#104C65" stroke-width="2" stroke-miterlimit="10"/>
<path d="M448.92 6.10058C447.44 2.98933 444.458 0.678771 440.92 0.129727C434.493 -0.853977 428.805 3.88153 428.528 10.104C428.528 10.1727 428.528 10.2413 428.528 10.3099C428.482 12.3688 427.672 14.2676 426.308 15.7317" stroke="#104C65" stroke-width="2" stroke-miterlimit="10"/>
<path d="M417.246 36.5497C417.292 36.6869 417.338 36.8013 417.384 36.9386L399.929 63.4528C401.339 64.4823 407.188 62.2632 408.761 61.4854C408.761 61.4854 441.013 46.89 442.886 45.6775C447.301 42.8179 450.307 37.968 450.561 32.3403C450.631 30.6932 450.469 29.0689 450.076 27.5591C448.85 22.6405 448.827 17.5619 449.775 12.5747C449.96 11.6368 450.007 10.6302 449.914 9.60074" stroke="#104C65" stroke-width="2" stroke-miterlimit="10"/>
<path d="M418.448 54.1648C425.939 50.4359 433.083 46.7985 433.915 46.2266C438.238 43.2068 441.082 38.2654 441.152 32.6377" stroke="#104C65" stroke-width="2" stroke-miterlimit="10"/>
<path d="M441.336 8.70854C441.771 8.70854 442.122 8.36031 442.122 7.93073C442.122 7.50116 441.771 7.15292 441.336 7.15292C440.902 7.15292 440.55 7.50116 440.55 7.93073C440.55 8.36031 440.902 8.70854 441.336 8.70854Z" stroke="#104C65" stroke-width="2" stroke-miterlimit="10"/>
<path d="M322.025 163.998C302.488 207.029 222.1 212.703 222.887 183.924C223.649 156.014 246.584 155.213 260.572 167.818C282.467 187.538 251.417 261.224 163.792 249.191C102.131 240.727 86.7101 259.737 73 269.529" stroke="#104C65" stroke-width="2" stroke-linecap="round" stroke-linejoin="round"/>
<path d="M54.7493 0.960815V80.8239" stroke="#104C65" stroke-width="2" stroke-miterlimit="10"/>
<path d="M323.657 58.1529V0" stroke="#104C65" stroke-width="2" stroke-miterlimit="10"/>
<path d="M60.113 0.960815V80.8239" stroke="#104C65" stroke-width="2" stroke-miterlimit="10"/>
<path d="M328.998 58.1529V0" stroke="#104C65" stroke-width="2" stroke-miterlimit="10"/>
<path d="M178.256 82.1279V112.44" stroke="#104C65" stroke-width="2" stroke-miterlimit="10"/>
<path d="M168.361 82.8599V113.103L160.199 113.652C156.731 113.881 153.911 111.067 153.911 107.384V97.9129" stroke="#104C65" stroke-width="2" stroke-miterlimit="10"/>
<path d="M153.934 100.544V114.064L147.553 114.499C144.825 114.682 142.628 112.485 142.628 109.58V102.145" stroke="#104C65" stroke-width="2" stroke-miterlimit="10"/>
<path d="M132.941 105.805V115.482L124.71 116.031C121.196 116.26 118.375 113.4 118.375 109.649V100.018" stroke="#104C65" stroke-width="2" stroke-miterlimit="10"/>
<path d="M142.605 103.243V114.842L137.149 115.208C134.814 115.368 132.941 113.469 132.941 110.976V104.593" stroke="#104C65" stroke-width="2" stroke-miterlimit="10"/>
<path d="M248.725 93.9094V107.727L242.067 108.185C239.223 108.368 236.934 106.126 236.934 103.152V95.5566" stroke="#104C65" stroke-width="2" stroke-miterlimit="10"/>
<path d="M236.911 96.6775V108.528L231.201 108.917C228.773 109.077 226.808 107.155 226.808 104.616V98.0959" stroke="#104C65" stroke-width="2" stroke-miterlimit="10"/>
<path d="M118.352 108.23V116.214C118.352 119.509 115.878 122.345 112.803 122.551L110.907 122.666" stroke="#104C65" stroke-width="2" stroke-miterlimit="10"/>
<path d="M302.433 72.9771V104.135" stroke="#104C65" stroke-width="2" stroke-miterlimit="10"/>
<path d="M291.96 73.7549V104.845L283.336 105.416C279.66 105.668 276.701 102.786 276.701 98.9881" stroke="#104C65" stroke-width="2" stroke-miterlimit="10"/>
<path d="M201.792 94.5957V110.632C201.792 113.995 199.203 116.878 196.035 117.084L194.047 117.221" stroke="#104C65" stroke-width="2" stroke-miterlimit="10"/>
<path d="M106.284 122.963C106.284 122.597 106.006 122.322 105.682 122.345C105.359 122.368 105.081 122.666 105.081 123.032C105.081 123.398 105.359 123.672 105.682 123.649C106.006 123.626 106.284 123.329 106.284 122.963Z" stroke="#104C65" stroke-width="2" stroke-miterlimit="10"/>
<path d="M101.798 123.26C101.798 122.894 101.521 122.62 101.197 122.643C100.874 122.666 100.596 122.963 100.596 123.329C100.596 123.695 100.874 123.97 101.197 123.947C101.521 123.924 101.798 123.626 101.798 123.26Z" stroke="#104C65" stroke-width="2" stroke-miterlimit="10"/>
<path d="M105.058 100.223V114.247C105.058 114.247 99.5094 114.613 91.903 115.139C84.3196 115.642 81.2678 108.39 81.2678 105.645V105.416C81.2678 103.014 83.0712 100.933 85.2907 100.772L88.25 100.567C90.4927 100.406 92.296 102.237 92.296 104.662C92.296 105.988 91.7411 107.292 90.7701 108.185L81.314 117.015C79.5338 118.685 78.4934 121.087 78.4934 123.581C78.4934 128.087 81.8458 131.519 86.0074 131.244L88.9667 131.061" stroke="#104C65" stroke-width="2" stroke-miterlimit="10"/>
<path d="M211.549 79.68V106.171C211.549 108.413 213.283 110.106 215.41 109.969L222.947 109.466C225.097 109.328 226.831 107.384 226.831 105.142V102.237" stroke="#104C65" stroke-width="2" stroke-miterlimit="10"/>
<path d="M248.726 96.586V103.884C248.726 106.011 250.39 107.636 252.425 107.498L259.083 107.064C261.141 106.926 262.806 105.073 262.806 102.946V101.505" stroke="#104C65" stroke-width="2" stroke-miterlimit="10"/>
<path d="M276.701 99.194C276.701 103.815 273.579 107.796 269.742 108.047C265.904 108.299 262.782 104.776 262.782 100.155C262.782 95.5337 265.881 91.576 269.742 91.3015C273.579 91.0269 276.701 94.5728 276.701 99.194Z" stroke="#104C65" stroke-width="2" stroke-miterlimit="10"/>
<path d="M117.543 141.127L106.515 141.791V165.651" stroke="#104C65" stroke-width="2" stroke-miterlimit="10"/>
<path d="M116.572 152.291L106.515 152.863" stroke="#104C65" stroke-width="2" stroke-miterlimit="10"/>
<path d="M131.045 164.347V152.703C131.045 149.729 128.802 147.441 126.028 147.601L124.641 147.67C122.514 147.784 120.78 149.752 120.78 152.039" stroke="#104C65" stroke-width="2" stroke-miterlimit="10"/>
<path d="M131.045 159.154C131.045 156.272 128.641 154.076 125.681 154.259C122.722 154.419 120.317 156.889 120.317 159.749C120.317 162.609 122.722 164.805 125.681 164.645C128.641 164.484 131.045 162.037 131.045 159.154Z" stroke="#104C65" stroke-width="2" stroke-miterlimit="10"/>
<path d="M207.133 160.275V148.425C207.133 145.405 204.798 143.095 201.954 143.255L200.52 143.346C198.324 143.484 196.521 145.451 196.521 147.784" stroke="#104C65" stroke-width="2" stroke-miterlimit="10"/>
<path d="M207.133 154.991C207.133 152.062 204.636 149.843 201.561 150.003C198.486 150.164 196.012 152.68 196.012 155.585C196.012 158.491 198.486 160.733 201.561 160.573C204.636 160.412 207.133 157.896 207.133 154.991Z" stroke="#104C65" stroke-width="2" stroke-miterlimit="10"/>
<path d="M153.102 140.281V157.004C153.102 160.298 155.622 162.837 158.72 162.677" stroke="#104C65" stroke-width="2" stroke-miterlimit="10"/>
<path d="M148.986 146.297L158.72 145.748" stroke="#104C65" stroke-width="2" stroke-miterlimit="10"/>
<path d="M174.742 162.014V137.696" stroke="#104C65" stroke-width="2" stroke-miterlimit="10"/>
<path d="M167.297 138.222L183.735 137.261" stroke="#104C65" stroke-width="2" stroke-miterlimit="10"/>
<path d="M185.308 161.442V143.987" stroke="#104C65" stroke-width="2" stroke-miterlimit="10"/>
<path d="M192.29 143.575C188.429 143.804 185.308 147.121 185.308 150.987V152.611" stroke="#104C65" stroke-width="2" stroke-miterlimit="10"/>
<path d="M225.398 142.454C224.38 142.019 223.247 141.814 222.068 141.882C217.56 142.134 213.907 146.297 213.907 151.147C213.907 155.997 217.56 159.749 222.068 159.497C223.247 159.429 224.38 159.086 225.398 158.559" stroke="#104C65" stroke-width="2" stroke-miterlimit="10"/>
<path d="M231.409 158.994V131.771" stroke="#104C65" stroke-width="2" stroke-miterlimit="10"/>
<path d="M241.836 139.846L231.501 151.239" stroke="#104C65" stroke-width="2" stroke-miterlimit="10"/>
<path d="M242.599 158.399L234.715 147.693" stroke="#104C65" stroke-width="2" stroke-miterlimit="10"/>
<path d="M145.31 146.275L141.334 146.503C139.16 146.618 137.38 148.631 137.38 150.941V151.124C137.38 153.458 139.137 155.242 141.334 155.128C143.507 155.013 145.287 156.798 145.287 159.131C145.287 161.465 143.507 163.455 141.334 163.569L137.357 163.775" stroke="#104C65" stroke-width="2" stroke-miterlimit="10"/>
<path d="M368.325 54.9502L20 83.8894V184.41L368.325 167.413V54.9502Z" stroke="#104C65" stroke-width="2" stroke-miterlimit="10"/>
<path d="M368.325 54.9502L375.492 60.8753V173.521L368.325 167.413V54.9502Z" stroke="#104C65" stroke-width="2" stroke-miterlimit="10"/>
<path d="M375.492 173.521L25.7337 189.901L20 184.41L368.325 167.413L375.492 173.521Z" stroke="#104C65" stroke-width="2" stroke-miterlimit="10"/>
</g>
<defs>
<clipPath id="clip0_110_11101">
<rect width="459" height="219" fill="white"/>
</clipPath>
</defs>
</svg>
