<svg width="416" height="219" viewBox="0 0 416 219" fill="none" xmlns="http://www.w3.org/2000/svg">
<g clip-path="url(#clip0_110_11155)">
<path d="M128.898 217.738C128.898 217.738 142.324 160.177 144.034 154.128C149.873 135.089 162.926 124.735 189.74 121.84" stroke="#104C65" stroke-width="2" stroke-miterlimit="10"/>
<path d="M194.165 114.343C194.165 114.343 188.736 124.475 188.104 125.737C187.471 126.998 185.166 131.786 190.67 135.423C198.182 140.767 209.227 143.773 209.227 143.773" stroke="#104C65" stroke-width="2" stroke-miterlimit="10"/>
<path d="M193.794 110.075C193.794 110.075 193.794 119.353 199.521 122.248C205.248 125.143 209.674 126.664 209.674 126.664" stroke="#104C65" stroke-width="2" stroke-miterlimit="10"/>
<path d="M161.29 175.207V217.738" stroke="#104C65" stroke-width="2" stroke-miterlimit="10"/>
<path d="M186.579 175.059C190.255 175.059 193.236 172.085 193.236 168.416C193.236 164.747 190.255 161.773 186.579 161.773C182.902 161.773 179.922 164.747 179.922 168.416C179.922 172.085 182.902 175.059 186.579 175.059Z" stroke="#104C65" stroke-width="2" stroke-miterlimit="10"/>
<path d="M186.579 208.052C190.255 208.052 193.236 205.078 193.236 201.409C193.236 197.74 190.255 194.766 186.579 194.766C182.902 194.766 179.922 197.74 179.922 201.409C179.922 205.078 182.902 208.052 186.579 208.052Z" stroke="#104C65" stroke-width="2" stroke-miterlimit="10"/>
<path d="M290.449 217.738C290.449 217.738 277.023 160.177 275.313 154.128C269.474 135.089 256.42 124.735 229.607 121.84" stroke="#104C65" stroke-width="2" stroke-miterlimit="10"/>
<path d="M225.181 114.343C225.181 114.343 230.611 124.475 231.243 125.737C231.875 126.998 234.181 131.786 228.677 135.423C221.165 140.767 210.12 143.773 210.12 143.773" stroke="#104C65" stroke-width="2" stroke-miterlimit="10"/>
<path d="M225.553 110.075C225.553 110.075 225.553 119.353 219.826 122.248C214.099 125.143 209.674 126.664 209.674 126.664" stroke="#104C65" stroke-width="2" stroke-miterlimit="10"/>
<path d="M258.02 175.207V217.738" stroke="#104C65" stroke-width="2" stroke-miterlimit="10"/>
<path d="M232.768 175.059C236.444 175.059 239.425 172.085 239.425 168.416C239.425 164.747 236.444 161.773 232.768 161.773C229.091 161.773 226.111 164.747 226.111 168.416C226.111 172.085 229.091 175.059 232.768 175.059Z" stroke="#104C65" stroke-width="2" stroke-miterlimit="10"/>
<path d="M232.768 208.052C236.444 208.052 239.425 205.078 239.425 201.409C239.425 197.74 236.444 194.766 232.768 194.766C229.091 194.766 226.111 197.74 226.111 201.409C226.111 205.078 229.091 208.052 232.768 208.052Z" stroke="#104C65" stroke-width="2" stroke-miterlimit="10"/>
<path d="M209.562 127.444V219" stroke="#104C65" stroke-width="2" stroke-miterlimit="10"/>
<path d="M209.673 1.41028H187.806C185.463 1.41028 183.455 1.96696 182.525 5.9751C181.595 9.98323 177.988 30.9888 177.988 30.9888C177.988 30.9888 173.86 38.1886 173.86 44.6833C173.86 58.9715 180.443 91.9273 182.934 95.7128C187.137 103.469 196.843 114.306 203.202 114.306H209.599" stroke="#104C65" stroke-width="2" stroke-miterlimit="10"/>
<path d="M209.674 1.41028H231.541C233.884 1.41028 235.892 1.96696 236.822 5.9751C237.752 9.98323 241.359 30.9888 241.359 30.9888C241.359 30.9888 245.487 38.1886 245.487 44.6833C245.487 58.9715 238.904 91.9273 236.413 95.7128C232.21 103.469 222.504 114.306 216.145 114.306H209.748" stroke="#104C65" stroke-width="2" stroke-miterlimit="10"/>
<path d="M180.703 22.0447H239.165" stroke="#104C65" stroke-width="2" stroke-miterlimit="10"/>
<path d="M177.988 31.2486H240.726" stroke="#104C65" stroke-width="2" stroke-miterlimit="10"/>
<path d="M176.166 66.9878C176.166 66.9878 185.835 56.3737 190.298 45.4998C190.446 45.1286 190.744 44.906 191.116 44.8317L224.252 39.3762C224.735 39.302 225.219 39.5247 225.404 39.97C227.338 43.9039 236.673 62.5714 243.107 66.9507" stroke="#104C65" stroke-width="2" stroke-miterlimit="10"/>
<path d="M175.273 67.2847C175.273 67.2847 169.546 66.9136 169.546 72.5176V79.0864C169.546 79.7173 169.546 87.1769 179.624 86.9914" stroke="#104C65" stroke-width="2" stroke-miterlimit="10"/>
<path d="M244.817 67.2847C244.817 67.2847 250.545 66.9136 250.545 72.5176V79.0864C250.545 79.7173 250.545 87.1769 240.466 86.9914" stroke="#104C65" stroke-width="2" stroke-miterlimit="10"/>
<path d="M123.692 131.786C125.998 122.397 126.184 111.634 126.184 111.634" stroke="#104C65" stroke-width="2" stroke-miterlimit="10"/>
<path d="M117.556 127.518C119.713 118.722 120.903 104.62 120.903 104.62" stroke="#104C65" stroke-width="2" stroke-miterlimit="10"/>
<path d="M111.382 123.25C113.39 115.085 115.101 99.4611 115.101 99.4611" stroke="#104C65" stroke-width="2" stroke-miterlimit="10"/>
<path d="M105.246 118.982C107.105 111.411 108.965 95.8241 108.965 95.8241" stroke="#104C65" stroke-width="2" stroke-miterlimit="10"/>
<path d="M99.1096 114.714C100.82 107.737 102.68 92.8922 102.68 92.8922" stroke="#104C65" stroke-width="2" stroke-miterlimit="10"/>
<path d="M92.9734 110.446C94.5353 104.1 96.0229 91.2964 96.0229 91.2964" stroke="#104C65" stroke-width="2" stroke-miterlimit="10"/>
<path d="M86.8 106.141C88.2132 100.389 89.143 90.5542 89.143 90.5542" stroke="#104C65" stroke-width="2" stroke-miterlimit="10"/>
<path d="M80.6638 101.873C81.9283 96.7148 82.0398 90.851 82.0398 90.851" stroke="#104C65" stroke-width="2" stroke-miterlimit="10"/>
<path d="M71.5151 93.5603C79.8827 90.0346 89.4032 89.1068 98.9237 91.4077C120.122 96.6035 133.844 116.273 131.948 137.13" stroke="#104C65" stroke-width="2" stroke-miterlimit="10"/>
<path d="M132.989 73.1856C126.63 65.8744 117.853 59.5282 117.853 59.5282" stroke="#104C65" stroke-width="2" stroke-miterlimit="10"/>
<path d="M125.96 75.7463C120.01 68.9177 109.076 59.8251 109.076 59.8251" stroke="#104C65" stroke-width="2" stroke-miterlimit="10"/>
<path d="M118.894 78.27C113.353 71.9237 101.527 61.5323 101.527 61.5323" stroke="#104C65" stroke-width="2" stroke-miterlimit="10"/>
<path d="M111.828 80.7936C106.696 74.8927 94.9443 64.4271 94.9443 64.4271" stroke="#104C65" stroke-width="2" stroke-miterlimit="10"/>
<path d="M104.8 83.3173C100.076 77.8988 88.9197 67.8414 88.9197 67.8414" stroke="#104C65" stroke-width="2" stroke-miterlimit="10"/>
<path d="M97.7337 85.878C93.4197 80.9421 83.7505 72.332 83.7505 72.332" stroke="#104C65" stroke-width="2" stroke-miterlimit="10"/>
<path d="M90.6677 88.4016C86.7628 83.9481 79.2134 77.5277 79.2134 77.5277" stroke="#104C65" stroke-width="2" stroke-miterlimit="10"/>
<path d="M83.6389 90.9253C80.1431 86.9171 75.3457 83.4657 75.3457 83.4657" stroke="#104C65" stroke-width="2" stroke-miterlimit="10"/>
<path d="M71.5151 93.5603C73.449 84.7275 78.172 76.4144 85.5727 70.031C102.048 55.817 126.146 56.0026 142.138 69.5486" stroke="#104C65" stroke-width="2" stroke-miterlimit="10"/>
<path d="M19.3386 131.786C17.0329 122.397 16.8469 111.634 16.8469 111.634" stroke="#104C65" stroke-width="2" stroke-miterlimit="10"/>
<path d="M25.5121 127.518C23.3551 118.722 22.165 104.62 22.165 104.62" stroke="#104C65" stroke-width="2" stroke-miterlimit="10"/>
<path d="M31.6484 123.25C29.6402 115.085 27.9294 99.4611 27.9294 99.4611" stroke="#104C65" stroke-width="2" stroke-miterlimit="10"/>
<path d="M37.7846 118.982C35.9251 111.411 34.0657 95.8241 34.0657 95.8241" stroke="#104C65" stroke-width="2" stroke-miterlimit="10"/>
<path d="M43.9579 114.714C42.2472 107.737 40.3877 92.8922 40.3877 92.8922" stroke="#104C65" stroke-width="2" stroke-miterlimit="10"/>
<path d="M50.0942 110.446C48.5323 104.1 47.0447 91.2964 47.0447 91.2964" stroke="#104C65" stroke-width="2" stroke-miterlimit="10"/>
<path d="M56.2304 106.141C54.8172 100.389 53.8875 90.5542 53.8875 90.5542" stroke="#104C65" stroke-width="2" stroke-miterlimit="10"/>
<path d="M62.3667 101.873C61.1023 96.7148 60.9907 90.851 60.9907 90.851" stroke="#104C65" stroke-width="2" stroke-miterlimit="10"/>
<path d="M71.5152 93.5603C63.1476 90.0346 53.6272 89.1068 44.1067 91.4077C22.9088 96.6035 9.1859 116.273 11.0826 137.13" stroke="#104C65" stroke-width="2" stroke-miterlimit="10"/>
<path d="M10.0413 73.1856C16.4006 65.8744 25.1773 59.5282 25.1773 59.5282" stroke="#104C65" stroke-width="2" stroke-miterlimit="10"/>
<path d="M17.1072 75.7463C23.0575 68.9177 33.9911 59.8251 33.9911 59.8251" stroke="#104C65" stroke-width="2" stroke-miterlimit="10"/>
<path d="M24.1731 78.27C29.7143 71.9237 41.5405 61.5323 41.5405 61.5323" stroke="#104C65" stroke-width="2" stroke-miterlimit="10"/>
<path d="M31.2019 80.7936C36.334 74.8927 48.0859 64.4271 48.0859 64.4271" stroke="#104C65" stroke-width="2" stroke-miterlimit="10"/>
<path d="M38.2678 83.3173C42.9909 77.8988 54.1477 67.8414 54.1477 67.8414" stroke="#104C65" stroke-width="2" stroke-miterlimit="10"/>
<path d="M45.2966 85.878C49.6106 80.9421 59.2798 72.332 59.2798 72.332" stroke="#104C65" stroke-width="2" stroke-miterlimit="10"/>
<path d="M52.3625 88.4016C56.2674 83.9481 63.8169 77.5277 63.8169 77.5277" stroke="#104C65" stroke-width="2" stroke-miterlimit="10"/>
<path d="M59.4287 90.9253C62.9245 86.9171 67.7219 83.4657 67.7219 83.4657" stroke="#104C65" stroke-width="2" stroke-miterlimit="10"/>
<path d="M71.5151 93.5603C69.5813 84.7275 64.8582 76.4144 57.4576 70.031C40.9827 55.817 16.884 56.0026 0.892578 69.5486" stroke="#104C65" stroke-width="2" stroke-miterlimit="10"/>
<path d="M67.8706 93.0407V216.328" stroke="#104C65" stroke-width="2" stroke-miterlimit="10"/>
<path d="M74.8623 93.0407V216.328" stroke="#104C65" stroke-width="2" stroke-miterlimit="10"/>
<path d="M396.662 104.1C398.967 94.7107 399.153 83.9482 399.153 83.9482" stroke="#104C65" stroke-width="2" stroke-miterlimit="10"/>
<path d="M390.488 99.8322C392.645 91.0366 393.835 76.9339 393.835 76.9339" stroke="#104C65" stroke-width="2" stroke-miterlimit="10"/>
<path d="M384.352 95.5643C386.36 87.3996 388.071 71.7753 388.071 71.7753" stroke="#104C65" stroke-width="2" stroke-miterlimit="10"/>
<path d="M378.216 91.2964C380.075 83.7255 381.935 68.1383 381.935 68.1383" stroke="#104C65" stroke-width="2" stroke-miterlimit="10"/>
<path d="M372.042 87.0285C373.753 80.0514 375.612 65.2064 375.612 65.2064" stroke="#104C65" stroke-width="2" stroke-miterlimit="10"/>
<path d="M365.906 82.7606C367.468 76.4144 368.956 63.6106 368.956 63.6106" stroke="#104C65" stroke-width="2" stroke-miterlimit="10"/>
<path d="M359.77 78.4926C361.183 72.7402 362.113 62.9055 362.113 62.9055" stroke="#104C65" stroke-width="2" stroke-miterlimit="10"/>
<path d="M353.634 74.2247C354.898 69.0661 355.01 63.2024 355.01 63.2024" stroke="#104C65" stroke-width="2" stroke-miterlimit="10"/>
<path d="M344.485 65.8744C352.852 62.3488 362.373 61.421 371.893 63.7219C393.091 68.9176 406.814 88.5872 404.918 109.444" stroke="#104C65" stroke-width="2" stroke-miterlimit="10"/>
<path d="M405.959 45.5369C399.599 38.2257 390.823 31.8795 390.823 31.8795" stroke="#104C65" stroke-width="2" stroke-miterlimit="10"/>
<path d="M398.893 48.0605C392.943 41.2318 382.009 32.1393 382.009 32.1393" stroke="#104C65" stroke-width="2" stroke-miterlimit="10"/>
<path d="M391.827 50.5841C386.286 44.2379 374.459 33.8465 374.459 33.8465" stroke="#104C65" stroke-width="2" stroke-miterlimit="10"/>
<path d="M384.798 53.1078C379.666 47.2069 367.914 36.7412 367.914 36.7412" stroke="#104C65" stroke-width="2" stroke-miterlimit="10"/>
<path d="M377.732 55.6685C373.009 50.2501 361.852 40.1927 361.852 40.1927" stroke="#104C65" stroke-width="2" stroke-miterlimit="10"/>
<path d="M370.703 58.1922C366.389 53.2562 356.72 44.6462 356.72 44.6462" stroke="#104C65" stroke-width="2" stroke-miterlimit="10"/>
<path d="M363.637 60.7158C359.733 56.2624 352.183 49.8419 352.183 49.8419" stroke="#104C65" stroke-width="2" stroke-miterlimit="10"/>
<path d="M356.571 63.2395C353.075 59.2313 348.278 55.7799 348.278 55.7799" stroke="#104C65" stroke-width="2" stroke-miterlimit="10"/>
<path d="M344.485 65.8744C346.419 57.0417 351.142 48.7285 358.542 42.3452C375.017 28.1312 399.116 28.3167 415.107 41.8627" stroke="#104C65" stroke-width="2" stroke-miterlimit="10"/>
<path d="M292.308 104.1C290.003 94.7107 289.817 83.9482 289.817 83.9482" stroke="#104C65" stroke-width="2" stroke-miterlimit="10"/>
<path d="M298.445 99.8322C296.288 91.0366 295.098 76.9339 295.098 76.9339" stroke="#104C65" stroke-width="2" stroke-miterlimit="10"/>
<path d="M304.618 95.5643C302.61 87.3996 300.899 71.7753 300.899 71.7753" stroke="#104C65" stroke-width="2" stroke-miterlimit="10"/>
<path d="M310.754 91.2964C308.895 83.7255 307.035 68.1383 307.035 68.1383" stroke="#104C65" stroke-width="2" stroke-miterlimit="10"/>
<path d="M316.89 87.0285C315.18 80.0514 313.32 65.2064 313.32 65.2064" stroke="#104C65" stroke-width="2" stroke-miterlimit="10"/>
<path d="M323.027 82.7606C321.465 76.4144 319.977 63.6106 319.977 63.6106" stroke="#104C65" stroke-width="2" stroke-miterlimit="10"/>
<path d="M329.2 78.4926C327.787 72.7402 326.857 62.9055 326.857 62.9055" stroke="#104C65" stroke-width="2" stroke-miterlimit="10"/>
<path d="M335.336 74.2247C334.072 69.0661 333.96 63.2024 333.96 63.2024" stroke="#104C65" stroke-width="2" stroke-miterlimit="10"/>
<path d="M344.485 65.8744C336.117 62.3488 326.597 61.421 317.076 63.7219C295.879 68.9176 282.156 88.5872 284.052 109.444" stroke="#104C65" stroke-width="2" stroke-miterlimit="10"/>
<path d="M283.011 45.5369C289.37 38.2257 298.147 31.8795 298.147 31.8795" stroke="#104C65" stroke-width="2" stroke-miterlimit="10"/>
<path d="M290.04 48.0605C295.99 41.2318 306.924 32.1393 306.924 32.1393" stroke="#104C65" stroke-width="2" stroke-miterlimit="10"/>
<path d="M297.106 50.5841C302.647 44.2379 314.473 33.8465 314.473 33.8465" stroke="#104C65" stroke-width="2" stroke-miterlimit="10"/>
<path d="M304.172 53.1078C309.304 47.2069 321.056 36.7412 321.056 36.7412" stroke="#104C65" stroke-width="2" stroke-miterlimit="10"/>
<path d="M311.2 55.6685C315.923 50.2501 327.08 40.1927 327.08 40.1927" stroke="#104C65" stroke-width="2" stroke-miterlimit="10"/>
<path d="M318.266 58.1922C322.58 53.2562 332.25 44.6462 332.25 44.6462" stroke="#104C65" stroke-width="2" stroke-miterlimit="10"/>
<path d="M325.332 60.7158C329.237 56.2624 336.787 49.8419 336.787 49.8419" stroke="#104C65" stroke-width="2" stroke-miterlimit="10"/>
<path d="M332.361 63.2395C335.857 59.2313 340.654 55.7799 340.654 55.7799" stroke="#104C65" stroke-width="2" stroke-miterlimit="10"/>
<path d="M344.485 65.8744C342.551 57.0417 337.828 48.7285 330.427 42.3452C313.952 28.1312 289.854 28.3167 273.862 41.8627" stroke="#104C65" stroke-width="2" stroke-miterlimit="10"/>
<path d="M340.84 65.3549V219" stroke="#104C65" stroke-width="2" stroke-miterlimit="10"/>
<path d="M347.832 65.3549V218.889" stroke="#104C65" stroke-width="2" stroke-miterlimit="10"/>
</g>
<defs>
<clipPath id="clip0_110_11155">
<rect width="416" height="219" fill="white"/>
</clipPath>
</defs>
</svg>
