<svg width="366" height="176" viewBox="0 0 366 176" fill="none" xmlns="http://www.w3.org/2000/svg">
<g clip-path="url(#clip0_110_10983)">
<path d="M95.0063 109.569C96.7774 102.417 96.9202 94.2191 96.9202 94.2191" stroke="#104C65" stroke-width="2" stroke-miterlimit="10"/>
<path d="M90.293 106.318C91.9497 99.6184 92.8638 88.8763 92.8638 88.8763" stroke="#104C65" stroke-width="2" stroke-miterlimit="10"/>
<path d="M85.5513 103.067C87.0938 96.8481 88.4077 84.947 88.4077 84.947" stroke="#104C65" stroke-width="2" stroke-miterlimit="10"/>
<path d="M80.8381 99.8163C82.2664 94.0495 83.6946 82.1767 83.6946 82.1767" stroke="#104C65" stroke-width="2" stroke-miterlimit="10"/>
<path d="M76.125 96.5654C77.439 91.2509 78.8672 79.9435 78.8672 79.9435" stroke="#104C65" stroke-width="2" stroke-miterlimit="10"/>
<path d="M71.4119 93.3145C72.6116 88.4806 73.7542 78.728 73.7542 78.728" stroke="#104C65" stroke-width="2" stroke-miterlimit="10"/>
<path d="M66.6699 90.0637C67.7554 85.682 68.4695 78.1909 68.4695 78.1909" stroke="#104C65" stroke-width="2" stroke-miterlimit="10"/>
<path d="M61.9568 86.8128C62.928 82.8834 63.0137 78.417 63.0137 78.417" stroke="#104C65" stroke-width="2" stroke-miterlimit="10"/>
<path d="M54.9299 80.4523C61.357 77.7668 68.6696 77.0601 75.9821 78.8128C92.264 82.7703 102.804 97.7527 101.348 113.64" stroke="#104C65" stroke-width="2" stroke-miterlimit="10"/>
<path d="M102.147 64.9612C97.2628 59.3923 90.5215 54.5583 90.5215 54.5583" stroke="#104C65" stroke-width="2" stroke-miterlimit="10"/>
<path d="M96.7487 66.8834C92.1783 61.682 83.7803 54.7562 83.7803 54.7562" stroke="#104C65" stroke-width="2" stroke-miterlimit="10"/>
<path d="M91.3214 68.8056C87.0653 63.9717 77.9817 56.0565 77.9817 56.0565" stroke="#104C65" stroke-width="2" stroke-miterlimit="10"/>
<path d="M85.8942 70.7279C81.9522 66.2332 72.9258 58.2615 72.9258 58.2615" stroke="#104C65" stroke-width="2" stroke-miterlimit="10"/>
<path d="M80.4955 72.6785C76.8678 68.5513 68.2983 60.8905 68.2983 60.8905" stroke="#104C65" stroke-width="2" stroke-miterlimit="10"/>
<path d="M75.068 74.6007C71.7545 70.841 64.3276 64.2827 64.3276 64.2827" stroke="#104C65" stroke-width="2" stroke-miterlimit="10"/>
<path d="M69.6407 76.5229C66.6414 73.1307 60.8428 68.2402 60.8428 68.2402" stroke="#104C65" stroke-width="2" stroke-miterlimit="10"/>
<path d="M64.242 78.4735C61.5569 75.4205 57.8721 72.7915 57.8721 72.7915" stroke="#104C65" stroke-width="2" stroke-miterlimit="10"/>
<path d="M54.9299 80.4523C56.4153 73.7244 60.043 67.3922 65.7274 62.5301C78.3816 51.7032 96.8915 51.8445 109.174 62.1626" stroke="#104C65" stroke-width="2" stroke-miterlimit="10"/>
<path d="M14.8535 109.569C13.0825 102.417 12.9397 94.2191 12.9397 94.2191" stroke="#104C65" stroke-width="2" stroke-miterlimit="10"/>
<path d="M19.5955 106.318C17.9387 99.6184 17.0247 88.8763 17.0247 88.8763" stroke="#104C65" stroke-width="2" stroke-miterlimit="10"/>
<path d="M24.3086 103.067C22.7661 96.8481 21.4521 84.947 21.4521 84.947" stroke="#104C65" stroke-width="2" stroke-miterlimit="10"/>
<path d="M29.0218 99.8163C27.5935 94.0495 26.1653 82.1767 26.1653 82.1767" stroke="#104C65" stroke-width="2" stroke-miterlimit="10"/>
<path d="M33.7635 96.5654C32.4495 91.2509 31.0212 79.9435 31.0212 79.9435" stroke="#104C65" stroke-width="2" stroke-miterlimit="10"/>
<path d="M38.4766 93.3145C37.2769 88.4806 36.1343 78.728 36.1343 78.728" stroke="#104C65" stroke-width="2" stroke-miterlimit="10"/>
<path d="M43.19 90.0637C42.1045 85.682 41.3904 78.1909 41.3904 78.1909" stroke="#104C65" stroke-width="2" stroke-miterlimit="10"/>
<path d="M47.9031 86.8128C46.9319 82.8834 46.8462 78.417 46.8462 78.417" stroke="#104C65" stroke-width="2" stroke-miterlimit="10"/>
<path d="M54.93 80.4523C48.5029 77.7668 41.1903 77.0601 33.8778 78.8128C17.5959 82.7703 7.05548 97.7527 8.51228 113.64" stroke="#104C65" stroke-width="2" stroke-miterlimit="10"/>
<path d="M7.7124 64.9612C12.597 59.3923 19.3382 54.5583 19.3382 54.5583" stroke="#104C65" stroke-width="2" stroke-miterlimit="10"/>
<path d="M13.1399 66.8834C17.7103 61.682 26.1083 54.7562 26.1083 54.7562" stroke="#104C65" stroke-width="2" stroke-miterlimit="10"/>
<path d="M18.5671 68.8056C22.8233 63.9717 31.9069 56.0565 31.9069 56.0565" stroke="#104C65" stroke-width="2" stroke-miterlimit="10"/>
<path d="M23.9658 70.7279C27.9078 66.2332 36.9342 58.2615 36.9342 58.2615" stroke="#104C65" stroke-width="2" stroke-miterlimit="10"/>
<path d="M29.3931 72.6785C33.0208 68.5513 41.5902 60.8905 41.5902 60.8905" stroke="#104C65" stroke-width="2" stroke-miterlimit="10"/>
<path d="M34.7917 74.6007C38.1053 70.841 45.5321 64.2827 45.5321 64.2827" stroke="#104C65" stroke-width="2" stroke-miterlimit="10"/>
<path d="M40.2192 76.5229C43.2185 73.1307 49.0172 68.2402 49.0172 68.2402" stroke="#104C65" stroke-width="2" stroke-miterlimit="10"/>
<path d="M45.6465 78.4735C48.3316 75.4205 52.0164 72.7915 52.0164 72.7915" stroke="#104C65" stroke-width="2" stroke-miterlimit="10"/>
<path d="M54.93 80.4523C53.4446 73.7244 49.8169 67.3922 44.1325 62.5301C31.4783 51.7032 12.9684 51.8445 0.685547 62.1626" stroke="#104C65" stroke-width="2" stroke-miterlimit="10"/>
<path d="M52.1306 80.0565V173.965" stroke="#104C65" stroke-width="2" stroke-miterlimit="10"/>
<path d="M57.5007 80.0565V173.965" stroke="#104C65" stroke-width="2" stroke-miterlimit="10"/>
<path d="M351.118 88.5089C352.889 81.3569 353.032 73.1591 353.032 73.1591" stroke="#104C65" stroke-width="2" stroke-miterlimit="10"/>
<path d="M346.404 85.258C348.061 78.5583 348.975 67.8163 348.975 67.8163" stroke="#104C65" stroke-width="2" stroke-miterlimit="10"/>
<path d="M341.691 81.9788C343.234 75.7597 344.548 63.8586 344.548 63.8586" stroke="#104C65" stroke-width="2" stroke-miterlimit="10"/>
<path d="M336.949 78.728C338.378 72.9612 339.806 61.0884 339.806 61.0884" stroke="#104C65" stroke-width="2" stroke-miterlimit="10"/>
<path d="M332.236 75.4771C333.55 70.1626 334.979 58.8552 334.979 58.8552" stroke="#104C65" stroke-width="2" stroke-miterlimit="10"/>
<path d="M327.523 72.2262C328.723 67.3923 329.866 57.6396 329.866 57.6396" stroke="#104C65" stroke-width="2" stroke-miterlimit="10"/>
<path d="M322.781 68.9753C323.867 64.5937 324.581 57.1025 324.581 57.1025" stroke="#104C65" stroke-width="2" stroke-miterlimit="10"/>
<path d="M318.068 65.7244C319.039 61.795 319.125 57.3286 319.125 57.3286" stroke="#104C65" stroke-width="2" stroke-miterlimit="10"/>
<path d="M311.041 59.3923C317.468 56.7068 324.781 56 332.093 57.7527C348.375 61.7103 358.916 76.6926 357.459 92.5795" stroke="#104C65" stroke-width="2" stroke-miterlimit="10"/>
<path d="M358.259 43.8728C353.374 38.3039 346.633 33.47 346.633 33.47" stroke="#104C65" stroke-width="2" stroke-miterlimit="10"/>
<path d="M352.86 45.7951C348.29 40.5936 339.892 33.6678 339.892 33.6678" stroke="#104C65" stroke-width="2" stroke-miterlimit="10"/>
<path d="M347.433 47.7174C343.177 42.8835 334.093 34.9683 334.093 34.9683" stroke="#104C65" stroke-width="2" stroke-miterlimit="10"/>
<path d="M342.006 49.6678C338.064 45.1731 329.037 37.2014 329.037 37.2014" stroke="#104C65" stroke-width="2" stroke-miterlimit="10"/>
<path d="M336.607 51.5901C332.979 47.4629 324.41 39.8021 324.41 39.8021" stroke="#104C65" stroke-width="2" stroke-miterlimit="10"/>
<path d="M331.179 53.5124C327.866 49.7526 320.439 43.1943 320.439 43.1943" stroke="#104C65" stroke-width="2" stroke-miterlimit="10"/>
<path d="M325.781 55.463C322.781 52.0708 316.983 47.1803 316.983 47.1803" stroke="#104C65" stroke-width="2" stroke-miterlimit="10"/>
<path d="M320.353 57.3852C317.668 54.3322 313.983 51.7032 313.983 51.7032" stroke="#104C65" stroke-width="2" stroke-miterlimit="10"/>
<path d="M311.041 59.3923C312.527 52.6643 316.154 46.3322 321.839 41.47C334.493 30.6431 353.003 30.7845 365.286 41.1025" stroke="#104C65" stroke-width="2" stroke-miterlimit="10"/>
<path d="M270.993 88.5089C269.222 81.3569 269.08 73.1591 269.08 73.1591" stroke="#104C65" stroke-width="2" stroke-miterlimit="10"/>
<path d="M275.707 85.258C274.05 78.5583 273.136 67.8163 273.136 67.8163" stroke="#104C65" stroke-width="2" stroke-miterlimit="10"/>
<path d="M280.42 81.9788C278.877 75.7597 277.563 63.8586 277.563 63.8586" stroke="#104C65" stroke-width="2" stroke-miterlimit="10"/>
<path d="M285.133 78.728C283.705 72.9612 282.277 61.0884 282.277 61.0884" stroke="#104C65" stroke-width="2" stroke-miterlimit="10"/>
<path d="M289.875 75.4771C288.561 70.1626 287.133 58.8552 287.133 58.8552" stroke="#104C65" stroke-width="2" stroke-miterlimit="10"/>
<path d="M294.588 72.2262C293.388 67.3923 292.246 57.6396 292.246 57.6396" stroke="#104C65" stroke-width="2" stroke-miterlimit="10"/>
<path d="M299.301 68.9753C298.216 64.5937 297.502 57.1025 297.502 57.1025" stroke="#104C65" stroke-width="2" stroke-miterlimit="10"/>
<path d="M304.043 65.7244C303.072 61.795 302.986 57.3286 302.986 57.3286" stroke="#104C65" stroke-width="2" stroke-miterlimit="10"/>
<path d="M311.041 59.3923C304.614 56.7068 297.302 56 289.989 57.7527C273.707 61.7103 263.167 76.6926 264.624 92.5795" stroke="#104C65" stroke-width="2" stroke-miterlimit="10"/>
<path d="M263.824 43.8728C268.708 38.3039 275.45 33.47 275.45 33.47" stroke="#104C65" stroke-width="2" stroke-miterlimit="10"/>
<path d="M269.251 45.7951C273.822 40.5936 282.22 33.6678 282.22 33.6678" stroke="#104C65" stroke-width="2" stroke-miterlimit="10"/>
<path d="M274.678 47.7174C278.935 42.8835 288.018 34.9683 288.018 34.9683" stroke="#104C65" stroke-width="2" stroke-miterlimit="10"/>
<path d="M280.077 49.6678C284.019 45.1731 293.046 37.2014 293.046 37.2014" stroke="#104C65" stroke-width="2" stroke-miterlimit="10"/>
<path d="M285.504 51.5901C289.132 47.4629 297.702 39.8021 297.702 39.8021" stroke="#104C65" stroke-width="2" stroke-miterlimit="10"/>
<path d="M290.932 53.5124C294.245 49.7526 301.672 43.1943 301.672 43.1943" stroke="#104C65" stroke-width="2" stroke-miterlimit="10"/>
<path d="M296.331 55.463C299.33 52.0708 305.129 47.1803 305.129 47.1803" stroke="#104C65" stroke-width="2" stroke-miterlimit="10"/>
<path d="M301.758 57.3852C304.443 54.3322 308.128 51.7032 308.128 51.7032" stroke="#104C65" stroke-width="2" stroke-miterlimit="10"/>
<path d="M311.041 59.3923C309.556 52.6643 305.928 46.3322 300.244 41.47C287.59 30.6431 269.08 30.7845 256.797 41.1025" stroke="#104C65" stroke-width="2" stroke-miterlimit="10"/>
<path d="M308.242 58.9683V176" stroke="#104C65" stroke-width="2" stroke-miterlimit="10"/>
<path d="M313.612 58.9683V175.944" stroke="#104C65" stroke-width="2" stroke-miterlimit="10"/>
<path d="M177.873 108.89C164.961 108.89 151.45 98.1766 151.45 98.1766L149.479 105.837L101.691 122.459L93.7209 173.738" stroke="#104C65" stroke-width="2" stroke-miterlimit="10"/>
<path d="M148.679 17.6961C154.564 7.74555 165.476 1.0459 177.987 1.0459C190.498 1.0459 201.41 7.74555 207.294 17.6961" stroke="#104C65" stroke-width="2" stroke-miterlimit="10"/>
<path d="M209.951 17.696H145.966C144.578 17.696 143.452 18.8098 143.452 20.1837C143.452 21.5576 144.578 22.6713 145.966 22.6713H209.951C211.339 22.6713 212.465 21.5576 212.465 20.1837C212.465 18.8098 211.339 17.696 209.951 17.696Z" stroke="#104C65" stroke-width="2" stroke-miterlimit="10"/>
<path d="M209.951 22.6714H145.966C144.578 22.6714 143.452 23.7851 143.452 25.159C143.452 26.5329 144.578 27.6466 145.966 27.6466H209.951C211.339 27.6466 212.465 26.5329 212.465 25.159C212.465 23.7851 211.339 22.6714 209.951 22.6714Z" stroke="#104C65" stroke-width="2" stroke-miterlimit="10"/>
<path d="M145.966 27.6466C142.053 27.6466 138.853 30.7844 138.853 34.6855V64.8198" stroke="#104C65" stroke-width="2" stroke-miterlimit="10"/>
<path d="M177.958 68.4946C166.39 68.4946 162.276 74.2897 162.048 75.3356H177.958" stroke="#104C65" stroke-width="2" stroke-miterlimit="10"/>
<path d="M153.821 48.9611V65.0741C153.821 70.7561 158.02 75.3356 163.219 75.3356" stroke="#104C65" stroke-width="2" stroke-miterlimit="10"/>
<path d="M156.906 41.3003C156.906 36.325 160.991 32.2826 166.018 32.2826H166.161" stroke="#104C65" stroke-width="2" stroke-miterlimit="10"/>
<path d="M156.392 95.5194V100.89" stroke="#104C65" stroke-width="2" stroke-miterlimit="10"/>
<path d="M145.795 22.6714L209.78 22.6714C211.168 22.6714 212.293 21.5576 212.293 20.1838C212.293 18.8099 211.168 17.6961 209.78 17.6961L145.795 17.6961C144.406 17.6961 143.281 18.8099 143.281 20.1838C143.281 21.5576 144.406 22.6714 145.795 22.6714Z" stroke="#104C65" stroke-width="2" stroke-miterlimit="10"/>
<path d="M226.147 112.396V74.0636C226.147 68.947 221.948 64.7915 216.778 64.7915H213.093C209.523 64.7915 206.637 61.9364 206.637 58.4028H209.18C211.579 58.4028 213.493 56.4806 213.493 54.1343C213.493 51.7597 211.551 49.8657 209.18 49.8657H207.494C202.724 49.8657 198.868 46.0495 198.868 41.3286H200.839C203.353 41.3286 205.381 39.3216 205.381 36.8339C205.381 34.3463 203.353 32.3392 200.839 32.3392H177.816H178.016H154.992C152.479 32.3392 150.451 34.3463 150.451 36.8339C150.451 39.3216 152.479 41.3286 154.992 41.3286H156.963C156.963 46.0495 153.107 49.8657 148.337 49.8657H146.652C144.252 49.8657 142.338 51.788 142.338 54.1343C142.338 56.5088 144.281 58.4028 146.652 58.4028H149.194C149.194 61.9364 146.309 64.7915 142.738 64.7915H139.053C133.883 64.7915 129.684 68.947 129.684 74.0636V112.396" stroke="#104C65" stroke-width="2" stroke-miterlimit="10"/>
<path d="M198.811 41.3003C198.811 36.325 194.726 32.2826 189.698 32.2826H189.556" stroke="#104C65" stroke-width="2" stroke-miterlimit="10"/>
<path d="M209.78 27.6466C213.693 27.6466 216.892 30.7844 216.892 34.6855V64.8198" stroke="#104C65" stroke-width="2" stroke-miterlimit="10"/>
<path d="M177.787 68.4946C189.356 68.4946 193.469 74.2897 193.697 75.3356C187.013 75.3356 177.787 75.3356 177.787 75.3356" stroke="#104C65" stroke-width="2" stroke-miterlimit="10"/>
<path d="M192.298 75.3639C192.298 81.4416 187.328 86.3886 181.158 86.3886C181.158 84.636 179.729 83.1943 177.958 83.166H177.873H177.758C175.987 83.2225 174.559 84.636 174.559 86.3886C168.418 86.3886 163.419 81.4699 163.419 75.3639" stroke="#104C65" stroke-width="2" stroke-miterlimit="10"/>
<path d="M149.936 49.696V83.9293C149.936 85.5123 150.365 87.0671 151.193 88.4522C154.021 93.2296 161.933 103.463 177.787 103.548C177.787 103.548 177.844 103.548 177.873 103.548C177.901 103.548 177.93 103.548 177.958 103.548C193.812 103.463 201.724 93.2296 204.552 88.4522C205.352 87.0953 205.809 85.5406 205.809 83.9293V49.696" stroke="#104C65" stroke-width="2" stroke-miterlimit="10"/>
<path d="M201.924 48.9611V65.0741C201.924 70.7561 197.725 75.3356 192.526 75.3356" stroke="#104C65" stroke-width="2" stroke-miterlimit="10"/>
<path d="M199.353 95.5194V100.89" stroke="#104C65" stroke-width="2" stroke-miterlimit="10"/>
<path d="M151.679 173.343L144.366 107.618" stroke="#104C65" stroke-width="2" stroke-miterlimit="10"/>
<path d="M101.69 122.459C101.69 122.459 116.116 151.039 120.857 173.71" stroke="#104C65" stroke-width="2" stroke-miterlimit="10"/>
<path d="M184.728 173.512V108.608H170.817V173.512" stroke="#104C65" stroke-width="2" stroke-miterlimit="10"/>
<path d="M177.787 62.4735V52.1272" stroke="#104C65" stroke-width="2" stroke-miterlimit="10"/>
<path d="M177.873 108.89C190.784 108.89 204.295 98.1766 204.295 98.1766L206.266 105.837L254.055 122.459L261.996 173.541" stroke="#104C65" stroke-width="2" stroke-miterlimit="10"/>
<path d="M204.038 173.484L211.379 107.618" stroke="#104C65" stroke-width="2" stroke-miterlimit="10"/>
<path d="M254.055 122.459C254.055 122.459 239.63 151.039 234.888 173.682" stroke="#104C65" stroke-width="2" stroke-miterlimit="10"/>
</g>
<defs>
<clipPath id="clip0_110_10983">
<rect width="366" height="176" fill="white"/>
</clipPath>
</defs>
</svg>
