<svg width="428" height="229" viewBox="0 0 428 229" fill="none" xmlns="http://www.w3.org/2000/svg">
<path d="M349.663 112.355L351.544 118.108L359.144 117.341L356.717 109.93C354.749 110.604 352.359 111.405 349.659 112.333L349.663 112.355Z" stroke="#104C65" stroke-width="2" stroke-miterlimit="10"/>
<path d="M366.728 116.6L363.792 107.613L366.728 116.6Z" stroke="#104C65" stroke-width="2" stroke-miterlimit="10"/>
<path d="M359.149 117.362L360.199 120.575C364.04 119.312 368.205 121.426 369.467 125.267L369.575 125.246L366.749 116.595" stroke="#104C65" stroke-width="2" stroke-miterlimit="10"/>
<path d="M366.727 116.6L363.792 107.613C362.724 107.977 361.695 108.312 360.726 108.613C359.697 108.947 358.353 109.388 356.721 109.952" stroke="#104C65" stroke-width="2" stroke-miterlimit="10"/>
<path d="M96.9593 142.652L26.4845 117.394L8.80363 123.164L20.8087 136.055L27.6943 133.798L47.296 152.892L39.5926 156.225L47.4748 164.694C53.5418 159.268 70.2055 151.374 90.5304 144.732C90.5304 144.732 92.8385 143.969 96.9336 142.635L96.9593 142.652Z" stroke="#104C65" stroke-width="2" stroke-miterlimit="10"/>
<path d="M20.3265 136.217L39.6185 156.242L20.8304 136.051L20.3265 136.217Z" stroke="#104C65" stroke-width="2" stroke-miterlimit="10"/>
<path d="M47.3218 152.909L27.7159 133.793L20.8304 136.051L39.6185 156.242L47.3218 152.909Z" stroke="#104C65" stroke-width="2" stroke-miterlimit="10"/>
<path d="M363.792 107.613C378.98 102.575 405.424 93.0653 411.115 81.8161C414.084 75.9664 413.06 71.7439 409.501 68.9535C402.329 77.9899 392.283 82.9409 383.296 85.8764C373.827 88.973 333.044 102.261 298.087 113.698L295.823 114.229C297.465 114.177 298.811 115.009 298.811 115.009C298.811 115.009 301.664 116.239 303.033 120.395C304.401 124.55 303.218 127.305 303.218 127.305C303.218 127.305 302.085 127.793 300.476 128.822L300.493 128.908C300.493 128.908 300.463 128.869 300.438 128.852C299.743 129.3 298.881 129.803 297.837 130.408C315.275 124.307 336.33 116.942 349.684 112.351" stroke="#104C65" stroke-width="2" stroke-miterlimit="10"/>
<path d="M145.766 145.087L129.396 143.834L151.086 136.747L195.49 129.32C195.345 129.147 195.243 128.966 195.154 128.738L193.773 124.517C193.493 123.656 193.962 122.739 194.823 122.459L196.167 122.018C197.028 121.739 197.946 122.208 198.225 123.069L199.606 127.289C199.767 127.771 199.661 128.261 199.427 128.664L207.129 127.386M47.4791 164.715C46.0326 166.002 45.1885 167.172 45.0635 168.134L100.875 149.907C102.219 149.466 103.681 150.209 104.1 151.556L104.43 152.564C104.871 153.908 104.125 155.348 102.781 155.789L54.7204 171.5C73.273 173.87 117.419 174.399 175.845 164.082C175.431 163.56 175.111 162.952 174.955 162.268C173.789 157.314 177.478 153.669 186.321 150.337C97.7909 175.791 57.8078 170.497 57.8078 170.497M409.505 68.9749C406.661 66.7598 402.231 65.457 396.863 64.9622C385.811 63.9452 380.028 60.5163 369.341 57.5965C348.771 51.9802 311.108 70.7346 279.575 81.862C238.803 96.2418 125.16 133.448 96.9636 142.674M368.011 65.8962L372.946 64.2866L380.275 61.8976L395.181 65.156L367.278 74.2805L368.015 65.9177L368.011 65.8962ZM328.662 78.7481L330.005 78.3075C330.866 78.028 331.784 78.4968 332.064 79.358L333.445 83.578C333.724 84.4392 333.255 85.357 332.394 85.6365L331.051 86.0771C330.189 86.3567 329.272 85.8879 328.992 85.0266L327.611 80.8066C327.332 79.9454 327.8 79.0277 328.662 78.7481ZM315.287 83.1197L316.63 82.6791C317.491 82.3996 318.409 82.8684 318.689 83.7296L320.07 87.9496C320.349 88.8108 319.88 89.7285 319.019 90.0081L317.676 90.4487C316.814 90.7282 315.897 90.2594 315.617 89.3982L314.236 85.1782C313.957 84.317 314.425 83.3992 315.287 83.1197ZM301.912 87.4912L303.255 87.0507C304.117 86.7711 305.034 87.2399 305.314 88.1011L306.695 92.3211C306.974 93.1824 306.506 94.1001 305.644 94.3797L304.301 94.8202C303.44 95.0998 302.522 94.631 302.242 93.7698L300.861 89.5498C300.582 88.6885 301.051 87.7708 301.912 87.4912ZM288.537 91.8628L289.881 91.4222C290.742 91.1427 291.66 91.6115 291.939 92.4727L293.32 96.6927C293.6 97.5539 293.131 98.4717 292.27 98.7512L290.926 99.1918C290.065 99.4713 289.147 99.0025 288.868 98.1413L287.487 93.9213C287.207 93.0601 287.676 92.1423 288.537 91.8628ZM275.162 96.2344L276.506 95.7938C277.367 95.5142 278.285 95.983 278.564 96.8443L279.945 101.064C280.225 101.925 279.756 102.843 278.895 103.123L277.551 103.563C276.69 103.843 275.772 103.374 275.493 102.513L274.112 98.2929C273.832 97.4317 274.301 96.5139 275.162 96.2344ZM261.787 100.606L263.131 100.165C263.992 99.8858 264.91 100.355 265.189 101.216L266.57 105.436C266.85 106.297 266.381 107.215 265.52 107.494L264.176 107.935C263.315 108.214 262.397 107.746 262.118 106.884L260.737 102.664C260.457 101.803 260.926 100.885 261.787 100.606ZM248.413 104.977L249.756 104.537C250.617 104.257 251.535 104.726 251.815 105.587L253.196 109.807C253.475 110.669 253.006 111.586 252.145 111.866L250.802 112.306C249.94 112.586 249.023 112.117 248.743 111.256L247.362 107.036C247.083 106.175 247.551 105.257 248.413 104.977ZM235.038 109.349L236.381 108.908C237.243 108.629 238.16 109.098 238.44 109.959L239.821 114.179C240.1 115.04 239.632 115.958 238.77 116.237L237.427 116.678C236.566 116.958 235.648 116.489 235.368 115.628L233.987 111.408C233.708 110.546 234.177 109.629 235.038 109.349ZM221.663 113.721L223.006 113.28C223.868 113 224.785 113.469 225.065 114.331L226.446 118.551C226.725 119.412 226.257 120.329 225.395 120.609L224.052 121.05C223.191 121.329 222.273 120.86 221.993 119.999L220.612 115.779C220.333 114.918 220.802 114 221.663 113.721ZM208.288 118.092L209.632 117.652C210.493 117.372 211.411 117.841 211.69 118.702L213.071 122.922C213.351 123.783 212.882 124.701 212.021 124.981L210.677 125.421C209.816 125.701 208.898 125.232 208.619 124.371L207.238 120.151C206.958 119.289 207.427 118.372 208.288 118.092Z" stroke="#104C65" stroke-width="2" stroke-miterlimit="10"/>
<path d="M380.292 61.872L372.963 64.261L372.872 71.5822L372.963 64.261L368.028 65.8706L367.291 74.2334L395.199 65.1305L380.292 61.872Z" stroke="#104C65" stroke-width="2" stroke-miterlimit="10"/>
<path d="M199.628 127.284L198.247 123.064C197.967 122.203 197.05 121.734 196.189 122.014L194.845 122.455C193.984 122.734 193.515 123.652 193.795 124.513L195.175 128.733C195.239 128.944 195.367 129.142 195.512 129.315L199.449 128.659C199.705 128.252 199.789 127.767 199.628 127.284Z" stroke="#104C65" stroke-width="2" stroke-miterlimit="10"/>
<path d="M208.213 118.087L209.547 117.652C210.401 117.373 211.334 117.829 211.62 118.704L213.001 122.935C213.28 123.789 212.824 124.722 211.948 125.008L210.615 125.443C209.76 125.722 208.827 125.266 208.541 124.391L207.16 120.16C206.881 119.306 207.338 118.373 208.213 118.087Z" stroke="#104C65" stroke-width="2" stroke-miterlimit="10"/>
<path d="M222.937 113.27L221.603 113.706C220.74 113.988 220.269 114.917 220.551 115.78L221.927 119.989C222.209 120.852 223.138 121.323 224.001 121.041L225.334 120.605C226.197 120.323 226.668 119.394 226.386 118.531L225.01 114.322C224.728 113.459 223.8 112.988 222.937 113.27Z" stroke="#104C65" stroke-width="2" stroke-miterlimit="10"/>
<path d="M236.343 108.895L235.01 109.33C234.146 109.612 233.675 110.541 233.958 111.404L235.333 115.613C235.615 116.476 236.544 116.947 237.407 116.665L238.74 116.229C239.604 115.947 240.075 115.019 239.792 114.156L238.417 109.946C238.135 109.083 237.206 108.612 236.343 108.895Z" stroke="#104C65" stroke-width="2" stroke-miterlimit="10"/>
<path d="M249.711 104.53L248.377 104.965C247.514 105.247 247.042 106.175 247.324 107.038L248.697 111.248C248.979 112.111 249.907 112.583 250.77 112.301L252.104 111.866C252.967 111.584 253.439 110.656 253.157 109.793L251.784 105.583C251.502 104.72 250.574 104.248 249.711 104.53Z" stroke="#104C65" stroke-width="2" stroke-miterlimit="10"/>
<path d="M261.75 100.623L263.084 100.187C263.938 99.908 264.871 100.364 265.157 101.239L266.539 105.47C266.818 106.324 266.362 107.257 265.487 107.543L264.153 107.979C263.299 108.258 262.366 107.801 262.08 106.926L260.698 102.696C260.419 101.842 260.875 100.909 261.75 100.623Z" stroke="#104C65" stroke-width="2" stroke-miterlimit="10"/>
<path d="M276.482 95.7808L275.148 96.216C274.285 96.4976 273.813 97.4257 274.095 98.289L275.468 102.499C275.75 103.362 276.678 103.833 277.542 103.552L278.875 103.117C279.739 102.835 280.21 101.907 279.928 101.044L278.555 96.8338C278.273 95.9706 277.345 95.4991 276.482 95.7808Z" stroke="#104C65" stroke-width="2" stroke-miterlimit="10"/>
<path d="M289.854 91.3916L288.521 91.827C287.658 92.1088 287.186 93.037 287.468 93.9002L288.842 98.1098C289.124 98.973 290.052 99.4443 290.916 99.1625L292.249 98.727C293.112 98.4452 293.584 97.517 293.302 96.6538L291.928 92.4443C291.646 91.5811 290.718 91.1098 289.854 91.3916Z" stroke="#104C65" stroke-width="2" stroke-miterlimit="10"/>
<path d="M303.262 87.0222L301.928 87.4581C301.065 87.7402 300.594 88.6685 300.876 89.5316L302.252 93.7407C302.534 94.6038 303.463 95.0748 304.326 94.7927L305.659 94.3568C306.522 94.0747 306.993 93.1463 306.711 92.2832L305.335 88.0742C305.053 87.2111 304.125 86.7401 303.262 87.0222Z" stroke="#104C65" stroke-width="2" stroke-miterlimit="10"/>
<path d="M316.625 82.6573L315.292 83.0932C314.429 83.3753 313.958 84.3037 314.24 85.1668L315.616 89.3758C315.898 90.2389 316.826 90.7099 317.689 90.4278L319.023 89.9919C319.886 89.7098 320.357 88.7814 320.075 87.9183L318.699 83.7093C318.417 82.8462 317.488 82.3752 316.625 82.6573Z" stroke="#104C65" stroke-width="2" stroke-miterlimit="10"/>
<path d="M328.676 78.7086L330.01 78.2732C330.865 77.9942 331.798 78.4506 332.083 79.3259L333.465 83.5563C333.743 84.4107 333.287 85.3437 332.412 85.6295L331.078 86.0649C330.224 86.3438 329.291 85.8874 329.005 85.0122L327.624 80.7818C327.345 79.9274 327.801 78.9944 328.676 78.7086Z" stroke="#104C65" stroke-width="2" stroke-miterlimit="10"/>
<path d="M57.7825 170.479C57.7825 170.479 97.7829 175.747 186.295 150.319C187.295 149.946 188.358 149.56 189.495 149.204L191.385 148.59L145.749 145.113" stroke="#104C65" stroke-width="2" stroke-miterlimit="10"/>
<path d="M45.0632 168.134L37.1874 170.697C35.8439 171.138 35.0973 172.578 35.5379 173.922L35.8683 174.93C36.3089 176.273 37.7498 177.02 39.0933 176.579L54.7159 171.479" stroke="#104C65" stroke-width="2" stroke-miterlimit="10"/>
<path d="M54.7374 171.475L102.798 155.764C104.142 155.323 104.888 153.882 104.447 152.539L104.117 151.531C103.676 150.187 102.236 149.441 100.892 149.882L45.0805 168.109" stroke="#104C65" stroke-width="2" stroke-miterlimit="10"/>
<path d="M207.125 127.364L199.424 128.642C198.257 128.847 196.601 129.17 195.487 129.298L151.082 136.725L129.392 143.812L145.762 145.066" stroke="#104C65" stroke-width="2" stroke-miterlimit="10"/>
<path d="M145.765 145.087L191.402 148.564L221.736 139.19L236.344 134.153L295.757 114.465L307.896 110.513L207.125 127.364" stroke="#104C65" stroke-width="2" stroke-miterlimit="10"/>
<path d="M241.298 149.023L242.53 152.825C244.339 152.249 246.143 151.652 247.99 151.046C275.812 141.96 293.251 132.999 300.218 128.984" stroke="#104C65" stroke-width="2" stroke-miterlimit="10"/>
<path d="M175.837 164.039C180.384 169.719 199.719 165.905 227.895 157.376L226.463 153.009" stroke="#104C65" stroke-width="2" stroke-miterlimit="10"/>
<path d="M226.488 153.026L221.964 139.212C209.299 143.446 197.419 147.124 186.295 150.32C177.452 153.651 173.763 157.296 174.929 162.25C175.085 162.935 175.405 163.543 175.819 164.065" stroke="#104C65" stroke-width="2" stroke-miterlimit="10"/>
<path d="M300.47 128.91L300.453 128.826C300.453 128.826 300.411 128.834 300.39 128.838C300.394 128.859 300.466 128.889 300.466 128.889L300.47 128.91Z" stroke="#104C65" stroke-width="2" stroke-miterlimit="10"/>
<path d="M237.819 154.324L239.247 158.669L243.949 157.127L242.547 152.799" stroke="#104C65" stroke-width="2" stroke-miterlimit="10"/>
<path d="M227.92 157.393L229.377 161.888L234.084 160.368L232.639 155.937" stroke="#104C65" stroke-width="2" stroke-miterlimit="10"/>
<path d="M232.639 155.937L231.288 151.756" stroke="#104C65" stroke-width="2" stroke-miterlimit="10"/>
<path d="M242.547 152.8L241.297 149.023" stroke="#104C65" stroke-width="2" stroke-miterlimit="10"/>
<path d="M236.532 150.354L237.819 154.324" stroke="#104C65" stroke-width="2" stroke-miterlimit="10"/>
<path d="M241.297 149.023L236.473 134.24C231.52 135.987 226.705 137.641 221.964 139.212L226.488 153.027" stroke="#104C65" stroke-width="2" stroke-miterlimit="10"/>
<path d="M231.288 151.756L229.208 145.439L234.375 143.761L236.531 150.354" stroke="#104C65" stroke-width="2" stroke-miterlimit="10"/>
<path d="M234.084 160.368L238.638 174.333C239.79 175.203 240.67 176.393 241.174 177.836L242.75 177.328C242.698 175.797 243.122 174.307 243.932 173.077L239.23 158.695" stroke="#104C65" stroke-width="2" stroke-miterlimit="10"/>
<path d="M236.531 150.354L234.375 143.761L229.208 145.439L231.288 151.756" stroke="#104C65" stroke-width="2" stroke-miterlimit="10"/>
<path d="M133.492 130.93C131.867 128.209 130.829 125.062 130.575 121.694C129.72 110.091 138.428 99.9954 150.053 99.1364C161.678 98.2774 170.848 106.25 172.442 117.062" stroke="#104C65" stroke-width="2" stroke-miterlimit="10"/>
<path d="M150.053 99.1365L146.4 49.4623" stroke="#104C65" stroke-width="2" stroke-miterlimit="10"/>
<path d="M86.646 124.919L130.574 121.694" stroke="#104C65" stroke-width="2" stroke-miterlimit="10"/>
<path d="M141.986 101.066L125.972 69.212" stroke="#104C65" stroke-width="2" stroke-miterlimit="10"/>
<path d="M170.78 110.484L202.509 94.5166" stroke="#104C65" stroke-width="2" stroke-miterlimit="10"/>
<path d="M135.628 106.37L97.9529 73.8473" stroke="#104C65" stroke-width="2" stroke-miterlimit="10"/>
<path d="M165.355 104.194L197.895 66.4934" stroke="#104C65" stroke-width="2" stroke-miterlimit="10"/>
<path d="M131.191 113.4L97.4578 102.242" stroke="#104C65" stroke-width="2" stroke-miterlimit="10"/>
<path d="M158.299 99.8517L169.484 66.0238" stroke="#104C65" stroke-width="2" stroke-miterlimit="10"/>
<path d="M295.002 115.171C292.923 119.976 295.477 127.808 302.382 127.825" stroke="#104C65" stroke-width="2" stroke-miterlimit="10"/>
<path d="M235.47 187.993C239.546 187.199 242.207 183.25 241.412 179.174C240.617 175.098 236.669 172.438 232.593 173.233C228.517 174.027 225.857 177.976 226.652 182.052C227.446 186.128 231.394 188.788 235.47 187.993Z" stroke="#104C65" stroke-width="2" stroke-miterlimit="10"/>
<path d="M251.801 184.81C255.877 184.015 258.538 180.067 257.743 175.991C256.949 171.915 253 169.255 248.924 170.049C244.848 170.844 242.188 174.792 242.983 178.868C243.777 182.944 247.725 185.604 251.801 184.81Z" stroke="#104C65" stroke-width="2" stroke-miterlimit="10"/>
<path d="M363.839 135.12C367.915 134.325 370.575 130.377 369.78 126.301C368.986 122.225 365.037 119.565 360.961 120.359C356.885 121.154 354.225 125.102 355.02 129.178C355.814 133.254 359.763 135.914 363.839 135.12Z" stroke="#104C65" stroke-width="2" stroke-miterlimit="10"/>
</svg>
