<svg width="417" height="259" viewBox="0 0 417 259" fill="none" xmlns="http://www.w3.org/2000/svg">
<path d="M323.719 190.007L322.657 195.728L329.424 198.581L330.788 191.209C328.817 190.871 326.431 190.447 323.725 189.987L323.719 190.007Z" stroke="#104C65" stroke-width="2" stroke-miterlimit="10"/>
<path d="M336.165 201.448L337.826 192.512L336.165 201.448Z" stroke="#104C65" stroke-width="2" stroke-miterlimit="10"/>
<path d="M329.418 198.601L328.826 201.796C332.649 202.499 335.189 206.201 334.486 210.024L334.587 210.055L336.186 201.454" stroke="#104C65" stroke-width="2" stroke-miterlimit="10"/>
<path d="M336.165 201.448L337.826 192.512C336.757 192.328 335.735 192.136 334.779 191.943C333.756 191.752 332.419 191.505 330.782 191.229" stroke="#104C65" stroke-width="2" stroke-miterlimit="10"/>
<path d="M96.5066 99.2095L48.6626 45.4412L31.0847 42.1682L35.2795 58.576L42.1301 59.8412L49.8798 84.9813L41.844 84.2469L44.5959 95.0239C52.2146 93.2384 69.9124 94.2501 90.1235 98.0041C90.1235 98.0041 92.4225 98.4234 96.4929 99.1831L96.5066 99.2095Z" stroke="#104C65" stroke-width="2" stroke-miterlimit="10"/>
<path d="M34.7978 58.4898L41.8571 84.2733L35.299 58.5824L34.7978 58.4898Z" stroke="#104C65" stroke-width="2" stroke-miterlimit="10"/>
<path d="M49.8933 85.0079L42.15 59.8477L35.2994 58.5825L41.8575 84.2734L49.8933 85.0079Z" stroke="#104C65" stroke-width="2" stroke-miterlimit="10"/>
<path d="M337.826 192.512C352.963 195.254 379.659 199.406 389.642 192.533C394.841 188.964 395.922 184.928 394.203 180.935C383.989 185.258 373.231 184.81 364.295 183.149C354.878 181.402 314.342 173.836 279.574 167.391L277.419 166.796C278.829 167.508 279.582 168.83 279.582 168.83C279.582 168.83 281.423 171.183 280.664 175.32C279.906 179.457 277.639 181.236 277.639 181.236C277.639 181.236 276.458 181.127 274.627 181.254L274.601 181.335C274.601 181.335 274.594 181.288 274.58 181.262C273.788 181.32 272.828 181.347 271.669 181.378C289.195 184.258 310.355 187.738 323.739 190.014" stroke="#104C65" stroke-width="2" stroke-miterlimit="10"/>
<path d="M136.574 123.739L123.336 115.143L144.904 119.15L185.798 133.33C185.755 133.117 185.752 132.917 185.782 132.684L186.56 128.486C186.72 127.631 187.539 127.072 188.394 127.233L189.731 127.48C190.586 127.64 191.145 128.459 190.984 129.314L190.206 133.511C190.12 133.993 189.806 134.357 189.423 134.589L196.511 137.057M44.5896 95.044C42.7762 95.464 41.5253 96.0623 40.9765 96.8169L96.4703 107.135C97.807 107.382 98.6994 108.682 98.4324 110.012L98.2473 111.015C98.0004 112.351 96.7069 113.224 95.3702 112.977L47.5761 104.105C62.142 114.647 99.1543 135.423 153.211 153.62C153.102 152.989 153.112 152.329 153.296 151.679C154.593 146.961 159.385 145.584 168.381 146.844C81.9485 127.558 50.6439 104.679 50.6439 104.679M394.197 180.955C392.817 177.776 389.678 174.636 385.376 171.747C376.517 165.799 373.215 160.242 365.541 152.857C350.768 138.645 310.347 137.129 278.612 131.999C237.583 125.36 124.544 104.428 96.5002 99.2296M360.597 159.249L365.502 160.163L372.788 161.522L383.867 171.136L356.117 165.987L360.59 159.269L360.597 159.249ZM321.471 151.975L322.808 152.222C323.663 152.383 324.222 153.201 324.061 154.056L323.283 158.254C323.123 159.109 322.304 159.668 321.449 159.507L320.112 159.26C319.257 159.1 318.698 158.281 318.859 157.426L319.637 153.229C319.797 152.373 320.615 151.814 321.471 151.975ZM308.171 149.505L309.507 149.752C310.363 149.913 310.922 150.731 310.761 151.587L309.983 155.784C309.822 156.64 309.004 157.198 308.149 157.037L306.812 156.791C305.956 156.63 305.398 155.812 305.558 154.956L306.336 150.759C306.497 149.903 307.315 149.345 308.171 149.505ZM294.87 147.036L296.207 147.283C297.063 147.443 297.621 148.262 297.461 149.117L296.683 153.314C296.522 154.17 295.704 154.728 294.848 154.568L293.512 154.321C292.656 154.16 292.097 153.342 292.258 152.487L293.036 148.289C293.197 147.434 294.015 146.875 294.87 147.036ZM281.57 144.566L282.907 144.813C283.762 144.974 284.321 145.792 284.16 146.647L283.382 150.845C283.222 151.7 282.404 152.259 281.548 152.098L280.211 151.851C279.356 151.691 278.797 150.872 278.958 150.017L279.736 145.82C279.896 144.964 280.715 144.405 281.57 144.566ZM268.27 142.096L269.607 142.343C270.462 142.504 271.021 143.322 270.86 144.178L270.082 148.375C269.921 149.23 269.103 149.789 268.248 149.628L266.911 149.382C266.056 149.221 265.497 148.403 265.658 147.547L266.435 143.35C266.596 142.494 267.414 141.936 268.27 142.096ZM254.97 139.627L256.306 139.874C257.162 140.034 257.72 140.853 257.56 141.708L256.782 145.905C256.621 146.761 255.803 147.319 254.947 147.159L253.611 146.912C252.755 146.751 252.197 145.933 252.357 145.077L253.135 140.88C253.296 140.025 254.114 139.466 254.97 139.627ZM241.669 137.157L243.006 137.404C243.861 137.565 244.42 138.383 244.259 139.238L243.482 143.436C243.321 144.291 242.503 144.85 241.647 144.689L240.31 144.442C239.455 144.282 238.896 143.463 239.057 142.608L239.835 138.411C239.995 137.555 240.814 136.996 241.669 137.157ZM228.369 134.687L229.706 134.934C230.561 135.095 231.12 135.913 230.959 136.769L230.181 140.966C230.021 141.821 229.202 142.38 228.347 142.219L227.01 141.973C226.155 141.812 225.596 140.994 225.757 140.138L226.535 135.941C226.695 135.085 227.513 134.527 228.369 134.687ZM215.069 132.218L216.405 132.465C217.261 132.625 217.82 133.444 217.659 134.299L216.881 138.496C216.72 139.352 215.902 139.91 215.047 139.75L213.71 139.503C212.854 139.342 212.296 138.524 212.456 137.668L213.234 133.471C213.395 132.616 214.213 132.057 215.069 132.218ZM201.768 129.748L203.105 129.995C203.961 130.156 204.519 130.974 204.359 131.829L203.581 136.027C203.42 136.882 202.602 137.441 201.746 137.28L200.41 137.033C199.554 136.873 198.995 136.054 199.156 135.199L199.934 131.002C200.095 130.146 200.913 129.587 201.768 129.748Z" stroke="#104C65" stroke-width="2" stroke-miterlimit="10"/>
<path d="M372.815 161.508L365.529 160.149L362.081 166.286L365.529 160.149L360.624 159.235L356.15 165.953L383.894 171.122L372.815 161.508Z" stroke="#104C65" stroke-width="2" stroke-miterlimit="10"/>
<path d="M190.227 133.518L191.005 129.32C191.165 128.465 190.607 127.647 189.751 127.486L188.414 127.239C187.559 127.079 186.741 127.637 186.58 128.493L185.802 132.69C185.759 132.897 185.775 133.124 185.818 133.336L189.443 134.596C189.846 134.37 190.141 133.999 190.227 133.518Z" stroke="#104C65" stroke-width="2" stroke-miterlimit="10"/>
<path d="M201.708 129.709L203.034 129.956C203.883 130.114 204.46 130.929 204.298 131.799L203.516 136.005C203.358 136.854 202.543 137.432 201.673 137.27L200.347 137.023C199.497 136.865 198.92 136.05 199.082 135.18L199.864 130.974C200.023 130.124 200.837 129.547 201.708 129.709Z" stroke="#104C65" stroke-width="2" stroke-miterlimit="10"/>
<path d="M216.351 132.424L215.025 132.178C214.167 132.019 213.342 132.585 213.183 133.444L212.405 137.629C212.246 138.487 212.813 139.312 213.671 139.472L214.997 139.718C215.855 139.877 216.68 139.311 216.84 138.453L217.617 134.267C217.776 133.409 217.21 132.584 216.351 132.424Z" stroke="#104C65" stroke-width="2" stroke-miterlimit="10"/>
<path d="M229.68 134.905L228.354 134.658C227.495 134.499 226.67 135.066 226.511 135.924L225.734 140.11C225.574 140.968 226.141 141.793 226.999 141.952L228.325 142.198C229.184 142.358 230.009 141.791 230.168 140.933L230.945 136.747C231.105 135.889 230.538 135.064 229.68 134.905Z" stroke="#104C65" stroke-width="2" stroke-miterlimit="10"/>
<path d="M242.971 137.377L241.645 137.13C240.787 136.97 239.961 137.536 239.801 138.395L239.022 142.58C238.862 143.438 239.428 144.263 240.287 144.423L241.613 144.67C242.471 144.83 243.296 144.264 243.456 143.405L244.235 139.22C244.395 138.362 243.829 137.537 242.971 137.377Z" stroke="#104C65" stroke-width="2" stroke-miterlimit="10"/>
<path d="M254.93 139.624L256.256 139.87C257.106 140.028 257.683 140.843 257.522 141.713L256.74 145.919C256.582 146.769 255.767 147.346 254.897 147.184L253.571 146.938C252.721 146.78 252.144 145.965 252.306 145.095L253.087 140.889C253.245 140.039 254.06 139.462 254.93 139.624Z" stroke="#104C65" stroke-width="2" stroke-miterlimit="10"/>
<path d="M269.592 142.321L268.266 142.074C267.408 141.915 266.583 142.481 266.423 143.339L265.644 147.524C265.484 148.382 266.05 149.208 266.908 149.367L268.234 149.614C269.092 149.774 269.918 149.208 270.077 148.35L270.857 144.165C271.017 143.306 270.451 142.481 269.592 142.321Z" stroke="#104C65" stroke-width="2" stroke-miterlimit="10"/>
<path d="M282.899 144.775L281.573 144.528C280.715 144.369 279.89 144.935 279.73 145.793L278.952 149.979C278.792 150.837 279.358 151.662 280.216 151.822L281.542 152.068C282.401 152.228 283.226 151.662 283.386 150.803L284.164 146.618C284.324 145.76 283.758 144.935 282.899 144.775Z" stroke="#104C65" stroke-width="2" stroke-miterlimit="10"/>
<path d="M296.226 147.262L294.9 147.015C294.041 146.856 293.216 147.423 293.057 148.281L292.28 152.466C292.12 153.325 292.687 154.15 293.545 154.309L294.871 154.555C295.73 154.715 296.555 154.148 296.714 153.29L297.491 149.104C297.651 148.246 297.084 147.421 296.226 147.262Z" stroke="#104C65" stroke-width="2" stroke-miterlimit="10"/>
<path d="M309.513 149.732L308.187 149.486C307.329 149.326 306.504 149.893 306.345 150.751L305.568 154.937C305.408 155.795 305.975 156.62 306.833 156.779L308.159 157.025C309.017 157.185 309.842 156.618 310.002 155.76L310.779 151.574C310.938 150.716 310.372 149.891 309.513 149.732Z" stroke="#104C65" stroke-width="2" stroke-miterlimit="10"/>
<path d="M321.502 151.949L322.828 152.195C323.677 152.353 324.255 153.168 324.093 154.038L323.31 158.244C323.152 159.094 322.337 159.671 321.467 159.509L320.141 159.263C319.292 159.105 318.714 158.29 318.876 157.42L319.659 153.214C319.817 152.364 320.631 151.787 321.502 151.949Z" stroke="#104C65" stroke-width="2" stroke-miterlimit="10"/>
<path d="M50.6307 104.653C50.6307 104.653 81.9618 127.518 168.368 146.818C169.384 146.963 170.459 147.127 171.582 147.35L173.46 147.702L136.548 123.753" stroke="#104C65" stroke-width="2" stroke-miterlimit="10"/>
<path d="M40.9765 96.817L33.1499 95.3529C31.8132 95.106 30.5197 95.9783 30.2728 97.315L30.0876 98.3175C29.8408 99.6542 30.713 100.948 32.0497 101.195L47.5824 104.085" stroke="#104C65" stroke-width="2" stroke-miterlimit="10"/>
<path d="M47.6023 104.091L95.3964 112.963C96.7331 113.21 98.0266 112.338 98.2735 111.001L98.4586 109.998C98.7055 108.662 97.8333 107.368 96.4966 107.121L41.0028 96.8034" stroke="#104C65" stroke-width="2" stroke-miterlimit="10"/>
<path d="M196.517 137.037L189.429 134.569C188.351 134.205 186.804 133.715 185.805 133.31L144.911 119.13L123.343 115.123L136.58 123.719" stroke="#104C65" stroke-width="2" stroke-miterlimit="10"/>
<path d="M136.574 123.739L173.486 147.688L203.403 153.745L218.049 156.222L277.255 166.965L289.319 169.219L196.517 137.037" stroke="#104C65" stroke-width="2" stroke-miterlimit="10"/>
<path d="M215.382 171.051L214.672 174.828C216.463 175.174 218.261 175.501 220.099 175.841C247.762 180.984 266.605 181.452 274.334 181.272" stroke="#104C65" stroke-width="2" stroke-miterlimit="10"/>
<path d="M153.225 153.58C154.446 160.467 172.52 166.153 200.226 171.929L201.028 167.584" stroke="#104C65" stroke-width="2" stroke-miterlimit="10"/>
<path d="M201.041 167.611L203.584 153.869C190.947 151.61 179.228 149.244 168.368 146.818C159.371 145.558 154.579 146.935 153.282 151.653C153.099 152.302 153.089 152.962 153.198 153.594" stroke="#104C65" stroke-width="2" stroke-miterlimit="10"/>
<path d="M274.58 181.325L274.605 181.247C274.605 181.247 274.566 181.235 274.547 181.229C274.54 181.248 274.586 181.306 274.586 181.306L274.58 181.325Z" stroke="#104C65" stroke-width="2" stroke-miterlimit="10"/>
<path d="M210.006 173.923L209.21 178.248L213.889 179.112L214.698 174.814" stroke="#104C65" stroke-width="2" stroke-miterlimit="10"/>
<path d="M200.239 171.955L199.398 176.42L204.07 177.304L204.892 172.899" stroke="#104C65" stroke-width="2" stroke-miterlimit="10"/>
<path d="M204.892 172.899L205.677 168.749" stroke="#104C65" stroke-width="2" stroke-miterlimit="10"/>
<path d="M214.698 174.814L215.383 171.052" stroke="#104C65" stroke-width="2" stroke-miterlimit="10"/>
<path d="M210.748 169.98L210.006 173.924" stroke="#104C65" stroke-width="2" stroke-miterlimit="10"/>
<path d="M215.382 171.051L218.118 156.354C213.134 155.548 208.309 154.726 203.584 153.869L201.041 167.611" stroke="#104C65" stroke-width="2" stroke-miterlimit="10"/>
<path d="M205.677 168.748L206.831 162.459L211.964 163.423L210.748 169.98" stroke="#104C65" stroke-width="2" stroke-miterlimit="10"/>
<path d="M204.07 177.304L201.483 191.186C202.055 192.45 202.249 193.861 202.01 195.31L203.574 195.607C204.235 194.291 205.279 193.229 206.529 192.564L209.183 178.262" stroke="#104C65" stroke-width="2" stroke-miterlimit="10"/>
<path d="M210.748 169.98L211.964 163.423L206.831 162.459L205.677 168.748" stroke="#104C65" stroke-width="2" stroke-miterlimit="10"/>
<path d="M132.734 106.139C132.616 103.095 133.189 99.9607 134.525 97.0016C139.147 86.8156 151.145 82.306 161.351 86.9342C171.557 91.5625 175.625 102.513 171.991 112.372" stroke="#104C65" stroke-width="2" stroke-miterlimit="10"/>
<path d="M161.351 86.9344L181.143 43.3314" stroke="#104C65" stroke-width="2" stroke-miterlimit="10"/>
<path d="M95.9688 79.4949L134.526 97.0016" stroke="#104C65" stroke-width="2" stroke-miterlimit="10"/>
<path d="M153.655 84.8483L154.809 50.5919" stroke="#104C65" stroke-width="2" stroke-miterlimit="10"/>
<path d="M173.618 106.055L207.747 107.191" stroke="#104C65" stroke-width="2" stroke-miterlimit="10"/>
<path d="M145.847 86.3965L129.029 41.6012" stroke="#104C65" stroke-width="2" stroke-miterlimit="10"/>
<path d="M171.936 98.2489L216.757 81.4171" stroke="#104C65" stroke-width="2" stroke-miterlimit="10"/>
<path d="M138.866 90.2858L115.535 65.3358" stroke="#104C65" stroke-width="2" stroke-miterlimit="10"/>
<path d="M167.981 91.3355L192.997 67.9377" stroke="#104C65" stroke-width="2" stroke-miterlimit="10"/>
<path d="M276.293 167.213C272.326 170.31 270.875 178.097 276.694 181.29" stroke="#104C65" stroke-width="2" stroke-miterlimit="10"/>
<path d="M192.52 201.256C196.325 202.462 200.389 200.355 201.595 196.549C202.801 192.744 200.694 188.681 196.889 187.474C193.083 186.268 189.02 188.375 187.813 192.181C186.607 195.986 188.714 200.049 192.52 201.256Z" stroke="#104C65" stroke-width="2" stroke-miterlimit="10"/>
<path d="M207.768 206.09C211.573 207.296 215.636 205.189 216.843 201.383C218.049 197.577 215.942 193.514 212.136 192.308C208.331 191.102 204.268 193.209 203.061 197.014C201.855 200.82 203.962 204.883 207.768 206.09Z" stroke="#104C65" stroke-width="2" stroke-miterlimit="10"/>
<path d="M325.199 215.746C329.005 216.953 333.068 214.846 334.274 211.04C335.481 207.234 333.373 203.171 329.568 201.965C325.762 200.759 321.699 202.866 320.493 206.671C319.286 210.477 321.393 214.54 325.199 215.746Z" stroke="#104C65" stroke-width="2" stroke-miterlimit="10"/>
</svg>
