<svg width="171" height="171" viewBox="0 0 171 171" fill="none" xmlns="http://www.w3.org/2000/svg">
<circle cx="85.4948" cy="85.1259" r="85.1259" fill="white" fill-opacity="0.26"/>
<g clip-path="url(#clip0_272_527)">
<mask id="mask0_272_527" style="mask-type:luminance" maskUnits="userSpaceOnUse" x="19" y="46" width="144" height="86">
<path d="M162.052 46.9375H19.5441V131.103H162.052V46.9375Z" fill="white"/>
</mask>
<g mask="url(#mask0_272_527)">
<path d="M106.206 100.268C106.776 100.763 107.375 101.227 107.91 101.76C109.913 103.757 111.951 105.724 113.862 107.808C115.139 109.197 116.064 110.835 116.448 112.751C117.093 115.976 115.122 120.215 112.331 121.449C110.658 122.188 108.916 122.169 107.173 121.791C106.857 121.723 106.568 121.43 106.306 121.196C102.727 118.003 99.1526 114.803 95.5786 111.599C95.1926 111.254 94.8309 110.882 94.0507 111.672C94.372 111.863 94.7364 111.99 94.9766 112.237C97.9001 115.224 100.829 118.204 103.723 121.221C106.857 124.492 105.764 127.674 101.282 128.231C100.168 128.37 99.0339 128.321 97.9001 128.231C97.371 128.09 97.3143 127.967 97.0606 127.772C93.9212 125.356 90.8438 122.854 87.6261 120.549C86.3196 119.615 84.7108 119.104 83.2288 118.425C83.0857 118.359 82.8644 118.471 82.4999 118.528C82.8185 118.783 82.9777 118.938 83.164 119.055C86.8946 121.424 90.3201 124.185 93.6188 127.128C94.318 127.75 94.2316 128.253 93.7862 128.889C92.9737 130.052 92.064 130.076 90.4497 130.739C89.8504 130.937 88.1984 131.301 86.9189 130.962C86.4924 130.85 86.1037 130.611 85.8472 130.429C83.3664 128.677 80.8938 126.913 78.4346 125.131C78.1863 124.951 76.6179 123.788 72.5769 120.378C72.2583 120.109 71.9182 119.884 72.037 119.482C72.836 116.783 73.4407 114.055 71.0706 111.843C68.8544 109.773 66.1658 109.455 63.2936 110.346C62.9022 110.469 62.4918 110.221 62.4055 109.819C61.6928 106.515 59.6413 104.632 55.9755 104.597C54.0157 104.578 52.5607 105.333 51.7455 107.08C51.5538 107.491 51.049 107.648 50.6846 107.382C50.6765 107.376 50.6711 107.371 50.663 107.366C46.9135 104.57 43.1748 101.763 39.4118 98.9829C38.9394 98.6351 38.7586 98.3064 38.8881 97.7167C41.2069 87.0571 43.4934 76.3921 45.8364 65.7379C46.1766 64.1972 46.7704 62.7136 47.2401 61.2029C47.4588 60.5045 47.8124 60.2573 48.5575 60.5996C51.4809 61.9447 54.6284 62.1783 57.776 62.3848C58.0567 62.4039 58.3374 62.4501 58.8638 62.5153C57.6275 63.6755 56.5423 64.6727 55.4815 65.6971C53.8942 67.2296 52.3069 68.7621 50.7683 70.3408C50.501 70.618 50.3472 71.137 50.3553 71.5391C50.4201 74.4656 52.6012 76.5986 55.5193 76.604C58.1215 76.6067 60.6158 75.9492 62.9211 74.8324C65.6691 73.5009 68.2821 71.8924 70.9626 70.4169C72.0775 69.8028 73.1788 69.1561 74.3423 68.648C75.6461 68.0747 77.0336 67.6916 78.3428 67.1318C80.5078 66.2107 82.7294 66.1971 84.9888 66.5585C85.2965 66.6074 85.6043 66.7677 85.8688 66.947C98.2051 75.2209 110.587 83.4351 122.84 91.834C125.885 93.9208 128.455 96.7548 130.069 100.13C131.988 104.143 131.373 108.091 127.577 111.007C126.473 111.854 125.148 111.903 123.909 111.496C122.624 111.075 121.318 110.556 120.205 109.803C115.867 106.866 111.602 103.817 107.308 100.809C106.978 100.578 106.641 100.355 106.309 100.13C106.274 100.176 106.239 100.225 106.204 100.271" fill="#FBD1B9"/>
<path d="M148.32 87.8288C146.368 88.7961 144.519 89.6847 142.7 90.6303C142.133 90.9264 141.598 91.3259 141.129 91.7661C138.351 94.38 135.597 97.0211 132.833 99.6514C132.712 99.7682 132.558 99.8498 132.412 99.953C130.487 96.3989 127.683 93.6246 124.935 90.815C124.36 90.2281 123.601 89.8205 122.913 89.3559C110.82 81.1934 98.7315 73.0282 86.6138 64.9037C86.0443 64.5206 85.2209 64.2842 84.5434 64.3331C80.613 64.6157 76.9688 66.0314 73.3138 67.3764C73.2058 67.4171 73.0952 67.4823 73.0169 67.5666C69.6048 71.2756 65.0347 72.838 60.4835 74.4438C58.6128 75.1041 56.734 75.0145 54.8606 74.5987C54.1884 74.4493 53.4974 74.1232 52.9521 73.6993C51.8292 72.8298 51.7671 71.1533 52.7443 70.1235C57.3468 65.2651 62.311 60.8089 67.5182 56.6189C67.8124 56.3825 68.1768 56.2141 68.5331 56.0864C73.9077 54.168 79.293 52.2823 84.6595 50.3422C88.0067 49.1303 91.3297 49.4129 94.7499 50.0786C103.204 51.7252 111.683 53.2713 120.176 54.7115C122.011 55.0212 123.955 54.7522 125.844 54.6598C126.446 54.6299 127.146 54.4506 127.602 54.0838C128.784 53.1355 129.683 53.7469 130.606 54.4397C132.639 55.9722 134.121 57.9939 135.492 60.1024C139.371 66.0585 142.254 72.5255 144.964 79.074C146.025 81.639 146.992 84.2475 147.996 86.837C148.112 87.1386 148.198 87.4511 148.323 87.8315" fill="#FBD1B9"/>
<path d="M36.267 98.5183C30.7493 97.5483 25.1993 96.5728 19.5441 95.5783C23.7687 81.7287 27.9662 67.9687 32.2016 54.0865C36.6476 55.5538 41.0314 56.9993 45.4558 58.4585C42.0734 71.7456 38.1107 84.8209 36.267 98.5156" fill="#0F4B64"/>
<path d="M162.052 85.9295C158.283 87.0707 154.515 88.2093 150.763 89.3423C149.896 86.8561 149.111 84.4187 148.198 82.0303C146.068 76.4546 144.165 70.7784 141.39 65.4716C139.387 61.6431 137.061 58.0346 133.899 55.0593C132.801 54.024 131.564 53.1382 130.344 52.1437C130.606 52.016 130.914 51.8557 131.23 51.7117C134.645 50.1738 138.065 48.6521 141.469 47.0897C142.017 46.837 142.359 46.8859 142.783 47.318C145.483 50.0651 147.567 53.2632 149.443 56.5972C154.626 65.814 158.515 75.6041 161.987 85.5736C162.014 85.6551 162.019 85.742 162.049 85.9295" fill="#B87FB7"/>
<path d="M59.3442 119.778C59.2876 118.463 59.6277 117.218 60.4159 116.05C61.2311 114.841 61.8736 113.517 62.6699 112.295C62.921 111.911 63.3907 111.547 63.828 111.433C67.0727 110.585 70.4361 112.944 70.7088 116.262C70.7628 116.919 70.6386 117.642 70.4065 118.264C69.8369 119.802 69.1647 121.302 68.525 122.813C67.3858 125.506 63.7146 126.362 61.5956 124.37C60.3133 123.163 59.0689 121.865 59.3388 119.778" fill="#FBD1B9"/>
<path d="M60.6994 112.161C60.6023 112.523 60.4997 113.112 60.2864 113.656C59.7141 115.099 59.096 116.523 58.4859 117.949C57.3036 120.721 53.6216 121.441 51.3972 119.414C49.5104 117.694 48.8625 115.658 49.4996 113.199C49.6021 112.803 49.7884 112.42 49.9962 112.064C50.8655 110.569 51.7374 109.072 52.6579 107.61C52.863 107.287 53.2436 106.991 53.6054 106.863C56.3345 105.912 59.9895 108.029 60.551 110.857C60.6185 111.208 60.6347 111.566 60.7021 112.161" fill="#FBD1B9"/>
<path d="M40.8883 102.491C41.4633 102.787 41.9789 102.964 42.3892 103.279C44.8673 105.175 47.3292 107.097 49.7721 109.042C49.9341 109.172 49.9989 109.618 49.9152 109.846C49.2997 111.512 48.1498 112.539 46.3547 112.808C44.4921 113.088 42.7779 112.754 41.3715 111.471C40.8695 111.012 40.4483 110.344 40.2459 109.691C39.4873 107.262 40.0812 104.931 40.8883 102.491Z" fill="#FBD1B9"/>
<path d="M32.1503 91.5351C32.1503 92.747 31.1758 93.7279 29.9719 93.7279C28.7679 93.7279 27.7935 92.747 27.7935 91.5351C27.7935 90.3232 28.7679 89.3423 29.9719 89.3423C31.1758 89.3423 32.1503 90.3232 32.1503 91.5351Z" fill="#0A354A"/>
<path d="M29.9719 93.7279C31.175 93.7279 32.1503 92.7461 32.1503 91.5351C32.1503 90.324 31.175 89.3423 29.9719 89.3423C28.7688 89.3423 27.7935 90.324 27.7935 91.5351C27.7935 92.7461 28.7688 93.7279 29.9719 93.7279Z" stroke="#0A354A" stroke-width="0.76" stroke-miterlimit="10"/>
<path d="M155.481 81.7586C155.481 82.9705 154.507 83.9514 153.303 83.9514C152.099 83.9514 151.125 82.9705 151.125 81.7586C151.125 80.5467 152.099 79.5658 153.303 79.5658C154.507 79.5658 155.481 80.5467 155.481 81.7586Z" fill="#0A354A"/>
<path d="M153.303 83.9514C154.506 83.9514 155.481 82.9696 155.481 81.7586C155.481 80.5475 154.506 79.5658 153.303 79.5658C152.1 79.5658 151.125 80.5475 151.125 81.7586C151.125 82.9696 152.1 83.9514 153.303 83.9514Z" stroke="#0A354A" stroke-width="0.76" stroke-miterlimit="10"/>
</g>
</g>
<defs>
<clipPath id="clip0_272_527">
<rect width="142.508" height="84.1656" fill="white" transform="translate(19.5441 46.9375)"/>
</clipPath>
</defs>
</svg>
