<svg width="172" height="171" viewBox="0 0 172 171" fill="none" xmlns="http://www.w3.org/2000/svg">
<circle cx="86.1018" cy="85.1259" r="85.1259" fill="white" fill-opacity="0.26"/>
<g clip-path="url(#clip0_272_528)">
<mask id="mask0_272_528" style="mask-type:luminance" maskUnits="userSpaceOnUse" x="30" y="36" width="112" height="98">
<path d="M141.788 36.2699H30.8452V133.345H141.788V36.2699Z" fill="white"/>
</mask>
<g mask="url(#mask0_272_528)">
<path d="M30.8452 116.285C30.9673 115.162 31.0864 114.04 31.2144 112.917C31.3186 112.005 31.4198 111.093 31.5508 110.184C31.8276 108.246 32.2712 106.343 32.8398 104.468C33.1435 103.463 33.5722 102.503 33.8669 101.497C34.0098 101.365 34.0515 101.172 34.1378 101.007C34.3879 100.528 34.5695 100.02 34.8404 99.5501C35.29 98.7795 35.7157 98 36.2516 97.2806C36.7755 96.5793 37.3352 95.9171 38.0229 95.3904C39.3626 94.364 40.9047 93.7169 42.4558 93.0938C43.0839 92.844 43.7448 92.6754 44.3432 92.3444C45.2661 93.0306 46.2456 93.6175 47.2846 94.1112C48.2134 94.5536 49.169 94.9329 50.1187 95.3242C50.1366 95.6884 50.1544 96.0556 50.1723 96.4198C50.2646 98.2949 50.3599 100.173 50.4492 102.048C50.5742 104.727 50.6933 107.406 50.8213 110.088C50.8749 111.231 50.9642 112.375 51.0029 113.522C51.0327 114.443 51.1369 115.361 51.0952 116.285H40.5475C40.476 115.647 40.4046 115.009 40.3331 114.371C40.3033 114.371 40.2736 114.371 40.2408 114.371C40.2021 115.009 40.1634 115.647 40.1247 116.285H30.8452Z" fill="#0F4B64"/>
<path d="M83.4231 102.355C83.4945 102.948 83.7357 103.493 83.9054 104.053C84.5544 106.196 85.0694 108.375 85.4534 110.581C85.6797 111.891 85.9089 113.2 85.9833 114.533C86.0161 115.117 86.1143 115.701 86.1798 116.285H76.1948C76.1561 115.59 76.0102 114.907 75.9834 114.205C75.9298 114.904 75.8732 115.596 75.775 116.285H66.564C66.6295 114.94 66.6979 113.594 66.7604 112.249C66.8855 109.651 67.0046 107.054 67.1296 104.456C67.2427 102.06 67.3618 99.6645 67.4749 97.2686C68.1954 97.1843 68.9158 97.109 69.6333 97.0127C71.9882 96.6937 74.3133 96.2452 76.5907 95.5529C77.1742 95.3753 77.6654 95.1105 78.0078 94.5928C78.115 94.5928 78.2162 94.6199 78.3085 94.6771C79.3534 95.3543 80.321 96.1068 80.9997 97.1903C81.872 98.5809 82.5061 100.08 83.0896 101.606C83.1879 101.862 83.2266 102.142 83.4231 102.352" fill="#0F4B64"/>
<path d="M67.478 97.2686C67.3619 99.6645 67.2458 102.06 67.1326 104.456C67.0076 107.054 66.8885 109.651 66.7635 112.249C66.701 113.594 66.6325 114.94 66.567 116.285H51.0982C51.1399 115.361 51.0357 114.443 51.0059 113.522C50.9672 112.375 50.8809 111.235 50.8243 110.088C50.6963 107.409 50.5802 104.73 50.4522 102.048C50.3628 100.173 50.2676 98.2949 50.1753 96.4198C50.1574 96.0556 50.1396 95.6884 50.1217 95.3212C50.1991 95.3422 50.2825 95.3543 50.3569 95.3814C54.3789 96.8111 58.5379 97.398 62.7861 97.4431C64.3521 97.4582 65.915 97.3679 67.478 97.2656" fill="#B87FB7"/>
<path d="M40.1277 116.285C40.1664 115.647 40.2051 115.009 40.2438 114.371C40.2736 114.371 40.3033 114.371 40.3361 114.371C40.4075 115.009 40.479 115.647 40.5504 116.285H40.1277Z" fill="#FEFEFE"/>
<path d="M75.7751 116.285C75.8733 115.596 75.9299 114.904 75.9835 114.205C76.0103 114.907 76.1591 115.59 76.1948 116.285H75.7721H75.7751Z" fill="#FEFEFE"/>
<path d="M44.3462 92.3474C41.0506 89.6806 39.3596 86.0597 38.3802 82.0265C37.7252 79.3236 37.4543 76.5695 37.362 73.7944C37.24 70.0802 37.502 66.387 37.8592 62.6939C37.9872 61.3725 37.9813 60.0452 38.0855 58.7238C38.6898 50.9402 41.8514 44.5201 48.1539 39.8638C51.1131 37.6756 54.4772 36.5348 58.1598 36.4716C61.3363 36.4174 64.3074 37.2241 67.0701 38.7983C71.0386 41.0557 73.962 44.3275 76.0758 48.3667C78.1002 52.2315 79.0201 56.361 79.0379 60.7344C79.0498 63.5637 79.2404 66.39 79.3535 69.2163C79.5053 73.0028 79.6333 76.7892 79.6274 80.5787C79.6274 83.6337 79.5589 86.6888 79.2136 89.7288C79.0826 90.8816 78.901 92.0284 78.5795 93.145C78.4336 93.6477 78.2252 94.1202 78.0049 94.5928C77.6625 95.1105 77.1713 95.3754 76.5878 95.5529C74.3104 96.2452 71.9823 96.6937 69.6304 97.0127C68.9129 97.1091 68.1925 97.1843 67.472 97.2686C65.9091 97.3709 64.3491 97.4642 62.7802 97.4462C58.5319 97.404 54.373 96.8141 50.351 95.3844C50.2736 95.3573 50.1932 95.3423 50.1158 95.3242C49.1661 94.9329 48.2105 94.5537 47.2816 94.1112C46.2426 93.6176 45.2632 93.0306 44.3403 92.3444M67.2607 79.459C67.4095 79.4109 67.5256 79.3476 67.3917 79.1701C67.481 79.0798 67.5614 78.9804 67.6596 78.8962C68.133 78.4868 68.5736 78.0444 68.9487 77.5387C68.9695 77.5176 68.9933 77.4935 69.0142 77.4695C71.8186 76.0127 73.6703 73.7041 74.8373 70.7875C74.9653 70.4714 74.9891 70.0531 75.2094 69.8514C75.4387 69.6437 75.8584 69.8063 76.1948 69.7852C76.7783 69.7461 77.1683 69.3397 77.1802 68.7498C77.1862 68.3946 77.1862 68.0394 77.1922 67.6873C77.5583 67.4525 77.8144 67.1124 78.0108 66.7332C78.8623 65.0807 78.9308 63.3621 78.3562 61.6103C78.1329 60.9301 77.7995 60.307 77.1922 59.8826C77.1892 59.5275 77.1713 59.1723 77.1832 58.8171C77.2011 58.3476 77.0433 57.9834 76.6116 57.7697C76.5491 57.7366 76.4806 57.7065 76.4598 57.6312C76.3258 57.1767 75.9805 56.8818 75.6739 56.5597C75.4416 56.3189 75.3434 56.054 75.3404 55.7049C75.3315 54.1126 75.1171 52.5445 74.7123 51.0034C73.5482 46.5879 71.2202 42.961 67.5107 40.3122C64.2687 37.9976 60.6397 36.9923 56.6862 37.4137C52.161 37.8953 48.4903 40.0414 45.6145 43.5569C42.7327 47.0785 41.3364 51.178 41.2471 55.735C41.2412 56.0781 41.1518 56.355 40.9494 56.6139C40.7231 56.9028 40.5058 57.2008 40.4701 57.5831C40.4582 57.7004 40.3718 57.7366 40.2915 57.7817C39.8985 57.9984 39.7526 58.3446 39.7496 58.784C39.7496 59.1602 39.8003 59.5425 39.705 59.9157C39.446 60.0873 39.2435 60.316 39.0858 60.5809C38.0438 62.3357 37.9813 64.1838 38.6273 66.077C38.8387 66.694 39.1572 67.2629 39.7109 67.6542C39.7883 67.9943 39.7437 68.3374 39.7526 68.6775C39.7705 69.3758 40.1575 69.7762 40.8482 69.7822C41.5835 69.7882 42.3218 69.7732 43.0572 69.7882C43.3519 69.7942 43.4382 69.6889 43.4352 69.3999C43.4233 68.1478 43.4293 66.8957 43.4352 65.6406C43.4352 65.5021 43.4055 65.3546 43.4859 65.2252C43.5692 66.1914 43.6853 67.1545 43.8461 68.1117C44.3284 70.9711 45.1351 73.7131 46.6922 76.1812C48.264 78.6704 50.3807 80.5034 53.1375 81.5388C55.2631 82.3335 57.4602 82.5502 59.7049 82.3485C61.5179 82.186 63.2446 81.7014 64.8731 80.8586C65.7215 80.4192 66.4896 79.8623 67.2547 79.2965C67.2577 79.3507 67.2637 79.4048 67.2666 79.459L67.213 79.5343C67.213 79.5343 67.2309 79.5463 67.2398 79.5523C67.2488 79.5222 67.2577 79.4891 67.2666 79.459M49.7347 87.0048C54.0217 87.369 58.0913 86.6798 61.896 84.5638C63.6703 83.5765 66.829 80.66 67.088 79.6426C62.2384 84.4223 56.2426 86.3216 49.7377 87.0018" fill="#4E4D4D"/>
<path d="M68.9546 77.5417C68.5795 78.0473 68.1389 78.4898 67.6655 78.8991C67.5703 78.9804 67.4869 79.0797 67.3976 79.17C67.35 79.2122 67.3023 79.2543 67.2547 79.2964C66.4896 79.8623 65.7215 80.4221 64.8731 80.8586C63.2476 81.6983 61.5179 82.1859 59.7049 82.3485C57.4631 82.5501 55.2631 82.3334 53.1405 81.5388C50.3807 80.5064 48.264 78.6734 46.6921 76.1812C45.1351 73.7131 44.3283 70.9711 43.8461 68.1117C43.6853 67.1545 43.5692 66.1913 43.4858 65.2252C43.468 64.9422 43.4382 64.6623 43.4352 64.3794C43.4293 62.9226 43.4293 61.4658 43.4323 60.009C43.4323 59.7863 43.465 59.5635 43.4829 59.3378C43.7687 57.7275 44.4087 56.2647 45.3048 54.9132C46.4034 53.2548 47.7817 51.8612 49.3268 50.6302C51.0506 49.2576 52.8993 48.0778 54.8701 47.0995C54.9029 47.0815 54.9326 47.0664 54.9654 47.0484C54.9803 47.0363 54.9952 47.0303 55.016 47.0303C55.0845 47.0393 55.144 47.0363 55.1678 46.9551H55.1649C55.3018 46.9972 55.4179 46.922 55.537 46.8858C56.9541 46.4735 58.3831 46.3892 59.8061 46.8226C61.8722 47.4487 63.718 48.5323 65.4804 49.7573C66.6146 50.5459 67.6804 51.4218 68.7045 52.3518C69.9936 53.5227 71.1666 54.7928 72.2294 56.1804C72.4586 56.4814 72.5479 56.9058 72.9409 57.0743C72.9498 57.0954 72.9558 57.1195 72.9647 57.1406C72.9588 57.2008 72.9796 57.2489 73.0302 57.279C73.191 57.6793 73.316 58.0917 73.4053 58.5131C73.4887 58.799 73.5214 59.088 73.5214 59.386C73.5214 61.6042 73.5304 63.8225 73.4738 66.0408C73.447 66.2034 73.4202 66.3659 73.3964 66.5284C73.182 68.0274 72.8784 69.5052 72.4378 70.953C71.9227 72.6446 71.2053 74.2398 70.3032 75.7568C69.687 76.2745 68.9874 76.6507 68.258 76.9788C67.088 77.5025 65.8495 77.7132 64.5902 77.8517C64.5158 77.7614 64.4384 77.6741 64.364 77.5838C63.968 77.1082 63.2506 76.9277 62.6313 77.1474C62.0597 77.352 61.6638 77.8758 61.6519 78.4446C61.634 79.2543 62.2503 79.8653 63.1374 79.9225C63.9144 79.9737 64.5932 79.3747 64.6944 78.553C65.8823 78.4958 67.0255 78.2309 68.1448 77.8306C68.4187 77.7313 68.6629 77.5537 68.9635 77.5387" fill="#FBD1B9"/>
<path d="M68.9546 77.5417C68.654 77.5597 68.4069 77.7373 68.1359 77.8336C67.0166 78.234 65.8734 78.4988 64.6855 78.556C64.6528 78.3212 64.6171 78.0895 64.5843 77.8547C65.8436 77.7163 67.0821 77.5056 68.2521 76.9818C68.9814 76.6538 69.681 76.2775 70.2973 75.7598C70.3658 75.7177 70.4432 75.6816 70.5057 75.6304C72.2294 74.2338 73.4143 72.4489 74.2121 70.3871C74.4324 69.8183 74.4205 69.8002 73.8192 69.7882C73.5661 69.7822 73.4947 69.6738 73.5006 69.442C73.5125 69.1471 73.5095 68.8521 73.5006 68.5541C73.4798 67.7174 73.5512 66.8776 73.4649 66.0408C73.5215 63.8226 73.5095 61.6043 73.5125 59.386C73.5125 59.091 73.4798 58.799 73.3964 58.5131C73.6256 58.2783 73.4321 57.9713 73.5304 57.7155C73.6465 57.6914 73.7596 57.6643 73.8757 57.6402H75.656C75.4446 57.3994 75.2868 57.1978 75.1082 57.0202C74.7748 56.6861 74.6319 56.3038 74.623 55.8132C74.6081 55.0457 74.5634 54.2782 74.4563 53.5136C73.8073 48.8934 71.8573 44.9595 68.3384 41.9045C65.0785 39.0752 61.2857 37.7749 56.9779 38.1391C53.5394 38.428 50.5445 39.7945 48.0051 42.1152C44.0485 45.7361 42.1521 50.3292 41.9735 55.6778C41.9557 56.2466 41.8128 56.7192 41.4704 57.1466C41.4109 57.2188 41.3573 57.2971 41.3067 57.3753C41.1935 57.559 41.2233 57.6583 41.4585 57.6523C42.045 57.6432 42.6285 57.6432 43.215 57.6372C43.3727 57.6703 43.4412 57.7636 43.4323 57.9322C43.4234 58.0917 43.4382 58.2542 43.4412 58.4138C43.4263 58.7238 43.3817 59.0338 43.4829 59.3378C43.465 59.5605 43.4323 59.7833 43.4323 60.006C43.4293 61.4628 43.4323 62.9196 43.4353 64.3764C43.4353 64.6593 43.468 64.9422 43.4859 65.2222C43.4055 65.3516 43.4353 65.4991 43.4353 65.6375C43.4323 66.8896 43.4263 68.1418 43.4353 69.3969C43.4353 69.6888 43.3519 69.7912 43.0572 69.7852C42.3218 69.7671 41.5835 69.7852 40.8482 69.7791C40.1575 69.7731 39.7705 69.3728 39.7526 68.6745C39.7437 68.3344 39.7884 67.9883 39.711 67.6511C39.7884 67.5759 39.7675 67.4766 39.7675 67.3833C39.7675 65.0085 39.7675 62.6306 39.7675 60.2558C39.7675 60.1354 39.7616 60.021 39.702 59.9127C39.7973 59.5395 39.7437 59.1572 39.7467 58.781C39.7467 58.3415 39.8955 57.9984 40.2885 57.7787C40.3689 57.7335 40.4552 57.6974 40.4671 57.58C40.5029 57.1948 40.7202 56.8998 40.9464 56.6108C41.1489 56.352 41.2382 56.0751 41.2441 55.7319C41.3335 51.175 42.7297 47.0725 45.6115 43.5539C48.4873 40.0413 52.1581 37.8923 56.6832 37.4107C60.6397 36.9893 64.2658 37.9946 67.5078 40.3092C71.2172 42.9579 73.5453 46.5849 74.7093 51.0004C75.1142 52.5384 75.3285 54.1096 75.3375 55.7018C75.3375 56.048 75.4387 56.3129 75.6709 56.5567C75.9775 56.8787 76.3229 57.1767 76.4568 57.6282C76.4777 57.7034 76.5461 57.7335 76.6087 57.7666C77.0403 57.9803 77.1951 58.3415 77.1803 58.8141C77.1684 59.1692 77.1862 59.5244 77.1892 59.8796C77.1892 62.4801 77.1892 65.0807 77.1892 67.6812C77.1862 68.0364 77.1862 68.3916 77.1773 68.7437C77.1654 69.3337 76.7754 69.74 76.1919 69.7791C75.8555 69.8032 75.4357 69.6377 75.2065 69.8484C74.9832 70.05 74.9594 70.4684 74.8343 70.7845C73.6673 73.701 71.8156 76.0096 69.0112 77.4664C68.9904 77.4905 68.9665 77.5146 68.9457 77.5387L68.9546 77.5417Z" fill="#0F4B64"/>
<path d="M49.7347 87.0078C56.2395 86.3246 62.2383 84.4283 67.085 79.6486C66.826 80.663 63.6673 83.5826 61.893 84.5698C58.0913 86.6828 54.0187 87.375 49.7317 87.0108" fill="#323232"/>
<path d="M39.7079 59.9187C39.7675 60.0271 39.7734 60.1414 39.7734 60.2618C39.7734 62.6366 39.7734 65.0145 39.7734 67.3893C39.7734 67.4826 39.7943 67.5819 39.7168 67.6572C39.1631 67.2689 38.8446 66.7 38.6332 66.08C37.9872 64.1867 38.0497 62.3387 39.0917 60.5839C39.2495 60.319 39.4489 60.0903 39.7109 59.9187" fill="#B87FB7"/>
<path d="M77.1951 67.6903C77.1951 65.0897 77.1951 62.4892 77.1951 59.8886C77.7994 60.316 78.1358 60.9391 78.3591 61.6163C78.9307 63.365 78.8652 65.0837 78.0138 66.7391C77.8173 67.1184 77.5612 67.4555 77.1951 67.6903Z" fill="#B87FB7"/>
<path d="M67.2546 79.2999C67.3024 79.2576 67.3502 79.2153 67.398 79.173C67.5325 79.3512 67.4159 79.4147 67.2666 79.463C67.2636 79.4086 67.2576 79.3543 67.2546 79.2999Z" fill="#323232"/>
<path d="M67.2674 79.462C67.2583 79.4925 67.2493 79.5261 67.2402 79.5567C67.2311 79.5506 67.2221 79.5445 67.213 79.5384C67.2311 79.5139 67.2493 79.4864 67.2674 79.462Z" fill="#323232"/>
<path d="M73.5333 57.7215C73.4351 57.9773 73.6286 58.2843 73.3993 58.5191C73.31 58.0977 73.185 57.6854 73.0242 57.285C73.0361 57.2218 73.0123 57.1767 72.9587 57.1466C72.9498 57.1255 72.9438 57.1014 72.9349 57.0804C72.8009 56.5235 72.5092 56.0329 72.2353 55.5453C71.0683 53.4595 69.4666 51.7559 67.6357 50.2599C65.2481 48.3125 62.6105 46.7865 59.812 45.5284C59.3357 45.3147 58.8951 45.1732 58.4039 45.4742C58.2163 45.5886 57.9901 45.6337 57.7876 45.721C56.9004 46.1093 55.9865 46.4464 55.1618 46.9671H55.1648C55.1023 46.9671 55.0487 46.9852 55.013 47.0393C54.9951 47.0393 54.9773 47.0454 54.9624 47.0574C54.9296 47.0755 54.8999 47.0905 54.8671 47.1086C52.8963 48.0868 51.0475 49.2667 49.3238 50.6392C47.7787 51.8702 46.4004 53.2638 45.3018 54.9223C44.4057 56.2737 43.7657 57.7365 43.4828 59.3468C43.3846 59.0428 43.4263 58.7328 43.4412 58.4228C43.6912 58.3174 43.5483 58.0917 43.5781 57.9231C43.8401 56.3941 44.108 54.8681 44.4653 53.3571C44.9059 51.485 45.4507 49.6459 46.0491 47.8219C46.1413 47.536 46.2426 47.2561 46.2634 46.9521C44.7957 50.3864 43.6793 53.92 43.2179 57.6492C42.6314 57.6523 42.0479 57.6553 41.4614 57.6643C41.2232 57.6673 41.1935 57.568 41.3096 57.3874C41.3602 57.3061 41.4167 57.2309 41.4733 57.1586C41.8157 56.7282 41.9556 56.2557 41.9764 55.6898C42.1551 50.3412 44.0514 45.7451 48.008 42.1272C50.5474 39.8035 53.5423 38.4401 56.9808 38.1511C61.2886 37.7899 65.0814 39.0902 68.3413 41.9165C71.8632 44.9715 73.8102 48.9055 74.4592 53.5257C74.5663 54.2902 74.611 55.0577 74.6259 55.8252C74.6348 56.3128 74.7777 56.6951 75.1111 57.0322C75.2898 57.2128 75.4475 57.4115 75.6589 57.6553H73.8786C73.7387 56.4995 73.5393 55.3527 73.2743 54.218C72.7831 52.099 72.0894 50.0462 71.3213 48.0176C71.1308 47.5179 70.9105 47.0303 70.6902 46.5096C70.6247 46.624 70.6485 46.6902 70.6723 46.7564C71.372 48.6587 71.9525 50.597 72.4467 52.5655C72.7354 53.7183 72.9885 54.8771 73.1939 56.051C73.2922 56.6108 73.313 57.1947 73.5363 57.7305M46.4331 46.4434C46.3736 46.6089 46.2694 46.6691 46.3497 46.7865C46.4599 46.7444 46.4539 46.6541 46.4331 46.4434Z" fill="#4D4D4D"/>
<path d="M55.1619 46.9611C55.9895 46.4404 56.9005 46.1033 57.7877 45.715C57.9901 45.6247 58.2194 45.5826 58.4039 45.4682C58.8951 45.1672 59.3358 45.3087 59.8121 45.5224C62.6105 46.7835 65.2482 48.3065 67.6358 50.2539C69.4667 51.7499 71.0684 53.4535 72.2354 55.5393C72.5093 56.0299 72.801 56.5175 72.935 57.0744C72.542 56.9058 72.4527 56.4814 72.2235 56.1804C71.1636 54.7959 69.9877 53.5257 68.6986 52.3518C67.6745 51.4188 66.6087 50.5429 65.4745 49.7573C63.712 48.5323 61.8663 47.4487 59.8002 46.8227C58.3771 46.3892 56.9482 46.4735 55.5311 46.8859C55.409 46.922 55.2929 46.9972 55.1589 46.9581" fill="#EFA895"/>
<path d="M73.4708 66.0469C73.5572 66.8836 73.4857 67.7234 73.5065 68.5601C73.5125 68.8551 73.5155 69.1501 73.5065 69.4481C73.4976 69.6798 73.572 69.7882 73.8251 69.7942C74.4235 69.8062 74.4384 69.8213 74.2181 70.3932C73.4202 72.458 72.2353 74.2428 70.5116 75.6364C70.4491 75.6876 70.3747 75.7207 70.3032 75.7658C71.2053 74.2519 71.9227 72.6536 72.4378 70.962C72.8784 69.5143 73.185 68.0364 73.3964 66.5375C73.4202 66.375 73.447 66.2124 73.4738 66.0499" fill="#4F4E4D"/>
<path d="M64.5843 77.8577C64.617 78.0925 64.6528 78.3243 64.6855 78.559C64.5843 79.3807 63.9055 79.9797 63.1285 79.9286C62.2413 79.8714 61.6251 79.2604 61.643 78.4507C61.6549 77.8788 62.0508 77.3581 62.6224 77.1534C63.2387 76.9337 63.9591 77.1143 64.3551 77.5899C64.4295 77.6802 64.5069 77.7674 64.5813 77.8577" fill="#0F4B64"/>
<path d="M72.9587 57.1436C73.0125 57.1768 73.0365 57.2222 73.0245 57.2827C72.9736 57.2494 72.9557 57.201 72.9587 57.1436Z" fill="#EFA895"/>
<path d="M55.0131 47.0367C55.049 46.9823 55.1028 46.9611 55.1656 46.9611C55.1417 47.0428 55.0819 47.0458 55.0131 47.0367Z" fill="#EFA895"/>
<path d="M43.2179 57.6462C43.6794 53.92 44.7958 50.3833 46.2635 46.949C46.2426 47.253 46.1444 47.536 46.0491 47.8189C45.4507 49.6429 44.9059 51.4819 44.4653 53.3541C44.1111 54.8681 43.8431 56.3911 43.5782 57.9201C43.5484 58.0857 43.6943 58.3114 43.4412 58.4198C43.4382 58.2602 43.4234 58.0977 43.4323 57.9382C43.4412 57.7726 43.3728 57.6763 43.215 57.6432" fill="#323232"/>
<path d="M73.5333 57.7215C73.313 57.1857 73.2892 56.6018 73.1909 56.0419C72.9885 54.8681 72.7355 53.7093 72.4437 52.5565C71.9495 50.591 71.369 48.6496 70.6694 46.7474C70.6456 46.6811 70.6217 46.6149 70.6872 46.5005C70.9075 47.0213 71.1278 47.5089 71.3184 48.0085C72.0865 50.0372 72.7801 52.0899 73.2713 54.2089C73.5363 55.3436 73.7357 56.4904 73.8757 57.6462C73.7625 57.6703 73.6464 57.6944 73.5303 57.7215" fill="#323232"/>
<path d="M46.4332 46.4434C46.454 46.6541 46.4629 46.7443 46.3498 46.7865C46.2694 46.6691 46.3707 46.6089 46.4332 46.4434Z" fill="#323232"/>
<path d="M121.994 99.5832C125.206 100.959 128.442 102.277 131.622 103.719C136.254 105.82 139.335 109.311 140.812 114.284C141.342 116.068 141.535 117.871 141.714 119.692C141.815 123.169 141.818 126.645 141.714 130.125C141.479 130.73 141.476 131.401 141.095 131.97C140.595 132.719 139.83 133.023 139.061 133.345H130.812C130.452 132.918 130.526 132.394 130.526 131.897C130.52 128.304 130.526 124.707 130.52 121.113C130.52 120.671 130.541 120.228 130.44 119.795C130.291 119.157 129.99 118.663 129.249 118.711C128.543 118.756 128.21 119.208 128.133 119.885C128.094 120.231 128.103 120.577 128.103 120.923C128.103 124.58 128.103 128.237 128.1 131.897C128.1 132.394 128.174 132.918 127.814 133.345H112.441C112.137 132.948 112.372 132.557 112.455 132.165C114.507 124.767 116.558 117.369 118.591 109.964C119.517 106.756 120.324 103.517 121.285 100.318C121.387 99.9835 121.348 99.4116 122 99.5832" fill="#0F4B64"/>
<path d="M103.06 133.345H87.6863C87.3261 132.918 87.4005 132.394 87.4005 131.897C87.3945 128.24 87.3975 124.583 87.3975 120.923C87.3975 120.577 87.4094 120.228 87.3678 119.885C87.2903 119.208 86.9569 118.759 86.2514 118.711C85.5071 118.663 85.2064 119.157 85.0605 119.795C84.9593 120.228 84.9801 120.674 84.9801 121.113C84.9801 124.707 84.9801 128.301 84.9742 131.897C84.9742 132.394 85.0486 132.918 84.6884 133.345H77.3767C77.076 133.002 77.1207 132.581 77.1207 132.174C77.1177 127.693 76.9153 123.196 77.1654 118.729C77.5494 111.827 80.7616 106.62 87.0641 103.607C89.3475 102.518 91.6934 101.561 94.0602 100.667C94.4829 100.772 94.5097 101.157 94.5901 101.479C95.3999 104.721 96.4061 107.909 97.2486 111.144C99.1867 118.094 101.104 125.053 103.042 132.003C103.107 132.448 103.384 132.894 103.063 133.345" fill="#0F4B64"/>
<path d="M94.0661 100.721C92.658 101.678 91.0385 102.175 89.4844 102.801C86.6205 103.957 83.9263 105.347 81.8245 107.701C79.4369 110.374 77.9305 113.498 77.5822 117.071C77.0582 122.483 77.4839 127.921 77.3678 133.345H75.8674C74.3312 132.74 73.453 131.645 73.3994 129.941C73.2982 126.522 73.3041 123.103 73.3994 119.686C73.4381 114.729 75.1052 110.443 78.6211 106.951C79.9817 105.6 81.5297 104.498 83.307 103.755C86.7694 102.304 90.2257 100.847 93.6851 99.3906C94.2835 99.6946 94.3013 100.17 94.0661 100.721Z" fill="#0E3D4C"/>
<path d="M103.06 133.345C102.991 132.906 102.92 132.466 102.851 132.027C102.703 131.199 102.932 130.405 103.057 129.604C103.715 125.339 104.471 121.089 105.057 116.812C105.111 116.433 105.185 116.065 105.45 115.77C106.457 115.132 107.57 115.521 108.636 115.436C109.124 115.397 109.642 115.385 110.038 115.785C110.47 116.481 110.476 117.287 110.589 118.058C111.205 122.26 111.872 126.45 112.607 130.63C112.7 131.157 112.655 131.681 112.634 132.204C112.569 132.584 112.503 132.963 112.438 133.345H103.063H103.06Z" fill="#A874A8"/>
<path d="M84.6824 133.345C84.6824 128.99 84.6765 124.638 84.6854 120.282C84.6854 118.967 85.1885 118.362 86.2037 118.368C87.1712 118.374 87.6803 118.925 87.6803 119.999C87.6833 124.448 87.6803 128.897 87.6803 133.345H84.6794H84.6824Z" fill="#0E3D4C"/>
<path d="M127.808 133.345C127.808 128.96 127.808 124.574 127.808 120.189C127.808 118.928 128.258 118.374 129.285 118.368C130.276 118.362 130.797 118.952 130.803 120.189C130.818 124.574 130.809 128.96 130.809 133.345H127.808Z" fill="#0E3D4C"/>
<path d="M129.69 66.4171C130.976 67.8649 131.794 69.5113 131.756 71.5219C131.696 74.5739 129.585 76.9879 127.043 77.8969C126.352 78.1437 125.647 77.9811 124.932 77.6982C124.697 81.0001 123.658 83.9558 121.705 86.5413C120.294 88.4105 118.588 89.9455 116.501 90.9869C115.947 91.2638 115.724 91.5769 115.757 92.209C115.814 93.3437 115.784 94.4814 115.787 95.6162C116.281 97.5034 116.215 99.2912 114.828 100.808C113.229 102.554 111.446 104.119 109.937 105.955C109.758 106.175 109.532 106.346 109.216 106.292C107.811 105.726 106.96 104.45 105.849 103.511C104.709 102.548 103.724 101.398 102.682 100.321C102.024 99.6404 101.652 98.8217 101.625 97.8676C101.58 96.3205 101.586 94.7734 101.619 93.2293C101.64 92.3203 101.899 92.0976 102.783 92.2421C103.789 92.4046 104.804 92.5129 105.814 92.6424C105.873 92.6484 105.918 92.6996 105.873 92.6364C105.176 92.5641 104.396 92.3865 103.646 92.0855C97.1503 89.479 93.2474 83.6518 93.2474 76.5364C93.2474 73.0961 93.2414 69.6558 93.2474 66.2154C93.2504 64.0483 94.2209 62.9828 96.3227 62.739C102.798 61.9895 108.913 60.1475 114.45 56.5386C114.709 56.3701 114.962 56.1804 115.275 56.1202C115.635 56.1323 115.814 56.4032 115.974 56.668C117.371 58.9736 119.41 60.5087 121.729 61.7126C122.28 61.9986 122.827 62.2905 123.387 62.5554C124.09 62.8865 124.641 63.3681 124.917 64.1175C125.084 64.575 125.364 64.7436 125.837 64.6894C127.222 64.5329 128.368 65.0867 129.386 65.9867C129.505 66.1161 129.565 66.2937 129.69 66.4201" fill="#FBD1B9"/>
<path d="M129.699 66.2365C128.496 65.2553 127.219 64.5178 125.593 65.0175C125.281 65.1138 125.224 64.9723 125.173 64.7165C124.95 63.5216 124.081 62.9587 123.075 62.5072C120.476 61.3424 118.142 59.8074 116.43 57.4446C116.135 57.0382 115.87 56.6138 115.59 56.1985C115.492 56.1202 115.394 56.045 115.31 55.9487C114.533 55.0487 114.352 55.0066 113.384 55.741C110.735 57.7486 107.805 59.2295 104.736 60.4274C101.137 61.83 97.4212 62.7751 93.56 63.0821C92.393 63.1754 91.3748 63.5125 90.7169 64.6262C90.2792 65.3666 89.4606 65.4208 88.2191 64.9182C89.0914 64.2921 88.9306 63.359 88.9306 62.4741C88.9306 59.7291 88.8503 56.9841 89.2938 54.2571C89.9577 50.1546 91.7082 46.5698 94.3995 43.4636C97.2069 40.2219 100.708 38.0578 104.798 36.8418C106.01 36.4806 107.251 36.4565 108.487 36.3121C115.34 36.4385 121 39.0962 125.328 44.508C127.314 46.9912 128.689 49.8055 129.353 52.9327C129.633 54.242 129.952 55.5604 129.901 56.9209C130.032 59.9247 129.928 62.9286 129.955 65.9325C129.955 66.1041 129.904 66.2395 129.699 66.2305" fill="#302D2D"/>
<path d="M109.434 106.235C111.339 104.261 113.262 102.301 115.138 100.3C115.775 99.6193 116.037 98.7494 115.989 97.7863C115.953 97.0669 115.989 96.3415 115.995 95.6191C117.993 96.9405 119.993 98.2618 121.991 99.5832C121.449 99.7126 121.565 100.236 121.464 100.585C120.55 103.728 119.675 106.879 118.788 110.031C118.41 110.614 118.27 111.304 117.951 111.918C117.109 113.549 115.799 113.943 114.239 112.971C113.31 112.393 112.479 111.674 111.604 111.024C110.431 110.196 109.291 109.326 108.168 108.429C107.778 108.116 107.519 108.128 107.129 108.429C105.995 109.308 104.822 110.136 103.691 111.021C102.956 111.602 102.179 112.125 101.428 112.688C99.5528 114.097 98.1357 113.718 97.2218 111.584C97.1622 111.445 97.1801 111.268 97.0193 111.18C96.0339 107.695 95.0485 104.206 94.0601 100.721C94.0572 100.242 93.9024 99.8059 93.6791 99.3906C95.2569 98.0933 97.0164 97.0669 98.6984 95.9262C98.9544 95.7546 99.2164 95.5921 99.4754 95.4265C99.7791 95.6914 99.7136 96.0556 99.7225 96.3957C99.7374 97.088 99.7314 97.7833 99.7285 98.4755C99.7255 99.3725 100.038 100.119 100.678 100.754C102.256 102.322 103.816 103.908 105.373 105.498C106.406 106.551 107.537 107.087 108.972 106.313C109.112 106.238 109.273 106.232 109.428 106.238" fill="#F5F5F7"/>
<path d="M109.508 106.235C108.118 107.264 106.918 107.216 105.709 106.015C103.989 104.303 102.298 102.557 100.589 100.835C99.9577 100.2 99.6927 99.4357 99.6987 98.5418C99.7046 97.5034 99.6868 96.4649 99.6778 95.4235C99.6868 94.3821 99.6659 93.3407 99.7136 92.3023C99.7433 91.6912 99.5558 91.3572 99.005 91.0501C94.7835 88.6964 92.0387 85.1537 90.9253 80.3349C90.7288 79.4831 90.6216 78.6162 90.568 77.7374C88.1268 78.3875 85.3463 76.7351 84.3162 74.0894C83.1879 71.1878 83.8488 68.6685 85.8196 66.4111C86.5192 65.484 87.3736 64.846 88.5823 64.873C89.6928 64.9573 90.7407 65.1469 91.4105 63.7473C91.7946 62.9467 92.8782 62.9256 93.7386 62.8474C99.8029 62.2996 105.447 60.3973 110.708 57.2851C111.64 56.7343 112.506 56.0721 113.393 55.443C114.623 54.5732 115.081 54.7237 115.587 56.1955C111.931 58.793 107.88 60.4846 103.608 61.6825C101.116 62.3808 98.5763 62.745 96.0131 63.0159C94.8758 63.1363 93.7743 64.3493 93.7684 65.5412C93.7505 69.6768 93.5094 73.8335 93.8219 77.948C94.3132 84.4223 97.6892 88.9944 103.509 91.6521C104.486 92.0976 105.549 92.2631 106.763 92.7116C105.334 92.8621 104.158 92.7688 103.003 92.4738C102.387 92.3173 102.074 92.4046 102.089 93.1541C102.122 94.7012 102.089 96.2482 102.104 97.7953C102.113 98.7495 102.482 99.5531 103.164 100.218C104.9 101.916 106.635 103.616 108.344 105.344C108.698 105.702 109.273 105.732 109.508 106.235Z" fill="#FEDCCD"/>
<path d="M88.2489 64.876C87.2039 65.18 86.3257 65.7941 85.4534 66.4141C85.4475 62.9738 85.2629 59.5214 85.4802 56.0962C85.7243 52.2615 87.064 48.7129 89.276 45.5585C92.5001 40.9624 96.8377 37.9886 102.286 36.7696C104.313 36.3151 106.4 36.1947 108.487 36.3151C107.016 36.6703 105.519 36.8629 104.069 37.3475C101.312 38.2715 98.7996 39.629 96.6323 41.5674C93.0509 44.7669 90.6543 48.7189 89.6928 53.4805C89.4099 54.8862 89.2641 56.3339 89.2015 57.7697C89.1182 59.6599 89.145 61.5591 89.1986 63.4523C89.2194 64.2229 89.142 64.7948 88.2459 64.879" fill="#3F3C3C"/>
<path d="M111.693 110.783C112.566 111.439 113.411 112.134 114.313 112.742C115.766 113.724 116.945 113.359 117.755 111.794C118.067 111.189 118.216 110.479 118.788 110.028C117.579 114.458 116.379 118.892 115.156 123.319C114.334 126.287 113.474 129.243 112.628 132.204C112.146 130.016 111.824 127.801 111.5 125.586C111.196 123.527 110.842 121.477 110.511 119.421C110.324 118.248 110.139 117.071 109.955 115.897C109.898 115.752 109.809 115.596 109.859 115.448C110.419 113.874 110.845 112.243 111.69 110.783" fill="#E4E4EA"/>
<path d="M97.0253 111.18C97.4153 111.391 97.4837 111.836 97.71 112.162C98.5674 113.393 99.6778 113.654 100.913 112.797C101.83 112.159 102.706 111.457 103.602 110.783C104.495 112.237 104.998 113.868 105.629 115.439C105.689 115.587 105.596 115.746 105.54 115.894C105.275 117.531 105.01 119.166 104.745 120.803C104.2 124.18 103.658 127.557 103.107 130.934C103.048 131.302 102.938 131.66 102.851 132.024C101.896 129.174 101.196 126.245 100.386 123.352C99.2491 119.298 98.1446 115.235 97.0253 111.177" fill="#D2D2D7"/>
<path d="M105.54 115.897C104.989 114.515 104.438 113.137 103.89 111.755C103.765 111.442 103.575 111.144 103.599 110.783C104.751 109.928 105.924 109.097 107.046 108.204C107.499 107.845 107.799 107.869 108.24 108.216C109.368 109.1 110.541 109.931 111.693 110.783C111.414 112.231 110.714 113.534 110.27 114.925C110.166 115.25 110.062 115.575 109.955 115.9C108.481 115.602 107.01 115.605 105.537 115.9" fill="#B87FB7"/>
<path d="M105.686 76.6417C105.686 75.8531 105.671 75.0646 105.689 74.279C105.703 73.6198 106.04 73.1743 106.707 73.1713C107.374 73.1713 107.722 73.6078 107.734 74.2669C107.755 75.3053 107.773 76.3468 107.731 77.3852C107.707 78.0173 107.945 78.255 108.544 78.1768C108.573 78.1738 108.606 78.1768 108.636 78.1768C109.389 78.1226 110.232 78.1407 110.273 79.1008C110.315 80.0459 109.407 80.1332 108.716 80.2386C107.912 80.365 107.103 80.2386 106.317 80.0429C105.805 79.9165 105.701 79.456 105.689 79.0015C105.668 78.2129 105.683 77.4273 105.683 76.6387" fill="#FEDCCD"/>
</g>
</g>
<defs>
<clipPath id="clip0_272_528">
<rect width="110.943" height="97.0753" fill="white" transform="translate(30.8452 36.2699)"/>
</clipPath>
</defs>
</svg>
