<svg width="171" height="171" viewBox="0 0 171 171" fill="none" xmlns="http://www.w3.org/2000/svg">
<circle cx="85.4374" cy="85.1259" r="85.1259" fill="white" fill-opacity="0.26"/>
<mask id="mask0_276_637" style="mask-type:luminance" maskUnits="userSpaceOnUse" x="28" y="35" width="110" height="102">
<path d="M137.02 35.2031H28.1407V136.143H137.02V35.2031Z" fill="white"/>
</mask>
<g mask="url(#mask0_276_637)">
<path d="M78.4412 126.671H77.4476C74.4213 125.738 75.0288 123.089 74.8358 120.884H41.2794C41.251 123.224 41.6428 125.704 38.73 126.671H37.7364C34.7271 125.721 35.3233 123.1 35.17 120.934C30.8321 119.95 29.6738 118.938 28.1407 114.865V61.0991C29.3445 57.6624 31.4907 55.4238 35.4312 55.3732C36.4589 55.3563 36.9926 55.57 37.2481 56.695C37.7818 59.0798 38.395 61.4647 39.1899 63.7764C40.5867 67.8262 42.9487 69.4067 47.2412 69.4123C49.2114 69.4123 51.1817 69.4123 53.2938 69.4123C53.2938 70.6835 53.3222 71.7635 53.2882 72.8434C53.2598 73.7996 53.6686 74.2721 54.6452 74.2664C57.2343 74.2664 59.8291 74.3396 62.4125 74.1989C62.9122 74.1708 63.6674 73.3834 63.7809 72.8378C64.0023 71.8028 63.8434 70.6835 63.8434 69.4067C66.2281 69.4067 68.4765 69.3842 70.7193 69.4123C73.8421 69.4573 76.1417 68.1243 77.5157 65.3682C78.0665 64.2602 78.4469 63.0452 78.7478 61.8415C79.2816 59.7379 79.6961 57.6118 80.2298 55.1819C81.5527 55.4969 82.8019 55.6488 83.9374 56.0875C86.2256 56.9706 87.2306 58.9786 88.0426 61.0991V114.865C87.0319 118.381 84.7494 120.479 81.0758 120.861C80.7238 124.037 79.8475 125.974 78.4469 126.671M58.0917 81.916C52.692 81.916 47.2923 81.916 41.8926 81.916C41.3986 81.916 40.8308 81.8204 40.4334 82.0285C39.9678 82.2703 39.3035 82.8497 39.3546 83.1928C39.4284 83.699 39.9848 84.2221 40.4731 84.5483C40.7797 84.7564 41.3305 84.6327 41.7677 84.6327C52.7317 84.6327 63.7014 84.6327 74.6654 84.6327C75.1026 84.6327 75.6591 84.7508 75.96 84.5427C76.4313 84.2108 76.9763 83.6709 77.0331 83.1703C77.0729 82.8159 76.4029 82.2647 75.9316 82.0285C75.5285 81.826 74.9607 81.9272 74.4667 81.9272C69.0103 81.9272 63.5538 81.9272 58.103 81.9272M58.103 109.949C63.6163 109.949 69.1238 109.949 74.6371 109.949C75.131 109.949 75.7272 110.079 76.0963 109.854C76.5392 109.584 77.0558 108.999 77.0445 108.56C77.0331 108.144 76.4426 107.621 75.977 107.39C75.5796 107.188 75.0061 107.317 74.5121 107.317C66.9094 107.317 59.3011 107.317 51.6983 107.317C48.1156 107.317 44.5328 107.317 40.9501 107.317C39.8031 107.317 38.9912 107.806 39.4341 108.976C39.6158 109.454 40.6094 109.899 41.2397 109.91C46.8608 109.983 52.4819 109.949 58.103 109.949ZM58.279 97.2263H64.0648C67.869 97.2263 71.6675 97.2713 75.4717 97.1701C76.0338 97.1532 76.9366 96.512 77.0445 96.017C77.2602 95.0383 76.4483 94.6165 75.4944 94.594C75.3298 94.594 75.1651 94.594 75.0004 94.594C63.815 94.594 52.6295 94.594 41.4441 94.594C40.3937 94.594 39.2978 94.639 39.3262 96.017C39.3546 97.3557 40.4788 97.2263 41.4213 97.2263C47.0425 97.2263 52.6636 97.2263 58.279 97.2263Z" fill="#177090"/>
<path d="M76.7891 35.2031C76.897 37.0874 77.0616 38.966 77.0503 40.8503C77.0503 41.1259 76.1986 41.5927 75.716 41.6265C74.1886 41.7277 72.6442 41.6659 70.9465 41.6659V53.787H67.8578V41.7109H49.0866V53.7758H45.9411V41.6265H39.1901C39.3831 39.3204 39.5534 37.2618 39.7295 35.2031H76.7948H76.7891Z" fill="#AFAFAF"/>
<path d="M77.1182 56.7794C76.664 58.8099 76.3176 60.6829 75.8123 62.5165C74.9549 65.627 73.456 66.7013 70.2309 66.7069C62.3443 66.7069 54.4634 66.6731 46.5768 66.7294C44.5555 66.7463 43.0792 65.9588 42.3638 64.1927C41.4099 61.8416 40.7229 59.3836 39.8599 56.785H77.1182V56.7794Z" fill="#177090"/>
<path d="M127.419 136.143H126.425C123.399 135.21 124.006 132.561 123.813 130.356H90.2571C90.2287 132.696 90.6204 135.176 87.7077 136.143H86.7141C83.7048 135.193 84.3009 132.572 84.1476 130.406C79.8097 129.428 78.6514 128.41 77.1184 124.343V70.5767C78.3221 67.14 80.4684 64.9014 84.4088 64.8508C85.4365 64.8339 85.9703 65.0476 86.2258 66.1726C86.7595 68.5574 87.3727 70.9423 88.1676 73.254C89.5644 77.3038 91.9264 78.8843 96.2189 78.8899C98.1891 78.8899 100.159 78.8899 102.271 78.8899C102.271 80.1611 102.3 81.2411 102.266 82.321C102.237 83.2772 102.646 83.7497 103.623 83.744C106.212 83.744 108.807 83.8172 111.39 83.6765C111.89 83.6484 112.645 82.861 112.759 82.3154C112.98 81.2804 112.821 80.1611 112.821 78.8843C115.206 78.8843 117.454 78.8618 119.697 78.8899C122.82 78.9349 125.119 77.6019 126.493 74.8458C127.044 73.7378 127.425 72.5228 127.726 71.3191C128.259 69.2155 128.674 67.0894 129.207 64.6595C130.53 64.9745 131.78 65.1264 132.915 65.5651C135.203 66.4482 136.208 68.4562 137.02 70.5767V124.343C136.01 127.858 133.727 129.956 130.053 130.339C129.701 133.515 128.825 135.452 127.425 136.149M107.069 91.3936C101.67 91.3936 96.27 91.3936 90.8703 91.3936C90.3763 91.3936 89.8085 91.298 89.4111 91.5061C88.9455 91.7479 88.2812 92.3273 88.3323 92.6704C88.4061 93.1766 88.9625 93.6997 89.4508 94.0259C89.7574 94.234 90.3082 94.1103 90.7454 94.1103C101.709 94.1103 112.679 94.1103 123.643 94.1103C124.08 94.1103 124.631 94.2284 124.938 94.0203C125.409 93.6884 125.954 93.1485 126.011 92.6479C126.051 92.2935 125.381 91.7423 124.909 91.5061C124.506 91.3036 123.938 91.4048 123.444 91.4048C117.988 91.4048 112.531 91.4048 107.081 91.4048M107.081 119.427C112.594 119.427 118.101 119.427 123.615 119.427C124.109 119.427 124.705 119.556 125.074 119.331C125.517 119.061 126.033 118.476 126.022 118.038C126.011 117.621 125.42 117.098 124.955 116.868C124.557 116.665 123.984 116.795 123.49 116.795C115.887 116.795 108.279 116.795 100.676 116.795C97.0933 116.795 93.5105 116.795 89.9277 116.795C88.7808 116.795 87.9689 117.284 88.4117 118.454C88.5934 118.932 89.5871 119.376 90.2173 119.388C95.8384 119.461 101.46 119.427 107.081 119.427ZM107.257 106.704H113.042C116.847 106.704 120.645 106.749 124.449 106.648C125.011 106.631 125.914 105.99 126.022 105.495C126.238 104.516 125.426 104.094 124.472 104.072C124.307 104.072 124.143 104.072 123.978 104.072C112.793 104.072 101.607 104.072 90.4217 104.072C89.3713 104.072 88.2755 104.117 88.3039 105.495C88.3323 106.833 89.4565 106.704 90.399 106.704C96.0201 106.704 101.641 106.704 107.257 106.704Z" fill="#66B351"/>
<path d="M125.767 44.6807C125.875 46.5649 126.039 48.4436 126.028 50.3278C126.028 50.6034 125.176 51.0703 124.694 51.104C123.166 51.2053 121.622 51.1434 119.924 51.1434V63.2646H116.835V51.194H98.0642V63.2589H94.9186V51.1097H88.1676C88.3607 48.8035 88.531 46.7449 88.707 44.6863H125.772L125.767 44.6807Z" fill="#AFAFAF"/>
<path d="M126.096 66.2513C125.642 68.2818 125.295 70.1548 124.79 71.9884C123.933 75.0989 122.434 76.1732 119.209 76.1788C111.322 76.1788 103.441 76.1451 95.5545 76.2013C93.5331 76.2182 92.0569 75.4307 91.3415 73.6646C90.3876 71.3135 89.7006 68.8555 88.8375 66.2569H126.096V66.2513Z" fill="#66B351"/>
</g>
</svg>
