<svg width="171" height="171" viewBox="0 0 171 171" fill="none" xmlns="http://www.w3.org/2000/svg">
<circle cx="85.346" cy="85.1259" r="85.1259" fill="white" fill-opacity="0.26"/>
<mask id="mask0_276_668" style="mask-type:luminance" maskUnits="userSpaceOnUse" x="24" y="27" width="116" height="106">
<path d="M139.713 27.7358H24.1707V132.278H139.713V27.7358Z" fill="white"/>
</mask>
<g mask="url(#mask0_276_668)">
<mask id="mask1_276_668" style="mask-type:luminance" maskUnits="userSpaceOnUse" x="24" y="27" width="117" height="106">
<path d="M140.052 27.3297H24.1707V132.278H140.052V27.3297Z" fill="white"/>
</mask>
<g mask="url(#mask1_276_668)">
<mask id="mask2_276_668" style="mask-type:luminance" maskUnits="userSpaceOnUse" x="24" y="27" width="116" height="106">
<path d="M139.591 27.8524H24.2877V132.162H139.591V27.8524Z" fill="white"/>
</mask>
<g mask="url(#mask2_276_668)">
<path d="M110.001 47.5754V65.2593H107.78C105.701 65.2593 104.014 63.5822 104.014 61.5069H105.487C106.876 61.5069 108.006 60.3848 108.006 58.9973C108.006 58.3015 107.724 57.6782 107.268 57.2237C106.811 56.7692 106.186 56.4877 105.487 56.4877H104.514C104.179 56.4877 103.856 56.4555 103.545 56.3952C102.678 56.2263 101.898 55.8402 101.252 55.2973C100.167 54.3722 99.4762 53.0048 99.4762 51.4725H100.635C102.1 51.4725 103.283 50.2901 103.283 48.8262C103.283 48.0982 102.988 47.4387 102.508 46.9601C102.028 46.4815 101.366 46.1879 100.635 46.1879H73.8899C72.4205 46.1879 71.2336 47.3703 71.2336 48.8262C71.2336 49.5581 71.5283 50.2177 72.0087 50.6963C72.4891 51.1749 73.1512 51.4685 73.8859 51.4685H75.0445C75.0445 52.852 74.4793 54.1068 73.571 55.0198C73.458 55.1324 73.3369 55.241 73.2117 55.3415C72.5779 55.8603 71.8109 56.2343 70.9712 56.3912C70.6604 56.4515 70.3374 56.4837 70.0064 56.4837H69.0335C67.6407 56.4837 66.5144 57.6098 66.5144 58.9933C66.5144 59.6891 66.797 60.3165 67.2532 60.7669C67.7053 61.2214 68.3351 61.5029 69.0335 61.5029H70.507C70.507 62.5405 70.0871 63.4776 69.4049 64.1573C68.7226 64.837 67.782 65.2552 66.7405 65.2552H64.5161V47.5714C64.5161 45.291 66.3691 43.449 68.658 43.449H105.855C108.144 43.449 109.997 45.291 109.997 47.5714" fill="white"/>
<path d="M101.249 55.2971C101.894 55.8401 102.674 56.2262 103.542 56.3951V76.488C103.542 77.421 103.287 78.33 102.815 79.1343C102.217 80.1478 101.228 81.5876 99.771 83.0113C99.222 83.5462 98.6043 84.0811 97.91 84.5919C95.3949 86.45 91.9352 87.9662 87.317 87.9903H87.2039C81.31 87.9581 77.3013 85.5048 74.7459 82.9993C73.2926 81.5836 72.3035 80.1438 71.706 79.1303C71.2297 78.33 70.9753 77.417 70.9753 76.484V56.391C71.815 56.2302 72.5821 55.8602 73.2159 55.3414L73.2441 55.3936V65.42C73.2441 68.5007 75.3433 71.0465 78.0562 71.4044C78.0521 71.4245 78.0481 71.4366 78.0441 71.4527H78.8595C78.8595 75.02 81.7621 77.9157 85.351 77.9157C85.351 76.8821 86.1785 76.0456 87.212 76.0214L87.2524 76.0174H87.321C87.8377 76.0295 88.302 76.2467 88.6371 76.5885C88.9721 76.9304 89.178 77.4009 89.178 77.9157C92.7588 77.9157 95.6654 75.024 95.6654 71.4527H96.4849C96.4849 71.4527 96.4768 71.4245 96.4688 71.4044C99.1816 71.0465 101.281 68.5007 101.281 65.42L101.253 55.2971H101.249Z" fill="#848484"/>
<path d="M101.277 65.42C101.277 68.5007 99.1775 71.0465 96.4646 71.4045C96.2345 70.6886 93.8164 67.4671 87.3129 67.4269H87.1998C80.7003 67.4631 78.2822 70.6846 78.048 71.4045C75.3352 71.0465 73.236 68.5007 73.236 65.42V55.3937L73.2077 55.3414C73.3288 55.2368 73.454 55.1323 73.567 55.0197C74.4753 54.1107 75.0405 52.8519 75.0405 51.4684C75.0405 48.5526 77.4183 46.1838 80.3451 46.1838H94.1595C97.0904 46.1838 99.4681 48.5526 99.4681 51.4684C99.4681 53.0007 100.154 54.3722 101.244 55.2931L101.273 65.416L101.277 65.42Z" fill="#FBD1B9"/>
<path d="M74.4633 86.5104L74.7418 83.0034H74.7459C77.3013 85.5009 81.31 87.9542 87.2039 87.9864H87.317C91.9393 87.9622 95.399 86.442 97.91 84.5879C98.6003 84.0772 99.2179 83.5423 99.771 83.0074L99.8517 86.6873L99.8921 86.7557C97.3771 88.3202 93.4693 90.3713 89.4283 90.9585H85.0805C80.8417 90.3431 76.7321 88.107 74.2493 86.5184L74.4592 86.5104H74.4633Z" fill="#FBD1B9"/>
<path d="M74.7417 83.0034L74.4632 86.5104L74.2533 86.5185C72.7596 85.5653 71.8594 84.8454 71.8594 84.8454L70.7008 89.3418L67.7295 90.3834L59.1227 93.4038V70.7047C59.1227 67.7165 61.5328 65.2954 64.5202 65.2552H66.7445C67.7861 65.2552 68.7267 64.8369 69.4089 64.1573C70.0912 63.4776 70.511 62.5405 70.511 61.5029H70.9753V76.4841C70.9753 77.4171 71.2296 78.3261 71.706 79.1304C72.3034 80.1439 73.2925 81.5837 74.7458 82.9994H74.7417V83.0034Z" fill="white"/>
<path d="M99.8517 86.6913L99.7709 83.0114C101.228 81.5877 102.217 80.1479 102.815 79.1344C103.287 78.334 103.541 77.4211 103.541 76.488V61.5068H104.014C104.014 63.5781 105.697 65.2592 107.78 65.2592H110.001C112.988 65.2954 115.398 67.7205 115.398 70.7087V93.4077L106.779 90.3874L103.812 89.3457L102.669 84.8494C102.669 84.8494 101.612 85.6939 99.892 86.7637L99.8517 86.6954V86.6913Z" fill="white"/>
<path d="M106.779 90.3833L102.258 131.201C98.4185 131.136 94.8135 131.088 91.2569 131.056V90.9584H89.4322C93.4692 90.3712 97.381 88.3241 99.896 86.7556C101.616 85.6858 102.673 84.8412 102.673 84.8412L103.816 89.3376L106.783 90.3793L106.779 90.3833Z" fill="white"/>
<path d="M106.779 90.3834L115.402 93.4037L131.651 99.0906C131.651 99.0906 123 117.744 122.059 131.571V131.651C114.49 131.454 108.103 131.305 102.258 131.201L106.779 90.3834Z" fill="#0F4B64"/>
<path d="M59.1187 93.4037L67.7255 90.3834L72.2267 130.991C65.1378 131 57.1931 131.032 47.3187 131.076C47.7547 117.844 42.8457 99.0986 42.8457 99.0986L59.1187 93.4078V93.4037Z" fill="#0F4B64"/>
<path d="M42.8498 99.0986C42.8498 99.0986 47.7588 117.844 47.3228 131.076C40.6376 131.104 33.0764 131.132 24.2919 131.156L42.8498 99.0986Z" fill="white"/>
<path d="M85.0804 90.9625H83.1467V131.004C79.6467 130.991 76.0578 130.983 72.2267 130.995L67.7255 90.3874L70.6967 89.3457L71.8553 84.8494C71.8553 84.8494 72.7596 85.5733 74.2493 86.5224C76.728 88.111 80.8376 90.3472 85.0804 90.9625Z" fill="white"/>
<path d="M85.0804 90.9625C85.8071 91.0751 86.5297 91.1274 87.2564 91.1274C87.983 91.1274 88.7056 91.0751 89.4323 90.9625H91.257V131.056C88.5522 131.032 85.8717 131.016 83.1467 131.003V90.9625H85.0804Z" fill="#0F4B64"/>
<path d="M131.667 99.0986L139.591 132.162C133.048 131.965 127.271 131.796 122.055 131.655V131.575C122.996 117.748 131.647 99.0986 131.647 99.0986H131.667Z" fill="white"/>
<path d="M107.433 40.8268V43.1554C107.433 43.3203 107.3 43.449 107.142 43.449H67.4914C67.3258 43.449 67.1967 43.3163 67.1967 43.1554V40.8268C67.1967 40.6659 67.3299 40.5372 67.4914 40.5372H107.142C107.304 40.5372 107.433 40.67 107.433 40.8268Z" fill="#B87FB7"/>
<path d="M107.264 57.2236C107.72 57.6781 108.002 58.3015 108.002 58.9972C108.002 60.3848 106.872 61.5069 105.483 61.5069H103.537V56.3951C103.848 56.4555 104.171 56.4876 104.506 56.4876H105.479C106.178 56.4876 106.803 56.7692 107.259 57.2236" fill="white"/>
<path d="M107.32 37.911V40.2396C107.32 40.4045 107.187 40.5332 107.029 40.5332H67.4914C67.3258 40.5332 67.1967 40.4005 67.1967 40.2396V37.911C67.1967 37.7501 67.3299 37.6214 67.4914 37.6214H107.029C107.191 37.6214 107.32 37.7541 107.32 37.911Z" fill="#B87FB7"/>
<path d="M104.393 37.6214H70.2405C73.6679 31.7777 80.0302 27.8524 87.3169 27.8524C94.6036 27.8524 100.962 31.7777 104.393 37.6214Z" fill="white"/>
<path d="M102.504 46.96C102.984 47.4386 103.279 48.0982 103.279 48.8261C103.279 50.29 102.092 51.4724 100.631 51.4724H99.4722C99.4722 48.5566 97.0944 46.1878 94.1636 46.1878H100.631C101.361 46.1878 102.024 46.4814 102.504 46.96Z" fill="white"/>
<path d="M96.4687 71.4045C96.2507 71.4367 96.0327 71.4528 95.8066 71.4528H78.7222C78.4961 71.4528 78.2741 71.4367 78.0601 71.4045C78.2902 70.6886 80.7084 67.4672 87.2119 67.4269H87.3249C93.8245 67.4631 96.2426 70.6846 96.4767 71.4045" fill="#848484"/>
<path d="M87.317 71.4527H95.6614C95.6614 75.02 92.7588 77.9157 89.174 77.9157C89.174 77.4009 88.9681 76.9304 88.633 76.5885C88.2939 76.2467 87.8337 76.0295 87.317 76.0215L87.2685 76.0174H87.2039C86.1745 76.0456 85.3429 76.8861 85.3429 77.9157C81.7581 77.9157 78.8514 75.0241 78.8514 71.4527H87.3129H87.317Z" fill="#FBD1B9"/>
<path d="M73.89 46.1878H80.3531C77.4263 46.1878 75.0486 48.5566 75.0486 51.4724H73.89C73.1552 51.4724 72.4932 51.1789 72.0128 50.7003C71.5324 50.2217 71.2377 49.5621 71.2377 48.8301C71.2377 47.3702 72.4245 46.1918 73.894 46.1918" fill="white"/>
<path d="M70.9752 56.3951V61.5069H69.0375C68.3391 61.5069 67.7093 61.2253 67.2572 60.7709C66.801 60.3204 66.5184 59.693 66.5184 58.9972C66.5184 57.6137 67.6447 56.4876 69.0375 56.4876H70.0104C70.3414 56.4876 70.6644 56.4555 70.9752 56.3951Z" fill="white"/>
</g>
</g>
<path d="M139.595 132.162C133.052 131.965 127.275 131.796 122.059 131.655C114.49 131.458 108.103 131.309 102.258 131.205C98.4185 131.14 94.8135 131.092 91.2569 131.06C88.5521 131.032 85.8716 131.012 83.1466 131.004C79.6466 130.991 76.0577 130.983 72.2267 130.995C65.1377 131.004 57.193 131.036 47.3186 131.08C40.6334 131.108 33.0722 131.136 24.2877 131.16" stroke="#B87EB7" stroke-width="0.42" stroke-linecap="round" stroke-linejoin="round"/>
<path d="M24.2877 131.156L42.8456 99.0985L59.1186 93.4077L67.7254 90.3873L70.6966 89.3457L71.8553 84.8493C71.8553 84.8493 72.7595 85.5732 74.2492 86.5224C76.7279 88.111 80.8375 90.3471 85.0804 90.9624C85.807 91.075 86.5296 91.1273 87.2563 91.1273" stroke="#B87EB7" stroke-width="0.42" stroke-linecap="round" stroke-linejoin="round"/>
<path d="M139.595 132.162L131.671 99.0985H131.651L115.402 93.4077L106.779 90.3873L103.812 89.3457L102.669 84.8493C102.669 84.8493 101.612 85.6939 99.8919 86.7637C97.3769 88.3282 93.4691 90.3793 89.4281 90.9665C88.7015 91.0791 87.9789 91.1314 87.2522 91.1314" stroke="#B87EB7" stroke-width="0.42" stroke-linecap="round" stroke-linejoin="round"/>
<path d="M70.2405 37.6214C73.6679 31.7777 80.0302 27.8524 87.3169 27.8524C94.6036 27.8524 100.962 31.7777 104.393 37.6214" stroke="#B87EB7" stroke-width="0.42" stroke-linecap="round" stroke-linejoin="round"/>
<path d="M67.4912 37.6214C67.3257 37.6214 67.1965 37.7541 67.1965 37.911V40.2396C67.1965 40.4045 67.3298 40.5332 67.4912 40.5332" stroke="#B87EB7" stroke-width="0.42" stroke-linecap="round" stroke-linejoin="round"/>
<path d="M107.142 40.5372C107.304 40.5372 107.433 40.4045 107.433 40.2436V37.915C107.433 37.7541 107.3 37.6254 107.142 37.6254H107.029" stroke="#B87EB7" stroke-width="0.42" stroke-linecap="round" stroke-linejoin="round"/>
<path d="M67.4912 40.5372C67.3257 40.5372 67.1965 40.67 67.1965 40.8268V43.1554C67.1965 43.3203 67.3298 43.449 67.4912 43.449H107.142C107.304 43.449 107.433 43.3163 107.433 43.1554V40.8268C107.433 40.6659 107.3 40.5372 107.142 40.5372H107.029" stroke="#B87EB7" stroke-width="0.42" stroke-linecap="round" stroke-linejoin="round"/>
<path d="M68.658 43.4529C66.3691 43.4529 64.5161 45.2949 64.5161 47.5753V65.2591" stroke="#B87EB7" stroke-width="0.42" stroke-linecap="round" stroke-linejoin="round"/>
<path d="M87.2038 67.4269C80.7043 67.4631 78.2862 70.6846 78.052 71.4045C78.048 71.4246 78.044 71.4367 78.0399 71.4528H87.2038" stroke="#B87EB7" stroke-width="0.42" stroke-linecap="round" stroke-linejoin="round"/>
<path d="M73.2439 55.3937V65.42C73.2439 68.5007 75.3431 71.0465 78.056 71.4045C78.274 71.4366 78.4919 71.4527 78.718 71.4527" stroke="#B87EB7" stroke-width="0.42" stroke-linecap="round" stroke-linejoin="round"/>
<path d="M75.0485 51.4724C75.0485 48.5566 77.4263 46.1878 80.3531 46.1878" stroke="#B87EB7" stroke-width="0.42" stroke-linecap="round" stroke-linejoin="round"/>
<path d="M74.7416 83.0034L74.4631 86.5104" stroke="#B87EB7" stroke-width="0.42" stroke-linecap="round" stroke-linejoin="round"/>
<path d="M67.4913 40.5372H67.3783C67.2128 40.5372 67.0836 40.4045 67.0836 40.2436V37.915C67.0836 37.7541 67.2168 37.6254 67.3783 37.6254H107.029C107.191 37.6254 107.32 37.7581 107.32 37.915V40.2436C107.32 40.4085 107.187 40.5372 107.029 40.5372H67.4913Z" stroke="#B87EB7" stroke-width="0.42" stroke-linecap="round" stroke-linejoin="round"/>
<path d="M94.0747 46.1878H73.8859C72.4164 46.1878 71.2296 47.3702 71.2296 48.8261C71.2296 49.5581 71.5242 50.2176 72.0046 50.6962C72.485 51.1748 73.1471 51.4684 73.8818 51.4684H75.0404C75.0404 52.8519 74.4753 54.1067 73.567 55.0197C73.4539 55.1323 73.3328 55.2409 73.2077 55.3414C72.5739 55.8602 71.8068 56.2343 70.9671 56.3911C70.6563 56.4514 70.3333 56.4836 70.0023 56.4836H69.0294C67.6367 56.4836 66.5103 57.6097 66.5103 58.9932C66.5103 59.689 66.7929 60.3164 67.2491 60.7668C67.7012 61.2213 68.331 61.5028 69.0294 61.5028H70.5029C70.5029 62.5404 70.0831 63.4775 69.4008 64.1572C68.7186 64.8369 67.7779 65.2552 66.7364 65.2552H64.512C61.5247 65.2913 59.1146 67.7165 59.1146 70.7047V93.4037" stroke="#B87EB7" stroke-width="0.42" stroke-linecap="round" stroke-linejoin="round"/>
<path d="M115.402 93.4037V70.7047C115.398 67.7165 112.988 65.2954 110.001 65.2551H107.78C105.701 65.2551 104.014 63.5781 104.014 61.5028H105.487C106.876 61.5028 108.006 60.3807 108.006 58.9932C108.006 58.2974 107.724 57.6741 107.268 57.2196C106.811 56.7651 106.186 56.4836 105.487 56.4836H104.514C104.179 56.4836 103.856 56.4514 103.546 56.3911C102.678 56.2222 101.898 55.8361 101.253 55.2931C100.167 54.3681 99.4763 53.0007 99.4763 51.4684H100.635C102.1 51.4684 103.283 50.286 103.283 48.8221C103.283 48.0941 102.988 47.4346 102.508 46.956C102.028 46.4774 101.366 46.1838 100.635 46.1838H94.1677" stroke="#B87EB7" stroke-width="0.42" stroke-linecap="round" stroke-linejoin="round"/>
<path d="M99.4762 51.4724C99.4762 48.5566 97.0984 46.1878 94.1676 46.1878H94.0788" stroke="#B87EB7" stroke-width="0.42" stroke-linecap="round" stroke-linejoin="round"/>
<path d="M105.859 43.4529C108.148 43.4529 110.001 45.2949 110.001 47.5753V65.2591" stroke="#B87EB7" stroke-width="0.42" stroke-linecap="round" stroke-linejoin="round"/>
<path d="M87.2038 67.4269H87.3168C93.8163 67.4631 96.2345 70.6846 96.4686 71.4045C96.4727 71.4246 96.4767 71.4367 96.4807 71.4528H87.2038" stroke="#B87EB7" stroke-width="0.42" stroke-linecap="round" stroke-linejoin="round"/>
<path d="M95.6613 71.4527C95.6613 75.02 92.7587 77.9157 89.1739 77.9157C89.1739 77.4009 88.968 76.9304 88.6329 76.5885C88.2938 76.2467 87.8336 76.0295 87.3169 76.0215L87.2684 76.0174H87.2039C86.1744 76.0456 85.3428 76.8861 85.3428 77.9157C81.758 77.9157 78.8514 75.0241 78.8514 71.4527" stroke="#B87EB7" stroke-width="0.42" stroke-linecap="round" stroke-linejoin="round"/>
<path d="M70.9753 56.3951V76.4881C70.9753 77.4211 71.2296 78.33 71.706 79.1344C72.3034 80.1479 73.2925 81.5877 74.7458 83.0034C77.3012 85.5089 81.3099 87.9582 87.2039 87.9944H87.3169C91.9392 87.9703 95.3989 86.45 97.9099 84.596C98.6002 84.0852 99.2179 83.5503 99.7709 83.0154C101.228 81.5917 102.217 80.1519 102.815 79.1384C103.287 78.3381 103.541 77.4251 103.541 76.4921V56.3992" stroke="#B87EB7" stroke-width="0.42" stroke-linecap="round" stroke-linejoin="round"/>
<path d="M101.248 55.2971L101.277 65.42C101.277 68.5007 99.1775 71.0465 96.4646 71.4044C96.2466 71.4366 96.0286 71.4527 95.8026 71.4527" stroke="#B87EB7" stroke-width="0.42" stroke-linecap="round" stroke-linejoin="round"/>
<path d="M99.7709 83.0114L99.8516 86.6913" stroke="#B87EB7" stroke-width="0.42" stroke-linecap="round" stroke-linejoin="round"/>
<path d="M72.2307 131.052L72.2267 130.991L67.7295 90.3873" stroke="#B87EB7" stroke-width="0.42" stroke-linecap="round" stroke-linejoin="round"/>
<path d="M42.8497 99.0986C42.8497 99.0986 47.7586 117.844 47.3226 131.076" stroke="#B87EB7" stroke-width="0.42" stroke-linecap="round" stroke-linejoin="round"/>
<path d="M106.779 90.3834L102.258 131.205V131.209" stroke="#B87EB7" stroke-width="0.42" stroke-linecap="round" stroke-linejoin="round"/>
<path d="M131.651 99.0986C131.651 99.0986 123 117.748 122.059 131.575" stroke="#B87EB7" stroke-width="0.42" stroke-linecap="round" stroke-linejoin="round"/>
<path d="M83.1467 131.003V90.9625H85.0804H89.4322H91.2569V131.052" stroke="#B87EB7" stroke-width="0.42" stroke-linecap="round" stroke-linejoin="round"/>
<path d="M87.2038 63.8958V57.8229" stroke="#B87EB7" stroke-width="0.42" stroke-linecap="round" stroke-linejoin="round"/>
</g>
</svg>
