<svg width="181" height="185" viewBox="0 0 181 185" fill="none" xmlns="http://www.w3.org/2000/svg">
<path d="M23.9124 127.312H25.7376C25.9922 127.312 26.2045 127.524 26.2045 127.779V133.849H33.7172V127.779C33.7172 127.524 33.9294 127.312 34.184 127.312H36.0092C36.2638 127.312 36.476 127.524 36.476 127.779V142.592C36.476 142.847 36.2638 143.059 36.0092 143.059H34.184C33.9294 143.059 33.7172 142.847 33.7172 142.592V136.417H26.2045V142.592C26.2045 142.847 25.9922 143.059 25.7376 143.059H23.9124C23.6578 143.059 23.4456 142.847 23.4456 142.592V127.779C23.4456 127.524 23.6578 127.312 23.9124 127.312Z" fill="white"/>
<path d="M49.8886 127.312H51.841C52.032 127.312 52.2018 127.418 52.2654 127.588L58.7807 142.507C58.908 142.826 58.6958 143.165 58.3563 143.165H56.4675C56.2765 143.165 56.1067 143.059 56.0218 142.868L54.6636 139.642C54.5999 139.473 54.4089 139.345 54.2179 139.345H47.3843C47.1933 139.345 47.0236 139.451 46.9387 139.642L45.5592 142.868C45.4743 143.038 45.3046 143.165 45.1136 143.165H43.3096C42.9701 143.165 42.7367 142.826 42.8852 142.507L49.4005 127.588C49.4853 127.418 49.6551 127.312 49.8249 127.312H49.8886ZM53.5388 136.926L50.8223 130.623L48.1271 136.926H53.56H53.5388Z" fill="white"/>
<path d="M67.4177 136.735L61.7089 128.034C61.4967 127.715 61.7089 127.291 62.1121 127.291H64.2556C64.4254 127.291 64.5739 127.376 64.6588 127.503L68.9033 134.23L73.2326 127.482C73.3175 127.354 73.466 127.27 73.6358 127.27H75.6731C76.0551 127.27 76.2674 127.694 76.0764 128.012L70.3888 136.629C70.3888 136.629 70.3039 136.798 70.3039 136.883V142.55C70.3039 142.804 70.0917 143.016 69.837 143.016H67.9907C67.736 143.016 67.5238 142.804 67.5238 142.55V136.947C67.5238 136.947 67.5026 136.756 67.4389 136.692L67.4177 136.735Z" fill="white"/>
<path d="M85.9457 127.312H87.8981C88.0891 127.312 88.2589 127.418 88.3226 127.588L94.8378 142.507C94.9651 142.826 94.7529 143.165 94.4133 143.165H92.5246C92.3336 143.165 92.1638 143.059 92.0789 142.868L90.7207 139.642C90.657 139.473 90.466 139.345 90.275 139.345H83.4414C83.2504 139.345 83.0807 139.451 82.9958 139.642L81.6163 142.868C81.5314 143.038 81.3617 143.165 81.1707 143.165H79.3668C79.0272 143.165 78.7938 142.826 78.9423 142.507L85.4576 127.588C85.5424 127.418 85.7122 127.312 85.882 127.312H85.9457ZM89.5959 136.926L86.8794 130.623L84.1842 136.926H89.6171H89.5959Z" fill="white"/>
<path d="M101.947 127.312H103.772C104.027 127.312 104.239 127.524 104.239 127.779V135.228L111.582 127.461C111.582 127.461 111.794 127.312 111.921 127.312H114.044C114.468 127.312 114.68 127.822 114.383 128.119L108.589 134.103L114.871 142.338C115.105 142.656 114.871 143.102 114.489 143.102H112.303C112.155 143.102 112.006 143.038 111.921 142.911L106.679 136.013L104.366 138.39C104.366 138.39 104.239 138.602 104.239 138.73V142.635C104.239 142.889 104.027 143.102 103.772 143.102H101.947C101.692 143.102 101.48 142.889 101.48 142.635V127.822C101.48 127.567 101.692 127.355 101.947 127.355V127.312Z" fill="white"/>
<path d="M120.919 136.374V127.779C120.919 127.524 121.132 127.312 121.386 127.312H123.211C123.466 127.312 123.678 127.524 123.678 127.779V136.268C123.678 139.197 125.185 140.746 127.668 140.746C130.151 140.746 131.637 139.282 131.637 136.374V127.779C131.637 127.524 131.849 127.312 132.104 127.312H133.929C134.183 127.312 134.396 127.524 134.396 127.779V136.247C134.396 140.958 131.743 143.314 127.626 143.314C123.509 143.314 120.919 140.958 120.919 136.374Z" fill="white"/>
<path d="M142.566 127.312H144.795C144.964 127.312 145.113 127.397 145.198 127.524L149.846 134.761L154.493 127.524C154.578 127.397 154.727 127.312 154.896 127.312H157.125C157.379 127.312 157.592 127.524 157.592 127.779V142.592C157.592 142.847 157.379 143.059 157.125 143.059H155.3C155.045 143.059 154.833 142.847 154.833 142.592V131.769L149.867 139.197H149.782L144.858 131.811V142.592C144.858 142.847 144.646 143.059 144.391 143.059H142.609C142.354 143.059 142.142 142.847 142.142 142.592V127.779C142.142 127.524 142.354 127.312 142.609 127.312H142.566Z" fill="white"/>
<path d="M9.24842 167.592C9.24842 166.892 8.82399 166.743 8.46321 166.743C8.10243 166.743 7.67798 166.892 7.67798 167.592C7.67798 168.144 7.95387 168.441 8.46321 168.441C8.97254 168.441 9.24842 168.144 9.24842 167.592Z" fill="white"/>
<path d="M19.3924 166.659C18.8619 166.659 18.6072 166.956 18.6072 167.508C18.6072 168.059 18.8831 168.356 19.3924 168.356C19.9018 168.356 20.1776 168.059 20.1776 167.508C20.1776 166.807 19.7532 166.659 19.3924 166.659Z" fill="white"/>
<path d="M18.161 167.508C18.161 166.956 17.8851 166.659 17.3758 166.659C17.015 166.659 16.5906 166.807 16.5906 167.508C16.5906 168.059 16.8665 168.356 17.3758 168.356C17.8851 168.356 18.161 168.059 18.161 167.508Z" fill="white"/>
<path d="M29.5153 164.494C29.0908 164.091 28.7725 163.178 28.5603 161.756C28.3905 160.695 28.0722 159.931 27.6265 159.507C27.1808 159.082 26.5442 158.87 25.759 158.87C24.8252 158.87 23.9975 159.104 23.2972 159.549L23.2123 159.592L23.7641 160.674L23.8489 160.632C24.528 160.292 25.1435 160.122 25.7165 160.122C26.1834 160.122 26.5229 160.25 26.7352 160.525C26.9686 160.801 27.1596 161.332 27.287 162.096C27.478 163.221 27.7114 163.963 28.0085 164.409H21.3235C20.9627 164.409 20.6656 164.303 20.4321 164.091C20.2199 163.879 20.1138 163.603 20.1138 163.242V159.019H18.7344V164.409H15.1266C14.7658 164.409 14.4687 164.303 14.2352 164.091C14.023 163.879 13.8957 163.603 13.8957 163.242V159.019H12.5587V164.409H4.85501C4.51546 164.409 4.23957 164.282 4.02735 163.985C3.81512 163.709 3.70901 163.327 3.70901 162.881C3.70901 162.266 3.77269 161.65 3.90002 161.014V160.886H2.66912V160.95C2.41446 161.587 2.30835 162.266 2.30835 162.987C2.30835 163.794 2.5418 164.452 3.00869 164.94C3.47558 165.428 4.11224 165.661 4.89747 165.661H13.8957V165.131C14.1928 165.47 14.6597 165.661 15.2752 165.661H20.0926V165.131C20.3897 165.47 20.8566 165.661 21.472 165.661H29.5153V164.494Z" fill="white"/>
<path d="M40.19 157.851C40.6993 157.851 40.9752 157.554 40.9752 157.002C40.9752 156.302 40.5508 156.154 40.19 156.154C39.6594 156.154 39.4048 156.451 39.4048 157.002C39.4048 157.554 39.6807 157.851 40.19 157.851Z" fill="white"/>
<path d="M38.1529 157.851C38.6834 157.851 38.9381 157.554 38.9381 157.002C38.9381 156.451 38.6622 156.154 38.1529 156.154C37.7921 156.154 37.3677 156.302 37.3677 157.002C37.3677 157.554 37.6436 157.851 38.1529 157.851Z" fill="white"/>
<path d="M46.7479 155.368H45.3685V164.409H41.1665C40.7845 164.409 40.5086 164.303 40.2751 164.091C40.0629 163.878 39.9568 163.602 39.9568 163.242V159.018H38.5774V164.409H34.6513C34.2905 164.409 33.9933 164.303 33.7599 164.091C33.5477 163.878 33.4204 163.602 33.4204 163.242V159.018H32.1046V165.937C32.1046 166.446 31.9985 166.849 31.7862 167.168C31.574 167.465 31.2981 167.613 30.9374 167.613C30.5129 167.613 30.1097 167.486 29.7489 167.21L29.664 167.147L29.0273 168.123L29.091 168.186C29.6216 168.632 30.2582 168.844 30.9586 168.844C31.7438 168.844 32.3592 168.568 32.7837 168.038C33.2081 167.507 33.4204 166.786 33.4204 165.873V165.13C33.6538 165.406 34.0146 165.576 34.4815 165.619L39.9356 165.64V165.109C40.2327 165.449 40.6996 165.64 41.315 165.64H46.7055V155.368H46.7479Z" fill="white"/>
<path d="M50.1856 155.368H48.8062V165.64H50.1856V155.368Z" fill="white"/>
<path d="M57.4861 159.019H55.6398C54.5363 159.019 53.6237 159.337 52.9446 159.952C52.2655 160.568 51.9047 161.438 51.9047 162.52C51.9047 163.518 52.1806 164.303 52.7111 164.833C53.2417 165.364 54.0057 165.64 54.9607 165.64H56.1491V165.916C56.1491 166.425 55.9794 166.828 55.661 167.125C55.3427 167.423 54.897 167.571 54.324 167.571C53.751 167.571 53.1568 167.401 52.4989 167.062L52.414 167.019L51.7773 168.08L51.8622 168.144C52.5838 168.611 53.3902 168.844 54.3028 168.844C55.3002 168.844 56.0854 168.59 56.6372 168.059C57.189 167.529 57.4649 166.807 57.4649 165.873V159.019H57.4861ZM56.1491 164.409H55.0031C53.8571 164.409 53.2841 163.794 53.2841 162.52C53.2841 161.82 53.4963 161.247 53.8996 160.865C54.3028 160.462 54.9182 160.271 55.661 160.271H56.1279V164.43L56.1491 164.409Z" fill="white"/>
<path d="M69.837 165.491V155.368H68.5V165.576C68.5 166.934 67.7997 167.592 66.3778 167.592H65.7199C65.2106 167.592 64.8073 167.401 64.5314 167.019C64.2343 166.637 64.107 166.064 64.107 165.343C64.107 164.091 64.2555 163.051 64.5527 162.244L64.5951 162.117H63.2793V162.181C62.8973 163.093 62.7063 164.154 62.7063 165.343C62.7063 166.425 62.961 167.295 63.4491 167.911C63.9584 168.526 64.6375 168.844 65.4652 168.844H66.4202C68.6698 168.844 69.8158 167.72 69.8158 165.512L69.837 165.491Z" fill="white"/>
<path d="M82.5072 167.274C82.5072 166.574 82.0828 166.425 81.722 166.425C81.3612 166.425 80.9368 166.574 80.9368 167.274C80.9368 167.826 81.2126 168.123 81.722 168.123C82.2313 168.123 82.5072 167.826 82.5072 167.274Z" fill="white"/>
<path d="M91.6963 158C92.2269 158 92.4816 157.703 92.4816 157.151C92.4816 156.6 92.2057 156.302 91.6963 156.302C91.3356 156.302 90.9111 156.451 90.9111 157.151C90.9111 157.703 91.187 158 91.6963 158Z" fill="white"/>
<path d="M89.6802 158C90.1896 158 90.4654 157.703 90.4654 157.151C90.4654 156.451 90.041 156.302 89.6802 156.302C89.1709 156.302 88.895 156.6 88.895 157.151C88.895 157.703 89.1709 158 89.6802 158Z" fill="white"/>
<path d="M97.5536 158C98.0841 158 98.3388 157.703 98.3388 157.151C98.3388 156.6 98.0629 156.302 97.5536 156.302C97.1928 156.302 96.7683 156.451 96.7683 157.151C96.7683 157.703 97.0442 158 97.5536 158Z" fill="white"/>
<path d="M99.5911 158C100.1 158 100.376 157.703 100.376 157.151C100.376 156.451 99.9519 156.302 99.5911 156.302C99.0606 156.302 98.8059 156.6 98.8059 157.151C98.8059 157.703 99.0818 158 99.5911 158Z" fill="white"/>
<path d="M109.968 165.131C110.266 165.47 110.732 165.64 111.348 165.64H113.364V158.998H112.027V164.388H111.305C110.902 164.388 110.584 164.261 110.329 164.006C110.075 163.751 109.947 163.433 109.947 163.009V160.016H108.61V164.388H107.889C107.485 164.388 107.167 164.261 106.912 164.006C106.658 163.751 106.53 163.433 106.53 163.009V160.016H105.193V164.388H100.524C100.164 164.388 99.8666 164.282 99.6332 164.07C99.4209 163.858 99.3148 163.582 99.3148 163.221V158.998H97.9354V164.388H92.8421V158.998H90.9957C89.8709 158.998 88.9584 159.316 88.2792 159.931C87.6001 160.547 87.2606 161.417 87.2606 162.499C87.2606 163.263 87.4516 163.9 87.8336 164.388H83.483C83.101 164.388 82.8251 164.282 82.5917 164.07C82.3795 163.858 82.2733 163.582 82.2733 163.221V158.998H80.8939V164.388H73.1902V155.347H71.8108V165.619H82.2733V165.088C82.5705 165.428 83.0374 165.619 83.6528 165.619H99.2936V165.088C99.5907 165.428 100.058 165.619 100.673 165.619H106.488V165.11C106.785 165.449 107.252 165.619 107.867 165.619H109.884V165.11L109.968 165.131ZM91.5687 160.25V164.409H90.4227C89.2767 164.409 88.7037 163.794 88.7037 162.521C88.7037 161.82 88.9159 161.247 89.3192 160.865C89.7436 160.462 90.3378 160.271 91.0806 160.271H91.5475L91.5687 160.25Z" fill="white"/>
<path d="M121.535 164.961C122.002 164.494 122.235 163.878 122.235 163.136V155.368H120.856V162.966C120.856 163.921 120.431 164.409 119.561 164.409H119.285L117.566 157.151H116.123L117.842 164.409H114.892V165.64H119.689C120.453 165.64 121.089 165.406 121.556 164.939L121.535 164.961Z" fill="white"/>
<path d="M125.673 155.368H124.294V165.64H125.673V155.368Z" fill="white"/>
<path d="M136.433 158C136.942 158 137.218 157.703 137.218 157.151C137.218 156.451 136.794 156.302 136.433 156.302C135.903 156.302 135.648 156.6 135.648 157.151C135.648 157.703 135.924 158 136.433 158Z" fill="white"/>
<path d="M134.395 158C134.905 158 135.181 157.703 135.181 157.151C135.181 156.6 134.905 156.302 134.395 156.302C134.035 156.302 133.61 156.451 133.61 157.151C133.61 157.703 133.886 158 134.395 158Z" fill="white"/>
<path d="M133.483 165.661H139.425V159.019H138.088V164.409H133.441C133.101 164.409 132.825 164.282 132.613 163.985C132.401 163.709 132.295 163.327 132.295 162.881C132.295 162.266 132.358 161.65 132.486 161.013V160.886H131.255V160.95C131 161.586 130.894 162.266 130.894 162.987C130.894 163.794 131.127 164.451 131.594 164.94C132.061 165.428 132.698 165.661 133.483 165.661Z" fill="white"/>
<path d="M156.361 162.181C156.361 161.162 156.064 160.334 155.491 159.761C154.918 159.188 154.154 158.891 153.241 158.891C152.328 158.891 151.501 159.231 150.907 159.931C150.312 160.61 150.015 161.502 150.015 162.563C150.015 163.327 150.143 163.942 150.376 164.43H142.863V155.39H141.484V165.661H152.71C153.75 165.661 154.642 165.343 155.321 164.749C156.021 164.133 156.361 163.284 156.361 162.202V162.181ZM151.925 160.759C152.265 160.313 152.71 160.101 153.241 160.101C153.772 160.101 154.175 160.292 154.493 160.653C154.811 161.014 154.981 161.523 154.981 162.16C154.981 162.796 154.769 163.369 154.366 163.772C153.941 164.197 153.411 164.409 152.732 164.409H151.84C151.564 164.006 151.416 163.369 151.416 162.542C151.416 161.799 151.586 161.205 151.946 160.759H151.925Z" fill="white"/>
<path d="M169.561 158C170.07 158 170.346 157.703 170.346 157.151C170.346 156.451 169.921 156.302 169.561 156.302C169.2 156.302 168.775 156.451 168.775 157.151C168.775 157.703 169.051 158 169.561 158Z" fill="white"/>
<path d="M179.387 165.661V155.39H178.008V164.43H173.381C172.978 164.006 172.681 163.115 172.49 161.778C172.32 160.716 172.002 159.952 171.556 159.528C171.11 159.104 170.474 158.891 169.688 158.891C168.755 158.891 167.927 159.125 167.227 159.57L167.142 159.613L167.694 160.695L167.778 160.653C168.458 160.313 169.073 160.143 169.646 160.143C170.113 160.143 170.452 160.271 170.665 160.547C170.898 160.823 171.089 161.353 171.216 162.117C171.407 163.242 171.641 163.985 171.938 164.43H164.192C163.852 164.43 163.534 164.303 163.258 164.048C162.961 163.794 162.77 163.518 162.706 163.199C162.07 160.78 160.966 159.231 159.396 158.615L159.311 158.573L158.801 159.761L158.886 159.804C160.245 160.441 161.178 161.99 161.624 164.409H157.231V165.64H162.982V165.088C163.258 165.407 163.619 165.576 164.043 165.619H179.387V165.661Z" fill="white"/>
<path d="M6.40397 179.859L3.56018 175.593H2.26562V184.23H3.64507V178.161L6.21297 181.938L6.25542 181.981H6.55253L9.16286 178.14V184.23H10.5423V175.593H9.24775L6.40397 179.859Z" fill="white"/>
<path d="M14.6382 180.538H19.0949V179.222H14.6382V176.909H19.6042V175.593H13.2588V184.23H19.6679V182.915H14.6382V180.538Z" fill="white"/>
<path d="M23.5726 180.538H28.0292V179.222H23.5726V176.909H28.5386V175.593H22.1931V184.23H28.6022V182.915H23.5726V180.538Z" fill="white"/>
<path d="M30.895 176.909H33.6327V184.23H35.0334V176.909H37.771V175.593H30.895V176.909Z" fill="white"/>
<path d="M50.6102 180.198L50.7163 179.986L49.5278 179.434L49.4429 179.647C49.1883 180.22 48.9336 180.75 48.6365 181.196L47.2146 179.753C48.3606 179.265 48.9548 178.501 48.9548 177.524C48.9548 176.357 47.9786 175.445 46.7477 175.445C45.3683 175.445 44.3496 176.357 44.3496 177.63C44.3496 178.225 44.5406 178.713 45.0287 179.328C43.8403 179.88 43.2036 180.729 43.2036 181.79C43.2036 183.254 44.3708 184.315 46.0049 184.315C47.0024 184.315 47.8725 183.933 48.6789 183.148L49.9311 184.443L51.0134 183.615L49.549 182.108C49.9098 181.62 50.2282 181.026 50.6314 180.177L50.6102 180.198ZM45.8564 180.283L47.7664 182.257C47.2146 182.809 46.6416 183.085 46.0474 183.085C45.1773 183.085 44.583 182.533 44.583 181.748C44.583 181.132 45.0287 180.602 45.8564 180.283ZM45.7078 177.609C45.7078 177.057 46.1323 176.675 46.7053 176.675C47.2358 176.675 47.6178 177.057 47.6178 177.588C47.6178 178.119 47.1934 178.543 46.3445 178.861C45.8564 178.31 45.6866 178.012 45.6866 177.609H45.7078Z" fill="white"/>
<path d="M60.8816 180.687H63.3646V182.363C62.7916 182.809 62.0064 183.064 61.2424 183.064C59.4597 183.064 58.25 181.79 58.25 179.88C58.25 178.14 59.5021 176.761 61.115 176.761C62.2822 176.761 62.9189 177.185 63.4495 177.631L63.6192 177.779L64.5106 176.718L64.3408 176.57C63.3858 175.763 62.452 175.424 61.1575 175.424C58.7381 175.424 56.8281 177.376 56.8281 179.901C56.8281 182.427 58.632 184.337 61.1999 184.337C62.9189 184.337 64.0861 183.509 64.6379 183.021L64.7228 182.957V179.371H60.8816V180.665V180.687Z" fill="white"/>
<path d="M74.2727 178.246C74.2727 177.545 74.0181 176.93 73.5724 176.463C72.9994 175.89 72.1293 175.572 71.0894 175.572H67.3542V184.188H68.7337V181.026H70.7074L73.0418 184.146V184.188H74.782L72.2142 180.771C73.4875 180.41 74.2515 179.477 74.2515 178.225L74.2727 178.246ZM72.872 178.309C72.872 179.18 72.1505 179.753 71.0045 179.753H68.7337V176.909H71.0257C72.2142 176.909 72.872 177.397 72.872 178.309Z" fill="white"/>
<path d="M78.4322 180.538H82.8889V179.222H78.4322V176.909H83.4194V175.593H77.0527V184.23H83.4619V182.915H78.4322V180.538Z" fill="white"/>
<path d="M87.5157 180.538H91.9724V179.222H87.5157V176.909H92.5029V175.593H86.1362V184.23H92.5454V182.915H87.5157V180.538Z" fill="white"/>
<path d="M94.8586 176.909H97.5963V184.23H98.997V176.909H101.735V175.593H94.8586V176.909Z" fill="white"/>
<path d="M112.685 179.243C110.966 178.883 110.648 178.501 110.648 177.864C110.648 177.227 111.263 176.782 112.154 176.782C112.961 176.782 113.661 177.036 114.362 177.609L114.553 177.758L115.38 176.675L115.21 176.527C114.298 175.784 113.385 175.466 112.197 175.466C110.499 175.466 109.289 176.506 109.289 177.949C109.289 179.562 110.457 180.156 112.218 180.538C113.852 180.877 114.149 181.238 114.149 181.875C114.149 182.554 113.491 183.021 112.558 183.021C111.539 183.021 110.775 182.703 109.926 181.917L109.756 181.748L108.886 182.787L109.056 182.936C110.096 183.87 111.199 184.294 112.536 184.294C114.319 184.294 115.55 183.233 115.55 181.726C115.55 180.389 114.701 179.625 112.706 179.18L112.685 179.243Z" fill="white"/>
<path d="M120.219 180.538H124.676V179.222H120.219V176.909H125.185V175.593H118.818V184.23H125.249V182.915H120.219V180.538Z" fill="white"/>
<path d="M135.436 178.246C135.436 177.545 135.181 176.93 134.735 176.463C134.162 175.89 133.292 175.572 132.252 175.572H128.517V184.188H129.918V181.026H131.892L134.226 184.146V184.188H135.966L133.398 180.771C134.672 180.41 135.436 179.477 135.436 178.225V178.246ZM134.035 178.309C134.035 179.18 133.314 179.753 132.168 179.753H129.897V176.909H132.189C133.377 176.909 134.035 177.397 134.035 178.309Z" fill="white"/>
<path d="M142.057 182.236L139.362 175.742L139.319 175.593H137.77L141.463 184.209L141.484 184.273H142.609L146.174 175.933L146.301 175.593H144.816L142.057 182.236Z" fill="white"/>
<path d="M150.588 175.593H149.188V184.209H150.588V175.593Z" fill="white"/>
<path d="M160.287 181.939C159.587 182.596 158.908 183.042 157.825 183.042C156.191 183.042 154.896 181.663 154.896 179.88C154.896 178.097 156.149 176.76 157.825 176.76C158.738 176.76 159.438 177.079 160.223 177.821L160.393 177.991L161.348 176.973L161.178 176.803C160.436 176.102 159.502 175.445 157.846 175.445C155.406 175.445 153.496 177.397 153.496 179.922C153.496 182.448 155.363 184.358 157.825 184.358C159.544 184.358 160.52 183.594 161.263 182.851L161.433 182.681L160.499 181.769L160.329 181.917L160.287 181.939Z" fill="white"/>
<path d="M165.614 180.538H170.049V179.222H165.614V176.909H170.58V175.593H164.213V184.23H170.643V182.915H165.614V180.538Z" fill="white"/>
<path d="M177.01 179.243C175.291 178.883 174.972 178.501 174.972 177.864C174.972 177.227 175.588 176.782 176.479 176.782C177.286 176.782 177.986 177.036 178.686 177.609L178.877 177.758L179.705 176.675L179.535 176.527C178.623 175.784 177.71 175.466 176.522 175.466C174.824 175.466 173.614 176.506 173.614 177.949C173.614 179.562 174.781 180.156 176.543 180.538C178.198 180.877 178.474 181.238 178.474 181.875C178.474 182.554 177.816 183.021 176.882 183.021C175.864 183.021 175.1 182.703 174.251 181.917L174.081 181.748L173.211 182.787L173.381 182.936C174.421 183.87 175.524 184.294 176.861 184.294C178.644 184.294 179.875 183.233 179.875 181.726C179.875 180.389 179.026 179.625 177.031 179.18L177.01 179.243Z" fill="white"/>
<path d="M109.629 95.3513L103.56 101.506L97.5112 95.3513L87.1123 105.92V106.514V107.002L97.5112 117.38L103.56 111.332L109.629 117.38L120.007 107.002V106.514V105.92L109.629 95.3513Z" fill="white"/>
<path d="M122.065 46.9223C119.306 46.9011 118.712 44.5454 118.606 42.0624C118.627 40.7254 118.606 39.3672 118.564 38.0514C118.521 37.3511 117.099 39.3672 117.036 39.4521C116.484 40.3434 115.741 41.5743 115.762 42.6779C115.805 44.1847 115.741 45.649 115.656 47.1133C115.402 47.3043 115.147 47.4741 114.892 47.559C113.725 48.0047 112.664 48.2806 111.751 47.2194C110.032 45.2245 110.754 41.1923 110.924 38.8791C111.009 37.7331 109.99 39.1338 109.778 39.4096C109.12 40.301 108.25 41.7441 108.165 42.8901C108.037 44.7152 107.762 46.604 107.974 48.4291C108.08 49.4478 108.377 51.6124 109.183 52.3552C110.881 53.9257 114.043 51.9732 115.402 50.7423C115.784 50.3816 116.123 49.9996 116.42 49.6176C116.505 49.8086 116.526 50.0208 116.632 50.2118C117.885 52.525 121.301 52.143 123.19 50.7848C124.909 49.5327 126.182 46.986 126.586 44.9699C127.201 41.9351 125.631 38.7942 125.864 35.6958C125.949 34.5498 124.93 35.9504 124.718 36.2263C124.06 37.0964 123.19 38.5608 123.105 39.7068C122.978 41.4258 123.19 43.1448 123.445 44.8425C123.551 45.4155 123.636 45.9673 123.742 46.5403C123.742 46.5828 123.742 46.604 123.742 46.6464C123.19 46.795 122.66 46.9011 122.087 46.9223H122.065Z" fill="white"/>
<path d="M178.008 68.8023C172.575 67.0409 162.855 45.3305 153.262 45.7125C143.67 46.0945 137.6 66.5315 137.6 66.5315L141.378 68.0383C141.378 68.0383 145.028 60.7166 147.681 60.5893C150.334 60.462 154.239 64.6215 154.239 64.6215L160.287 71.3065C160.287 71.3065 141.42 74.0654 130.703 76.315L125.78 77.3124L126.565 74.7658L131.17 73.8744C132.168 68.4203 133.016 62.2446 132.741 60.1861L130.746 60.5468C130.746 60.5468 129.6 69.2267 122.957 70.9245C117.97 72.1979 107.783 74.5535 98.2331 76.1664H98.1695C96.8537 76.3786 95.5379 76.5909 94.2646 76.7819V76.7394L89.5532 77.4185L90.3384 74.9992L94.4344 74.405C95.1347 64.3244 96.9174 37.075 97.7875 33.9978C98.9123 30.1141 100.016 29.0318 100.016 29.0318L98.1483 26.5063C98.1483 26.5063 88.8953 34.8679 86.5397 39.6854C82.5711 47.7923 81.4888 94.3751 81.4888 94.3751L84.0354 93.9719C108.271 91.0008 122.978 86.8412 122.978 86.8412C122.978 86.8412 123.063 86.8412 123.212 86.7988L122.363 91.8497C123.254 94.4176 149.209 89.4091 149.209 89.4091L173.02 84.8463L181 72.0705V69.4177L177.965 68.7811L178.008 68.8023Z" fill="white"/>
<path d="M76.8622 49.936C74.6975 48.5141 72.5116 47.1346 70.2832 45.8188C65.8478 43.1661 61.3062 40.6831 56.6586 38.4123C53.7511 36.9904 50.5253 35.7595 47.8513 33.8707C73.2543 30.1144 110.775 19.8853 110.775 19.8853C110.775 19.8853 115.656 19.1 116.93 15.7257C118.203 12.3514 121.026 3.52289 120.538 0L118.543 0.360778C118.543 0.360778 117.397 2.27078 110.754 3.98978C104.112 5.68756 49.825 17.6994 49.5067 17.8055C45.7079 19.0364 37.8769 41.6381 37.3675 43.5481C37.1553 44.3333 36.646 45.5642 37.2614 46.2645C39.7232 49.1295 43.2461 50.5514 46.578 52.1431C50.5041 54.0106 54.3665 56.0055 58.1441 58.149C61.8368 60.2288 65.4658 62.4147 69.0099 64.7703C69.6253 65.1735 70.4106 65.598 70.6865 66.3195C70.6865 66.3195 70.5591 66.5742 70.4742 66.7228C69.3919 68.4842 67.2484 71.7312 66.3571 73.6412C62.1551 70.7974 57.3377 67.4868 57.3377 67.4868L45.6867 83.552L52.0958 87.5843L49.3793 88.6454L45.7503 86.4382C45.7503 86.4382 25.1435 93.3779 14.1716 91.9348C3.17846 90.4917 5.81003 80.3475 5.81003 80.3475L3.17846 81.9179C-1.46922 91.6801 -2.27566 105.241 9.48147 108.828C21.2386 112.414 33.1443 102.249 33.1443 102.249C33.1443 102.249 41.421 96.2005 49.7613 96.1368C58.1229 96.0732 64.8503 100.509 64.8503 100.509L77.9233 82.597L77.8596 79.7108C77.8596 79.7108 74.5277 78.9256 72.1084 77.4825C71.5778 77.1641 70.5803 76.5062 69.3495 75.6998C73.3817 70.1395 76.6075 63.3272 78.3689 56.7059C78.6872 55.475 79.3027 53.6711 78.9631 52.3765C78.666 51.2517 77.7535 50.5726 76.8409 49.9784L76.8622 49.936Z" fill="white"/>
<path d="M135.351 39.7915C145.113 37.8178 154.79 35.547 164.404 33.0004C165.974 32.5759 167.46 30.4749 168.372 29.244C168.585 28.9681 170.473 25.9333 169.518 26.188C159.905 28.7347 150.227 31.0055 140.465 32.9791C138.916 33.2975 137.346 35.5682 136.497 36.7355C136.284 37.0326 134.353 40.0037 135.351 39.7915Z" fill="white"/>
</svg>
