<svg width="42" height="41" viewBox="0 0 42 41" fill="none" xmlns="http://www.w3.org/2000/svg">
<path fill-rule="evenodd" clip-rule="evenodd" d="M10.4084 20.669C10.4084 14.9217 15.0674 10.2627 20.8148 10.2627C26.562 10.2627 31.221 14.9217 31.221 20.669C31.221 26.4162 26.562 31.0753 20.8148 31.0753C15.0674 31.0753 10.4084 26.4162 10.4084 20.669ZM20.8147 27.4239C17.084 27.4239 14.0597 24.3996 14.0597 20.669C14.0597 16.9383 17.084 13.914 20.8147 13.914C24.5454 13.914 27.5697 16.9383 27.5697 20.669C27.5697 24.3996 24.5454 27.4239 20.8147 27.4239Z" fill="white"/>
<path fill-rule="evenodd" clip-rule="evenodd" d="M10.4084 20.669C10.4084 14.9217 15.0674 10.2627 20.8148 10.2627C26.562 10.2627 31.221 14.9217 31.221 20.669C31.221 26.4162 26.562 31.0753 20.8148 31.0753C15.0674 31.0753 10.4084 26.4162 10.4084 20.669ZM20.8147 27.4239C17.084 27.4239 14.0597 24.3996 14.0597 20.669C14.0597 16.9383 17.084 13.914 20.8147 13.914C24.5454 13.914 27.5697 16.9383 27.5697 20.669C27.5697 24.3996 24.5454 27.4239 20.8147 27.4239Z" fill="white"/>
<path d="M31.6321 12.2833C32.9752 12.2833 34.064 11.1946 34.064 9.85153C34.064 8.50847 32.9752 7.41969 31.6321 7.41969C30.2892 7.41969 29.2004 8.50847 29.2004 9.85153C29.2004 11.1946 30.2892 12.2833 31.6321 12.2833Z" fill="white"/>
<path d="M31.6321 12.2833C32.9752 12.2833 34.064 11.1946 34.064 9.85153C34.064 8.50847 32.9752 7.41969 31.6321 7.41969C30.2892 7.41969 29.2004 8.50847 29.2004 9.85153C29.2004 11.1946 30.2892 12.2833 31.6321 12.2833Z" fill="white"/>
<path fill-rule="evenodd" clip-rule="evenodd" d="M20.8148 0.404053C15.3111 0.404053 14.621 0.427381 12.4595 0.526002C10.3026 0.624382 8.82942 0.966983 7.54043 1.46797C6.20783 1.98578 5.0777 2.6787 3.95104 3.80529C2.82445 4.93195 2.13153 6.06208 1.61373 7.39467C1.11274 8.68367 0.770134 10.1568 0.671754 12.3138C0.573133 14.4752 0.549805 15.1653 0.549805 20.669C0.549805 26.1726 0.573133 26.8627 0.671754 29.0241C0.770134 31.1811 1.11274 32.6542 1.61373 33.9432C2.13153 35.2758 2.82445 36.406 3.95104 37.5326C5.0777 38.6592 6.20783 39.3521 7.54043 39.87C8.82942 40.3709 10.3026 40.7135 12.4595 40.8119C14.621 40.9105 15.3111 40.9339 20.8148 40.9339C26.3183 40.9339 27.0084 40.9105 29.1699 40.8119C31.3269 40.7135 32.8 40.3709 34.089 39.87C35.4216 39.3521 36.5517 38.6592 37.6784 37.5326C38.805 36.406 39.4979 35.2758 40.0158 33.9432C40.5167 32.6542 40.8593 31.1811 40.9577 29.0241C41.0563 26.8627 41.0796 26.1726 41.0796 20.669C41.0796 15.1653 41.0563 14.4752 40.9577 12.3138C40.8593 10.1568 40.5167 8.68367 40.0158 7.39467C39.4979 6.06208 38.805 4.93195 37.6784 3.80529C36.5517 2.6787 35.4216 1.98578 34.089 1.46797C32.8 0.966983 31.3269 0.624382 29.1699 0.526002C27.0084 0.427381 26.3183 0.404053 20.8148 0.404053ZM20.8148 4.05538C26.2257 4.05538 26.8666 4.07605 29.0035 4.17355C30.9793 4.26364 32.0523 4.59378 32.7664 4.8713C33.7123 5.23892 34.3874 5.67805 35.0964 6.38722C35.8056 7.09632 36.2448 7.77138 36.6124 8.7173C36.8899 9.43138 37.22 10.5044 37.3101 12.4802C37.4076 14.617 37.4283 15.258 37.4283 20.669C37.4283 26.0799 37.4076 26.7209 37.3101 28.8577C37.22 30.8335 36.8899 31.9065 36.6124 32.6206C36.2448 33.5665 35.8056 34.2416 35.0964 34.9507C34.3874 35.6599 33.7123 36.099 32.7664 36.4666C32.0523 36.7441 30.9793 37.0743 29.0035 37.1644C26.8669 37.2619 26.2261 37.2825 20.8148 37.2825C15.4034 37.2825 14.7626 37.2619 12.626 37.1644C10.6501 37.0743 9.57713 36.7441 8.86305 36.4666C7.91714 36.099 7.24207 35.6599 6.53298 34.9507C5.82389 34.2416 5.38468 33.5665 5.01706 32.6206C4.73953 31.9065 4.4094 30.8335 4.31931 28.8577C4.22181 26.7209 4.20114 26.0799 4.20114 20.669C4.20114 15.258 4.22181 14.617 4.31931 12.4802C4.4094 10.5044 4.73953 9.43138 5.01706 8.7173C5.38468 7.77138 5.82381 7.09632 6.53298 6.38722C7.24207 5.67805 7.91714 5.23892 8.86305 4.8713C9.57713 4.59378 10.6501 4.26364 12.626 4.17355C14.7628 4.07605 15.4038 4.05538 20.8148 4.05538Z" fill="white"/>
<path fill-rule="evenodd" clip-rule="evenodd" d="M20.8148 0.404053C15.3111 0.404053 14.621 0.427381 12.4595 0.526002C10.3026 0.624382 8.82942 0.966983 7.54043 1.46797C6.20783 1.98578 5.0777 2.6787 3.95104 3.80529C2.82445 4.93195 2.13153 6.06208 1.61373 7.39467C1.11274 8.68367 0.770134 10.1568 0.671754 12.3138C0.573133 14.4752 0.549805 15.1653 0.549805 20.669C0.549805 26.1726 0.573133 26.8627 0.671754 29.0241C0.770134 31.1811 1.11274 32.6542 1.61373 33.9432C2.13153 35.2758 2.82445 36.406 3.95104 37.5326C5.0777 38.6592 6.20783 39.3521 7.54043 39.87C8.82942 40.3709 10.3026 40.7135 12.4595 40.8119C14.621 40.9105 15.3111 40.9339 20.8148 40.9339C26.3183 40.9339 27.0084 40.9105 29.1699 40.8119C31.3269 40.7135 32.8 40.3709 34.089 39.87C35.4216 39.3521 36.5517 38.6592 37.6784 37.5326C38.805 36.406 39.4979 35.2758 40.0158 33.9432C40.5167 32.6542 40.8593 31.1811 40.9577 29.0241C41.0563 26.8627 41.0796 26.1726 41.0796 20.669C41.0796 15.1653 41.0563 14.4752 40.9577 12.3138C40.8593 10.1568 40.5167 8.68367 40.0158 7.39467C39.4979 6.06208 38.805 4.93195 37.6784 3.80529C36.5517 2.6787 35.4216 1.98578 34.089 1.46797C32.8 0.966983 31.3269 0.624382 29.1699 0.526002C27.0084 0.427381 26.3183 0.404053 20.8148 0.404053ZM20.8148 4.05538C26.2257 4.05538 26.8666 4.07605 29.0035 4.17355C30.9793 4.26364 32.0523 4.59378 32.7664 4.8713C33.7123 5.23892 34.3874 5.67805 35.0964 6.38722C35.8056 7.09632 36.2448 7.77138 36.6124 8.7173C36.8899 9.43138 37.22 10.5044 37.3101 12.4802C37.4076 14.617 37.4283 15.258 37.4283 20.669C37.4283 26.0799 37.4076 26.7209 37.3101 28.8577C37.22 30.8335 36.8899 31.9065 36.6124 32.6206C36.2448 33.5665 35.8056 34.2416 35.0964 34.9507C34.3874 35.6599 33.7123 36.099 32.7664 36.4666C32.0523 36.7441 30.9793 37.0743 29.0035 37.1644C26.8669 37.2619 26.2261 37.2825 20.8148 37.2825C15.4034 37.2825 14.7626 37.2619 12.626 37.1644C10.6501 37.0743 9.57713 36.7441 8.86305 36.4666C7.91714 36.099 7.24207 35.6599 6.53298 34.9507C5.82389 34.2416 5.38468 33.5665 5.01706 32.6206C4.73953 31.9065 4.4094 30.8335 4.31931 28.8577C4.22181 26.7209 4.20114 26.0799 4.20114 20.669C4.20114 15.258 4.22181 14.617 4.31931 12.4802C4.4094 10.5044 4.73953 9.43138 5.01706 8.7173C5.38468 7.77138 5.82381 7.09632 6.53298 6.38722C7.24207 5.67805 7.91714 5.23892 8.86305 4.8713C9.57713 4.59378 10.6501 4.26364 12.626 4.17355C14.7628 4.07605 15.4038 4.05538 20.8148 4.05538Z" fill="white"/>
</svg>
