<svg width="40" height="39" viewBox="0 0 40 39" fill="none" xmlns="http://www.w3.org/2000/svg">
<path d="M36.6932 0.20821H2.92428C1.32829 0.190608 0.0194782 1.44 0 2.99974V36.1388C0.0188113 37.6993 1.32752 38.95 2.92428 38.9336H36.6932C38.2932 38.953 39.607 37.7024 39.6291 36.1388V2.99735C39.6063 1.43453 38.2924 0.185207 36.6932 0.205568" fill="white"/>
<path d="M27.894 33.2043H33.7658L33.7683 23.0664C33.7683 18.0894 32.671 14.2638 26.7197 14.2638C24.4445 14.1812 22.3074 15.3284 21.158 17.249H21.0791V14.7235H15.4421V33.2037H21.3139V24.0616C21.3139 21.6509 21.7818 19.316 24.8401 19.316C27.8549 19.316 27.894 22.0747 27.894 24.2176V33.2043Z" fill="#104C65"/>
<path d="M5.40869 8.86782C5.40903 10.707 6.93488 12.1977 8.81678 12.1973C9.7205 12.1972 10.5871 11.8462 11.2261 11.2215C11.865 10.5969 12.2238 9.74982 12.2236 8.86662C12.2233 7.02745 10.6975 5.53678 8.81556 5.53711C6.93366 5.53744 5.40835 7.02865 5.40869 8.86782Z" fill="#104C65"/>
<path d="M5.87477 33.2043H11.7527V14.7235H5.87477V33.2043Z" fill="#104C65"/>
</svg>
