<svg width="259" height="264" viewBox="0 0 259 264" fill="none" xmlns="http://www.w3.org/2000/svg">
<path d="M34.2174 182.177H36.829C37.1935 182.177 37.4971 182.48 37.4971 182.845V191.53H48.2474V182.845C48.2474 182.48 48.551 182.177 48.9155 182.177H51.5271C51.8915 182.177 52.1951 182.48 52.1951 182.845V204.041C52.1951 204.406 51.8915 204.709 51.5271 204.709H48.9155C48.551 204.709 48.2474 204.406 48.2474 204.041V195.204H37.4971V204.041C37.4971 204.406 37.1935 204.709 36.829 204.709H34.2174C33.853 204.709 33.5493 204.406 33.5493 204.041V182.845C33.5493 182.48 33.853 182.177 34.2174 182.177Z" fill="white"/>
<path d="M71.3874 182.177H74.1813C74.4546 182.177 74.6975 182.328 74.7886 182.571L84.1115 203.92C84.2938 204.375 83.9901 204.861 83.5042 204.861H80.8015C80.5282 204.861 80.2852 204.709 80.1637 204.436L78.2202 199.82C78.1291 199.577 77.8557 199.395 77.5824 199.395H67.804C67.5307 199.395 67.2878 199.547 67.1663 199.82L65.1924 204.436C65.0709 204.679 64.828 204.861 64.5547 204.861H61.9734C61.4875 204.861 61.1535 204.375 61.366 203.92L70.689 182.571C70.8105 182.328 71.0534 182.177 71.2963 182.177H71.3874ZM76.6107 195.933L72.7236 186.914L68.8669 195.933H76.641H76.6107Z" fill="white"/>
<path d="M96.4713 195.66L88.3023 183.209C87.9987 182.753 88.3023 182.146 88.8793 182.146H91.9465C92.1894 182.146 92.402 182.268 92.5235 182.45L98.597 192.076L104.792 182.419C104.914 182.237 105.126 182.116 105.369 182.116H108.284C108.831 182.116 109.135 182.723 108.861 183.179L100.723 195.508C100.723 195.508 100.601 195.751 100.601 195.872V203.981C100.601 204.345 100.298 204.649 99.9332 204.649H97.2912C96.9268 204.649 96.6231 204.345 96.6231 203.981V195.963C96.6231 195.963 96.5928 195.69 96.5016 195.599L96.4713 195.66Z" fill="white"/>
<path d="M122.982 182.177H125.776C126.049 182.177 126.292 182.328 126.383 182.571L135.706 203.92C135.888 204.375 135.585 204.861 135.099 204.861H132.396C132.123 204.861 131.88 204.709 131.758 204.436L129.815 199.82C129.724 199.577 129.45 199.395 129.177 199.395H119.399C119.125 199.395 118.883 199.547 118.761 199.82L116.787 204.436C116.666 204.679 116.423 204.861 116.149 204.861H113.568C113.082 204.861 112.748 204.375 112.961 203.92L122.284 182.571C122.405 182.328 122.648 182.177 122.891 182.177H122.982ZM128.205 195.933L124.318 186.914L120.462 195.933H128.236H128.205Z" fill="white"/>
<path d="M145.88 182.177H148.492C148.856 182.177 149.16 182.48 149.16 182.845V193.504L159.667 182.389C159.667 182.389 159.971 182.177 160.153 182.177H163.19C163.797 182.177 164.101 182.905 163.676 183.33L155.385 191.894L164.374 203.677C164.708 204.132 164.374 204.77 163.827 204.77H160.7C160.487 204.77 160.274 204.679 160.153 204.497L152.652 194.627L149.342 198.028C149.342 198.028 149.16 198.332 149.16 198.514V204.102C149.16 204.466 148.856 204.77 148.492 204.77H145.88C145.516 204.77 145.212 204.466 145.212 204.102V182.905C145.212 182.541 145.516 182.237 145.88 182.237V182.177Z" fill="white"/>
<path d="M173.028 195.144V182.845C173.028 182.48 173.332 182.177 173.696 182.177H176.308C176.672 182.177 176.976 182.48 176.976 182.845V194.992C176.976 199.182 179.132 201.399 182.685 201.399C186.238 201.399 188.364 199.304 188.364 195.144V182.845C188.364 182.48 188.668 182.177 189.032 182.177H191.644C192.008 182.177 192.312 182.48 192.312 182.845V194.961C192.312 201.703 188.516 205.074 182.625 205.074C176.733 205.074 173.028 201.703 173.028 195.144Z" fill="white"/>
<path d="M204.004 182.177H207.192C207.435 182.177 207.648 182.298 207.769 182.48L214.42 192.836L221.071 182.48C221.192 182.298 221.405 182.177 221.648 182.177H224.836C225.201 182.177 225.504 182.48 225.504 182.845V204.041C225.504 204.406 225.201 204.709 224.836 204.709H222.225C221.86 204.709 221.556 204.406 221.556 204.041V188.554L214.45 199.182H214.329L207.284 188.614V204.041C207.284 204.406 206.98 204.709 206.615 204.709H204.065C203.7 204.709 203.396 204.406 203.396 204.041V182.845C203.396 182.48 203.7 182.177 204.065 182.177H204.004Z" fill="white"/>
<path d="M13.2335 239.815C13.2335 238.812 12.6262 238.6 12.1099 238.6C11.5937 238.6 10.9863 238.812 10.9863 239.815C10.9863 240.604 11.3811 241.029 12.1099 241.029C12.8388 241.029 13.2335 240.604 13.2335 239.815Z" fill="white"/>
<path d="M27.7491 238.479C26.9899 238.479 26.6255 238.904 26.6255 239.693C26.6255 240.483 27.0203 240.908 27.7491 240.908C28.478 240.908 28.8727 240.483 28.8727 239.693C28.8727 238.691 28.2654 238.479 27.7491 238.479Z" fill="white"/>
<path d="M25.988 239.693C25.988 238.904 25.5931 238.479 24.8643 238.479C24.3481 238.479 23.7407 238.691 23.7407 239.693C23.7407 240.483 24.1355 240.908 24.8643 240.908C25.5931 240.908 25.988 240.483 25.988 239.693Z" fill="white"/>
<path d="M42.2347 235.381C41.6274 234.804 41.1719 233.498 40.8682 231.464C40.6252 229.945 40.1697 228.852 39.532 228.245C38.8943 227.637 37.9833 227.333 36.8597 227.333C35.5235 227.333 34.3391 227.668 33.337 228.305L33.2155 228.366L34.0051 229.915L34.1265 229.854C35.0983 229.368 35.979 229.125 36.7989 229.125C37.467 229.125 37.9529 229.307 38.2565 229.702C38.5906 230.097 38.8639 230.856 39.0461 231.949C39.3195 233.559 39.6535 234.622 40.0786 235.259H30.5127C29.9965 235.259 29.5714 235.108 29.2373 234.804C28.9336 234.5 28.7818 234.106 28.7818 233.589V227.546H26.8079V235.259H21.6454C21.1291 235.259 20.704 235.108 20.3699 234.804C20.0662 234.5 19.884 234.106 19.884 233.589V227.546H17.9709V235.259H6.94735C6.46146 235.259 6.06669 235.077 5.76301 234.652C5.45933 234.257 5.30749 233.711 5.30749 233.073C5.30749 232.192 5.3986 231.312 5.58081 230.401V230.218H3.81947V230.31C3.45506 231.221 3.30322 232.192 3.30322 233.225C3.30322 234.379 3.63727 235.32 4.30537 236.019C4.97346 236.717 5.88449 237.051 7.0081 237.051H19.884V236.292C20.3092 236.778 20.9773 237.051 21.858 237.051H28.7515V236.292C29.1766 236.778 29.8447 237.051 30.7253 237.051H42.2347V235.381Z" fill="white"/>
<path d="M57.5093 225.876C58.2382 225.876 58.633 225.451 58.633 224.661C58.633 223.659 58.0256 223.446 57.5093 223.446C56.7501 223.446 56.3857 223.871 56.3857 224.661C56.3857 225.451 56.7805 225.876 57.5093 225.876Z" fill="white"/>
<path d="M54.5943 225.876C55.3535 225.876 55.7179 225.451 55.7179 224.661C55.7179 223.871 55.3231 223.446 54.5943 223.446C54.078 223.446 53.4707 223.659 53.4707 224.661C53.4707 225.451 53.8655 225.876 54.5943 225.876Z" fill="white"/>
<path d="M66.8933 222.323H64.9193V235.259H58.9065C58.3599 235.259 57.9651 235.108 57.6311 234.804C57.3274 234.5 57.1756 234.105 57.1756 233.589V227.546H55.2016V235.259H49.5836C49.0674 235.259 48.6422 235.108 48.3081 234.804C48.0045 234.5 47.8223 234.105 47.8223 233.589V227.546H45.9395V237.446C45.9395 238.175 45.7876 238.752 45.484 239.207C45.1803 239.632 44.7855 239.845 44.2693 239.845C43.6619 239.845 43.0849 239.663 42.5686 239.268L42.4472 239.177L41.5361 240.574L41.6272 240.665C42.3864 241.303 43.2975 241.606 44.2996 241.606C45.4232 241.606 46.3039 241.212 46.9112 240.452C47.5186 239.693 47.8223 238.661 47.8223 237.355V236.292C48.1563 236.687 48.6726 236.93 49.3407 236.99L57.1452 237.021V236.262C57.5703 236.747 58.2385 237.021 59.1191 237.021H66.8325V222.323H66.8933Z" fill="white"/>
<path d="M71.8128 222.323H69.8389V237.021H71.8128V222.323Z" fill="white"/>
<path d="M82.2598 227.546H79.6178C78.0387 227.546 76.7328 228.002 75.7611 228.882C74.7893 229.763 74.273 231.008 74.273 232.557C74.273 233.984 74.6678 235.108 75.427 235.867C76.1862 236.626 77.2794 237.021 78.646 237.021H80.3466V237.416C80.3466 238.145 80.1037 238.721 79.6481 239.147C79.1926 239.572 78.5549 239.784 77.7349 239.784C76.915 239.784 76.0647 239.541 75.1233 239.056L75.0019 238.995L74.0908 240.513L74.2123 240.604C75.2448 241.272 76.3988 241.606 77.7046 241.606C79.1319 241.606 80.2555 241.242 81.045 240.483C81.8346 239.724 82.2294 238.691 82.2294 237.355V227.546H82.2598ZM80.3466 235.26H78.7067C77.0669 235.26 76.247 234.379 76.247 232.557C76.247 231.555 76.5506 230.735 77.1276 230.188C77.7046 229.611 78.5853 229.338 79.6481 229.338H80.3162V235.29L80.3466 235.26Z" fill="white"/>
<path d="M99.9331 236.808V222.323H98.0199V236.93C98.0199 238.873 97.0178 239.815 94.9832 239.815H94.0418C93.3129 239.815 92.7359 239.541 92.3411 238.995C91.916 238.448 91.7338 237.628 91.7338 236.596C91.7338 234.804 91.9464 233.316 92.3715 232.162L92.4322 231.98H90.5494V232.071C90.0028 233.377 89.7295 234.895 89.7295 236.596C89.7295 238.144 90.0939 239.389 90.7924 240.27C91.5212 241.151 92.493 241.606 93.6773 241.606H95.0439C98.2628 241.606 99.9027 239.997 99.9027 236.839L99.9331 236.808Z" fill="white"/>
<path d="M118.064 239.359C118.064 238.357 117.456 238.145 116.94 238.145C116.424 238.145 115.816 238.357 115.816 239.359C115.816 240.149 116.211 240.574 116.94 240.574C117.669 240.574 118.064 240.149 118.064 239.359Z" fill="white"/>
<path d="M131.212 226.089C131.972 226.089 132.336 225.663 132.336 224.874C132.336 224.084 131.941 223.659 131.212 223.659C130.696 223.659 130.089 223.872 130.089 224.874C130.089 225.663 130.484 226.089 131.212 226.089Z" fill="white"/>
<path d="M128.327 226.089C129.056 226.089 129.451 225.663 129.451 224.874C129.451 223.872 128.843 223.659 128.327 223.659C127.598 223.659 127.204 224.084 127.204 224.874C127.204 225.663 127.598 226.089 128.327 226.089Z" fill="white"/>
<path d="M139.594 226.089C140.353 226.089 140.717 225.663 140.717 224.874C140.717 224.084 140.323 223.659 139.594 223.659C139.078 223.659 138.47 223.872 138.47 224.874C138.47 225.663 138.865 226.089 139.594 226.089Z" fill="white"/>
<path d="M142.509 226.089C143.238 226.089 143.632 225.663 143.632 224.874C143.632 223.872 143.025 223.659 142.509 223.659C141.75 223.659 141.385 224.084 141.385 224.874C141.385 225.663 141.78 226.089 142.509 226.089Z" fill="white"/>
<path d="M157.359 236.292C157.784 236.778 158.452 237.021 159.333 237.021H162.218V227.516H160.305V235.229H159.272C158.695 235.229 158.24 235.047 157.875 234.683C157.511 234.318 157.329 233.863 157.329 233.255V228.973H155.416V235.229H154.383C153.806 235.229 153.351 235.047 152.986 234.683C152.622 234.318 152.44 233.863 152.44 233.255V228.973H150.526V235.229H143.845C143.329 235.229 142.904 235.077 142.57 234.774C142.266 234.47 142.114 234.075 142.114 233.559V227.516H140.141V235.229H132.852V227.516H130.21C128.601 227.516 127.295 227.971 126.323 228.852C125.351 229.733 124.866 230.978 124.866 232.526C124.866 233.62 125.139 234.531 125.686 235.229H119.46C118.913 235.229 118.519 235.077 118.185 234.774C117.881 234.47 117.729 234.075 117.729 233.559V227.516H115.755V235.229H104.732V222.292H102.758V236.991H117.729V236.231C118.154 236.717 118.822 236.991 119.703 236.991H142.084V236.231C142.509 236.717 143.177 236.991 144.058 236.991H152.379V236.262C152.804 236.748 153.472 236.991 154.353 236.991H157.238V236.262L157.359 236.292ZM131.03 229.307V235.26H129.39C127.751 235.26 126.931 234.379 126.931 232.557C126.931 231.555 127.234 230.735 127.811 230.188C128.419 229.611 129.269 229.338 130.332 229.338H131L131.03 229.307Z" fill="white"/>
<path d="M173.909 236.049C174.577 235.381 174.912 234.5 174.912 233.437V222.323H172.938V233.194C172.938 234.561 172.33 235.259 171.085 235.259H170.69L168.231 224.874H166.166L168.625 235.259H164.404V237.021H171.267C172.361 237.021 173.272 236.687 173.94 236.019L173.909 236.049Z" fill="white"/>
<path d="M179.831 222.323H177.857V237.021H179.831V222.323Z" fill="white"/>
<path d="M195.228 226.089C195.957 226.089 196.352 225.663 196.352 224.874C196.352 223.872 195.744 223.659 195.228 223.659C194.469 223.659 194.104 224.084 194.104 224.874C194.104 225.663 194.499 226.089 195.228 226.089Z" fill="white"/>
<path d="M192.312 226.089C193.041 226.089 193.436 225.663 193.436 224.874C193.436 224.084 193.041 223.659 192.312 223.659C191.796 223.659 191.188 223.872 191.188 224.874C191.188 225.663 191.583 226.089 192.312 226.089Z" fill="white"/>
<path d="M191.007 237.051H199.51V227.546H197.597V235.26H190.946C190.46 235.26 190.066 235.077 189.762 234.652C189.458 234.257 189.307 233.711 189.307 233.073C189.307 232.192 189.398 231.312 189.58 230.401V230.219H187.818V230.31C187.454 231.221 187.302 232.192 187.302 233.225C187.302 234.379 187.636 235.32 188.304 236.019C188.972 236.717 189.884 237.051 191.007 237.051Z" fill="white"/>
<path d="M223.743 232.071C223.743 230.613 223.318 229.429 222.498 228.609C221.678 227.789 220.585 227.364 219.279 227.364C217.973 227.364 216.789 227.85 215.939 228.852C215.089 229.824 214.663 231.099 214.663 232.618C214.663 233.711 214.846 234.592 215.18 235.29H204.429V222.353H202.456V237.051H218.52C220.008 237.051 221.284 236.596 222.255 235.745C223.257 234.865 223.743 233.65 223.743 232.101V232.071ZM217.397 230.036C217.882 229.399 218.52 229.095 219.279 229.095C220.039 229.095 220.615 229.368 221.071 229.884C221.527 230.401 221.769 231.13 221.769 232.041C221.769 232.952 221.466 233.772 220.889 234.349C220.281 234.956 219.522 235.26 218.551 235.26H217.275C216.88 234.683 216.668 233.772 216.668 232.587C216.668 231.524 216.911 230.674 217.427 230.036H217.397Z" fill="white"/>
<path d="M242.631 226.089C243.36 226.089 243.755 225.663 243.755 224.874C243.755 223.872 243.148 223.659 242.631 223.659C242.115 223.659 241.508 223.872 241.508 224.874C241.508 225.663 241.903 226.089 242.631 226.089Z" fill="white"/>
<path d="M256.692 237.051V222.353H254.718V235.29H248.098C247.521 234.683 247.096 233.407 246.823 231.494C246.58 229.976 246.124 228.882 245.487 228.275C244.849 227.668 243.938 227.364 242.814 227.364C241.478 227.364 240.294 227.698 239.291 228.336L239.17 228.396L239.96 229.945L240.081 229.884C241.053 229.399 241.933 229.156 242.753 229.156C243.422 229.156 243.907 229.338 244.211 229.733C244.545 230.127 244.818 230.887 245.001 231.98C245.274 233.589 245.608 234.652 246.033 235.29H234.949C234.463 235.29 234.008 235.108 233.613 234.743C233.188 234.379 232.914 233.984 232.823 233.529C231.912 230.067 230.333 227.85 228.086 226.969L227.964 226.908L227.236 228.609L227.357 228.67C229.301 229.581 230.637 231.798 231.274 235.26H224.988V237.021H233.218V236.231C233.613 236.687 234.129 236.93 234.736 236.991H256.692V237.051Z" fill="white"/>
<path d="M9.16392 257.367L5.09463 251.263H3.24219V263.623H5.2161V254.938L8.8906 260.343L8.95135 260.404H9.3765L13.1117 254.907V263.623H15.0856V251.263H13.2332L9.16392 257.367Z" fill="white"/>
<path d="M20.9466 258.339H27.3238V256.456H20.9466V253.146H28.0526V251.263H18.9727V263.623H28.1437V261.74H20.9466V258.339Z" fill="white"/>
<path d="M33.7313 258.339H40.1085V256.456H33.7313V253.146H40.8373V251.263H31.7573V263.623H40.9284V261.74H33.7313V258.339Z" fill="white"/>
<path d="M44.2085 253.146H48.1259V263.623H50.1302V253.146H54.0476V251.263H44.2085V253.146Z" fill="white"/>
<path d="M72.4201 257.853L72.572 257.549L70.8714 256.76L70.7499 257.064C70.3855 257.884 70.0211 258.643 69.5959 259.28L67.5613 257.215C69.2012 256.517 70.0514 255.424 70.0514 254.027C70.0514 252.357 68.6545 251.051 66.8932 251.051C64.9193 251.051 63.4616 252.357 63.4616 254.179C63.4616 255.029 63.735 255.727 64.4334 256.608C62.7328 257.398 61.8218 258.612 61.8218 260.131C61.8218 262.226 63.492 263.745 65.8303 263.745C67.2576 263.745 68.5027 263.198 69.6566 262.074L71.4484 263.927L72.9971 262.742L70.9017 260.586C71.418 259.888 71.8735 259.038 72.4505 257.823L72.4201 257.853ZM65.6178 257.975L68.3508 260.799C67.5613 261.588 66.7414 261.983 65.8911 261.983C64.646 261.983 63.7957 261.194 63.7957 260.07C63.7957 259.189 64.4334 258.43 65.6178 257.975ZM65.4052 254.148C65.4052 253.359 66.0125 252.812 66.8324 252.812C67.5916 252.812 68.1382 253.359 68.1382 254.118C68.1382 254.877 67.5309 255.484 66.3162 255.94C65.6177 255.15 65.3748 254.725 65.3748 254.148H65.4052Z" fill="white"/>
<path d="M87.1181 258.552H90.6712V260.951C89.8512 261.588 88.7276 261.953 87.6344 261.953C85.0835 261.953 83.3525 260.131 83.3525 257.398C83.3525 254.908 85.1442 252.934 87.4521 252.934C89.1224 252.934 90.0334 253.541 90.7926 254.179L91.0356 254.391L92.311 252.873L92.0681 252.66C90.7015 251.506 89.3653 251.021 87.5129 251.021C84.051 251.021 81.3179 253.814 81.3179 257.428C81.3179 261.042 83.8991 263.775 87.5736 263.775C90.0334 263.775 91.7036 262.591 92.4932 261.892L92.6147 261.801V256.669H87.1181V258.521V258.552Z" fill="white"/>
<path d="M106.28 255.059C106.28 254.057 105.915 253.176 105.278 252.508C104.458 251.688 103.213 251.233 101.725 251.233H96.3799V263.562H98.3538V259.037H101.178L104.518 263.501V263.562H107.009L103.334 258.673C105.156 258.157 106.249 256.821 106.249 255.029L106.28 255.059ZM104.276 255.15C104.276 256.395 103.243 257.215 101.603 257.215H98.3538V253.146H101.634C103.334 253.146 104.276 253.845 104.276 255.15Z" fill="white"/>
<path d="M112.232 258.339H118.609V256.456H112.232V253.146H119.369V251.263H110.258V263.623H119.429V261.74H112.232V258.339Z" fill="white"/>
<path d="M125.23 258.339H131.607V256.456H125.23V253.146H132.366V251.263H123.256V263.623H132.427V261.74H125.23V258.339Z" fill="white"/>
<path d="M135.737 253.146H139.655V263.623H141.659V253.146H145.576V251.263H135.737V253.146Z" fill="white"/>
<path d="M161.246 256.487C158.786 255.97 158.331 255.424 158.331 254.513C158.331 253.602 159.211 252.964 160.487 252.964C161.641 252.964 162.643 253.328 163.645 254.148L163.918 254.361L165.103 252.812L164.86 252.599C163.554 251.537 162.248 251.081 160.547 251.081C158.118 251.081 156.387 252.569 156.387 254.634C156.387 256.942 158.057 257.792 160.578 258.339C162.916 258.825 163.341 259.341 163.341 260.252C163.341 261.224 162.4 261.892 161.064 261.892C159.606 261.892 158.513 261.436 157.298 260.313L157.055 260.07L155.81 261.558L156.053 261.771C157.541 263.107 159.12 263.714 161.033 263.714C163.584 263.714 165.346 262.196 165.346 260.04C165.346 258.126 164.131 257.033 161.276 256.395L161.246 256.487Z" fill="white"/>
<path d="M172.026 258.339H178.404V256.456H172.026V253.146H179.132V251.263H170.022V263.623H179.223V261.74H172.026V258.339Z" fill="white"/>
<path d="M193.8 255.059C193.8 254.057 193.436 253.176 192.798 252.508C191.978 251.688 190.733 251.233 189.245 251.233H183.9V263.562H185.905V259.037H188.729L192.069 263.501V263.562H194.559L190.885 258.673C192.707 258.157 193.8 256.821 193.8 255.029V255.059ZM191.796 255.15C191.796 256.395 190.764 257.215 189.124 257.215H185.874V253.146H189.154C190.855 253.146 191.796 253.845 191.796 255.15Z" fill="white"/>
<path d="M203.275 260.768L199.419 251.476L199.358 251.263H197.141L202.425 263.593L202.455 263.684H204.065L209.167 251.749L209.349 251.263H207.223L203.275 260.768Z" fill="white"/>
<path d="M215.483 251.263H213.479V263.593H215.483V251.263Z" fill="white"/>
<path d="M229.361 260.343C228.359 261.285 227.387 261.922 225.839 261.922C223.5 261.922 221.648 259.949 221.648 257.398C221.648 254.847 223.44 252.934 225.839 252.934C227.144 252.934 228.147 253.389 229.27 254.452L229.513 254.695L230.88 253.237L230.637 252.994C229.574 251.992 228.238 251.051 225.869 251.051C222.377 251.051 219.644 253.845 219.644 257.458C219.644 261.072 222.316 263.805 225.839 263.805C228.298 263.805 229.695 262.712 230.758 261.649L231.001 261.406L229.665 260.1L229.422 260.313L229.361 260.343Z" fill="white"/>
<path d="M236.983 258.339H243.33V256.456H236.983V253.146H244.089V251.263H234.979V263.623H244.18V261.74H236.983V258.339Z" fill="white"/>
<path d="M253.291 256.487C250.831 255.97 250.376 255.424 250.376 254.513C250.376 253.602 251.256 252.964 252.532 252.964C253.686 252.964 254.688 253.328 255.69 254.148L255.963 254.361L257.148 252.812L256.905 252.599C255.599 251.537 254.293 251.081 252.592 251.081C250.163 251.081 248.432 252.569 248.432 254.634C248.432 256.942 250.102 257.792 252.623 258.339C254.991 258.825 255.386 259.341 255.386 260.252C255.386 261.224 254.445 261.892 253.109 261.892C251.651 261.892 250.558 261.436 249.343 260.313L249.1 260.07L247.855 261.558L248.098 261.771C249.586 263.107 251.165 263.714 253.078 263.714C255.629 263.714 257.39 262.196 257.39 260.04C257.39 258.126 256.176 257.033 253.321 256.395L253.291 256.487Z" fill="white"/>
<path d="M156.873 136.442L148.187 145.249L139.533 136.442L124.652 151.566V152.416V153.114L139.533 167.964L148.187 159.309L156.873 167.964L171.722 153.114V152.416V151.566L156.873 136.442Z" fill="white"/>
<path d="M174.669 67.1432C170.721 67.1128 169.87 63.742 169.719 60.189C169.749 58.2758 169.719 56.3323 169.658 54.4495C169.597 53.4473 167.562 56.3323 167.471 56.4537C166.682 57.7292 165.619 59.4905 165.649 61.0696C165.71 63.2257 165.619 65.3211 165.497 67.4165C165.133 67.6898 164.769 67.9328 164.404 68.0542C162.734 68.6919 161.216 69.0867 159.91 67.5683C157.45 64.7138 158.482 58.9439 158.725 55.6338C158.847 53.9939 157.389 55.9982 157.086 56.393C156.144 57.6684 154.899 59.7334 154.778 61.3733C154.595 63.9849 154.201 66.6877 154.504 69.2993C154.656 70.757 155.081 73.8545 156.235 74.9174C158.665 77.1646 163.189 74.3707 165.133 72.6094C165.68 72.0931 166.166 71.5465 166.591 70.9999C166.712 71.2732 166.743 71.5769 166.894 71.8502C168.686 75.1603 173.575 74.6137 176.278 72.6701C178.738 70.8784 180.56 67.2343 181.137 64.3494C182.018 60.0068 179.77 55.5123 180.104 51.0786C180.226 49.4388 178.768 51.443 178.464 51.8378C177.523 53.0829 176.278 55.1783 176.157 56.8181C175.974 59.2779 176.278 61.7377 176.642 64.1671C176.794 64.9871 176.916 65.7766 177.068 66.5966C177.068 66.6573 177.068 66.6877 177.068 66.7484C176.278 66.961 175.519 67.1128 174.699 67.1432H174.669Z" fill="white"/>
<path d="M254.718 98.4522C246.944 95.9317 233.036 64.8654 219.309 65.4121C205.583 65.9587 196.898 95.2029 196.898 95.2029L202.303 97.359C202.303 97.359 207.527 86.8821 211.323 86.6999C215.119 86.5177 220.706 92.4698 220.706 92.4698L229.361 102.036C229.361 102.036 202.364 105.983 187.028 109.202L179.983 110.63L181.107 106.986L187.697 105.71C189.124 97.9056 190.338 89.0686 189.944 86.1229L187.089 86.6392C187.089 86.6392 185.449 99.0596 175.944 101.489C168.808 103.311 154.231 106.682 140.566 108.99H140.475C138.592 109.294 136.709 109.597 134.887 109.871V109.81L128.145 110.782L129.269 107.32L135.13 106.469C136.132 92.0446 138.683 53.0524 139.928 48.649C141.537 43.0917 143.117 41.543 143.117 41.543L140.444 37.9292C140.444 37.9292 127.204 49.8941 123.833 56.7876C118.154 68.3881 116.605 135.045 116.605 135.045L120.25 134.468C154.93 130.217 175.975 124.265 175.975 124.265C175.975 124.265 176.096 124.265 176.309 124.204L175.094 131.432C176.369 135.106 213.509 127.939 213.509 127.939L247.582 121.41L259 103.129V99.3329L254.658 98.4219L254.718 98.4522Z" fill="white"/>
<path d="M109.985 71.4554C106.888 69.4208 103.76 67.4469 100.571 65.5641C94.2243 61.7681 87.7256 58.2151 81.0751 54.9657C76.9147 52.9311 72.2987 51.1698 68.4724 48.467C104.823 43.0919 158.513 28.4546 158.513 28.4546C158.513 28.4546 165.498 27.331 167.32 22.5025C169.142 17.6741 173.181 5.04106 172.482 0L169.628 0.516253C169.628 0.516253 167.988 3.24936 158.483 5.70915C148.977 8.13857 71.2966 25.3267 70.8411 25.4786C65.4053 27.2399 54.1996 59.5816 53.4707 62.3147C53.1671 63.4383 52.4382 65.1997 53.3189 66.2018C56.8416 70.3015 61.8826 72.3361 66.6504 74.6137C72.2684 77.2861 77.7953 80.1406 83.2008 83.2078C88.4848 86.1838 93.6777 89.3117 98.7491 92.6825C99.6298 93.2595 100.753 93.8669 101.148 94.8994C101.148 94.8994 100.966 95.2638 100.844 95.4764C99.2957 97.9969 96.2286 102.643 94.9531 105.376C88.9403 101.307 82.0468 96.5696 82.0468 96.5696L65.3749 119.558L74.546 125.328L70.6589 126.846L65.466 123.688C65.466 123.688 35.9789 133.618 20.2787 131.553C4.54818 129.488 8.31381 114.973 8.31381 114.973L4.54818 117.22C-2.10237 131.189 -3.25634 150.594 13.5674 155.726C30.3912 160.858 47.4275 146.312 47.4275 146.312C47.4275 146.312 59.271 137.657 71.2055 137.566C83.1704 137.475 92.797 143.822 92.797 143.822L111.504 118.191L111.412 114.061C111.412 114.061 106.645 112.938 103.183 110.873C102.424 110.417 100.996 109.476 99.235 108.322C105.005 100.366 109.621 90.6175 112.141 81.1428C112.597 79.3814 113.477 76.8002 112.992 74.9477C112.566 73.3382 111.261 72.3665 109.955 71.5162L109.985 71.4554Z" fill="white"/>
<path d="M193.679 56.9396C207.648 54.1154 221.496 50.866 235.252 47.2219C237.499 46.6145 239.625 43.6081 240.931 41.8468C241.235 41.452 243.937 37.1094 242.571 37.4738C228.814 41.118 214.967 44.3673 200.997 47.1915C198.78 47.6471 196.533 50.8964 195.319 52.5666C195.015 52.9918 192.251 57.2433 193.679 56.9396Z" fill="white"/>
</svg>
