<svg width="166" height="131" viewBox="0 0 166 131" fill="none" xmlns="http://www.w3.org/2000/svg">
<path d="M21.8574 116.373H23.5257C23.7585 116.373 23.9525 116.567 23.9525 116.8V122.348H30.8197V116.8C30.8197 116.567 31.0137 116.373 31.2465 116.373H32.9148C33.1476 116.373 33.3415 116.567 33.3415 116.8V130.34C33.3415 130.573 33.1476 130.767 32.9148 130.767H31.2465C31.0137 130.767 30.8197 130.573 30.8197 130.34V124.695H23.9525V130.34C23.9525 130.573 23.7585 130.767 23.5257 130.767H21.8574C21.6247 130.767 21.4307 130.573 21.4307 130.34V116.8C21.4307 116.567 21.6247 116.373 21.8574 116.373Z" fill="white"/>
<path d="M45.6015 116.373H47.3862C47.5608 116.373 47.716 116.47 47.7741 116.625L53.7296 130.263C53.846 130.554 53.652 130.864 53.3416 130.864H51.6151C51.4405 130.864 51.2853 130.767 51.2077 130.593L49.9662 127.644C49.908 127.489 49.7334 127.372 49.5588 127.372H43.3125C43.1379 127.372 42.9827 127.469 42.9051 127.644L41.6442 130.593C41.5666 130.748 41.4114 130.864 41.2368 130.864H39.5879C39.2775 130.864 39.0641 130.554 39.1999 130.263L45.1553 116.625C45.2329 116.47 45.3881 116.373 45.5433 116.373H45.6015ZM48.9381 125.161L46.455 119.399L43.9914 125.161H48.9575H48.9381Z" fill="white"/>
<path d="M61.6253 124.986L56.4071 117.033C56.2131 116.742 56.407 116.354 56.7756 116.354H58.7349C58.8901 116.354 59.0259 116.431 59.1035 116.548L62.9832 122.697L66.9406 116.528C67.0182 116.412 67.154 116.334 67.3092 116.334H69.1714C69.5206 116.334 69.7146 116.722 69.54 117.013L64.3411 124.889C64.3411 124.889 64.2635 125.045 64.2635 125.122V130.302C64.2635 130.534 64.0695 130.728 63.8368 130.728H62.1491C61.9163 130.728 61.7223 130.534 61.7223 130.302V125.18C61.7223 125.18 61.7029 125.006 61.6447 124.948L61.6253 124.986Z" fill="white"/>
<path d="M78.56 116.373H80.3447C80.5193 116.373 80.6744 116.47 80.7326 116.625L86.6881 130.263C86.8044 130.554 86.6105 130.864 86.3001 130.864H84.5736C84.399 130.864 84.2438 130.767 84.1662 130.593L82.9247 127.644C82.8665 127.489 82.6919 127.372 82.5173 127.372H76.2709C76.0963 127.372 75.9412 127.469 75.8636 127.644L74.6026 130.593C74.525 130.748 74.3699 130.864 74.1953 130.864H72.5464C72.236 130.864 72.0226 130.554 72.1584 130.263L78.1138 116.625C78.1914 116.47 78.3466 116.373 78.5018 116.373H78.56ZM81.8966 125.161L79.4135 119.399L76.9499 125.161H81.916H81.8966Z" fill="white"/>
<path d="M93.187 116.373H94.8553C95.0881 116.373 95.2821 116.567 95.2821 116.8V123.609L101.994 116.509C101.994 116.509 102.188 116.373 102.304 116.373H104.244C104.632 116.373 104.826 116.839 104.555 117.11L99.2589 122.581L105.001 130.108C105.214 130.399 105.001 130.806 104.652 130.806H102.654C102.518 130.806 102.382 130.748 102.304 130.631L97.5129 124.327L95.3985 126.499C95.3985 126.499 95.2821 126.693 95.2821 126.81V130.379C95.2821 130.612 95.0881 130.806 94.8553 130.806H93.187C92.9542 130.806 92.7603 130.612 92.7603 130.379V116.839C92.7603 116.606 92.9542 116.412 93.187 116.412V116.373Z" fill="white"/>
<path d="M110.529 124.657V116.8C110.529 116.567 110.723 116.373 110.956 116.373H112.624C112.857 116.373 113.051 116.567 113.051 116.8V124.56C113.051 127.237 114.428 128.653 116.698 128.653C118.968 128.653 120.326 127.314 120.326 124.657V116.8C120.326 116.567 120.52 116.373 120.752 116.373H122.421C122.654 116.373 122.848 116.567 122.848 116.8V124.54C122.848 128.847 120.423 131 116.659 131C112.896 131 110.529 128.847 110.529 124.657Z" fill="white"/>
<path d="M130.316 116.373H132.353C132.508 116.373 132.644 116.451 132.721 116.567L136.97 123.182L141.218 116.567C141.295 116.451 141.431 116.373 141.586 116.373H143.623C143.856 116.373 144.05 116.567 144.05 116.8V130.34C144.05 130.573 143.856 130.767 143.623 130.767H141.955C141.722 130.767 141.528 130.573 141.528 130.34V120.447L136.989 127.237H136.911L132.411 120.486V130.34C132.411 130.573 132.217 130.767 131.984 130.767H130.355C130.122 130.767 129.928 130.573 129.928 130.34V116.8C129.928 116.567 130.122 116.373 130.355 116.373H130.316Z" fill="white"/>
<path d="M100.21 87.1587L94.6615 92.7843L89.1329 87.1587L79.6274 96.8193V97.3624V97.8086L89.1329 107.295L94.6615 101.766L100.21 107.295L109.696 97.8086V97.3624V96.8193L100.21 87.1587Z" fill="white"/>
<path d="M111.577 42.8907C109.055 42.8713 108.512 40.7181 108.415 38.4484C108.435 37.2263 108.415 35.9848 108.377 34.782C108.338 34.1419 107.038 35.9848 106.98 36.0624C106.475 36.8771 105.796 38.0022 105.816 39.011C105.855 40.3883 105.797 41.7268 105.719 43.0653C105.486 43.2399 105.253 43.3951 105.021 43.4727C103.954 43.8801 102.984 44.1322 102.15 43.1623C100.578 41.3388 101.238 37.6531 101.393 35.5386C101.471 34.4911 100.539 35.7714 100.345 36.0236C99.7441 36.8383 98.9488 38.1574 98.8712 39.205C98.7548 40.8733 98.5026 42.5997 98.6965 44.268C98.7935 45.1992 99.0651 47.1779 99.8023 47.8568C101.354 49.2923 104.245 47.5076 105.486 46.3825C105.835 46.0527 106.146 45.7035 106.417 45.3544C106.495 45.529 106.514 45.7229 106.611 45.8975C107.756 48.012 110.879 47.6628 112.605 46.4213C114.177 45.2768 115.341 42.9489 115.709 41.106C116.272 38.332 114.836 35.461 115.05 32.6288C115.127 31.5812 114.196 32.8616 114.002 33.1137C113.401 33.9091 112.605 35.2476 112.528 36.2951C112.411 37.8664 112.605 39.4377 112.838 40.9896C112.935 41.5134 113.013 42.0178 113.11 42.5415C113.11 42.5803 113.11 42.5997 113.11 42.6385C112.605 42.7743 112.121 42.8713 111.597 42.8907H111.577Z" fill="white"/>
<path d="M162.713 62.8908C157.747 61.2807 148.862 41.4357 140.094 41.7849C131.326 42.1341 125.778 60.8151 125.778 60.8151L129.231 62.1924C129.231 62.1924 132.567 55.4998 134.992 55.3834C137.417 55.2671 140.986 59.0692 140.986 59.0692L146.515 65.1798C146.515 65.1798 129.269 67.7017 119.473 69.7579L114.973 70.6697L115.69 68.3418L119.9 67.5271C120.812 62.5416 121.588 56.8966 121.335 55.0149L119.512 55.3447C119.512 55.3447 118.464 63.2787 112.393 64.8307C107.834 65.9946 98.5224 68.1478 89.7929 69.6222H89.7347C88.532 69.8161 87.3293 70.0101 86.1654 70.1847V70.1459L81.8588 70.7667L82.5766 68.5552L86.3206 68.0121C86.9607 58.7976 88.5902 33.8896 89.3856 31.0768C90.4137 27.5268 91.4224 26.5375 91.4224 26.5375L89.7154 24.229C89.7154 24.229 81.2575 31.8721 79.1042 36.2757C75.4767 43.686 74.4873 86.2663 74.4873 86.2663L76.8152 85.8977C98.9686 83.1819 112.412 79.3797 112.412 79.3797C112.412 79.3797 112.49 79.3797 112.625 79.3409L111.849 83.9579C112.664 86.3051 136.389 81.727 136.389 81.727L158.154 77.5563L165.448 65.8782V63.4533L162.674 62.8714L162.713 62.8908Z" fill="white"/>
<path d="M70.2579 45.6453C68.2793 44.3456 66.2812 43.0847 64.2443 41.882C60.19 39.4571 56.0386 37.1875 51.7903 35.1118C49.1327 33.8121 46.184 32.6869 43.7398 30.9605C66.9601 27.5269 101.257 18.1767 101.257 18.1767C101.257 18.1767 105.719 17.4589 106.883 14.3745C108.047 11.2901 110.627 3.2202 110.181 0L108.357 0.329779C108.357 0.329779 107.31 2.07567 101.238 3.64697C95.166 5.19887 45.5439 16.1786 45.2529 16.2756C41.7805 17.4007 34.6224 38.0604 34.1568 39.8063C33.9628 40.5241 33.4972 41.6492 34.0598 42.2893C36.3101 44.9082 39.5303 46.2079 42.5759 47.6628C46.1646 49.3699 49.6952 51.1934 53.1482 53.1527C56.5236 55.0537 59.8408 57.0518 63.0804 59.2051C63.6429 59.5737 64.3607 59.9616 64.6129 60.6212C64.6129 60.6212 64.4965 60.854 64.4189 60.9898C63.4296 62.5999 61.4703 65.5679 60.6555 67.3138C56.8146 64.7143 52.411 61.6881 52.411 61.6881L41.7611 76.373L47.6195 80.0588L45.1365 81.0287L41.8193 79.0112C41.8193 79.0112 22.9831 85.3546 12.9539 84.0355C2.90535 82.7164 5.31081 73.4438 5.31081 73.4438L2.90535 74.8793C-1.34298 83.8027 -2.08013 96.1985 8.66679 99.4769C19.4137 102.755 30.2964 93.4633 30.2964 93.4633C30.2964 93.4633 37.862 87.9347 45.4857 87.8765C53.1288 87.8183 59.2782 91.8726 59.2782 91.8726L71.2279 75.5L71.1697 72.8618C71.1697 72.8618 68.1241 72.1441 65.9126 70.8249C65.4276 70.534 64.5159 69.9326 63.3908 69.1954C67.0765 64.113 70.0251 57.886 71.6352 51.8335C71.9262 50.7084 72.4888 49.0595 72.1784 47.8762C71.9068 46.8481 71.0727 46.2273 70.2385 45.6841L70.2579 45.6453Z" fill="white"/>
<path d="M123.721 36.3728C132.644 34.5687 141.49 32.493 150.278 30.1652C151.713 29.7772 153.071 27.8567 153.905 26.7316C154.099 26.4794 155.826 23.7054 154.953 23.9382C146.165 26.266 137.319 28.3417 128.396 30.1458C126.98 30.4368 125.544 32.5124 124.768 33.5794C124.574 33.8509 122.809 36.5668 123.721 36.3728Z" fill="white"/>
</svg>
