<?xml version="1.0" encoding="UTF-8"?>
<svg id="Layer_1" data-name="Layer 1" xmlns="http://www.w3.org/2000/svg" viewBox="0 0 183.74 374.99">
  <defs>
    <style>
      .cls-1 {
        fill: none;
        stroke: #b87fb7;
        stroke-linecap: round;
        stroke-linejoin: round;
        stroke-width: .75px;
      }
    </style>
  </defs>
  <path className="cls-1" d="m120.15,68.28c-8.05,0-16.47-6.74-16.47-6.74l-1.23,4.83-29.78,10.46-51.51,89.33,14.49,8.85,39.44-53.12"/>
  <path className="cls-1" d="m120.15,68.28c8.05,0,16.47-6.74,16.47-6.74l1.23,4.83,29.78,10.46,15.43,64.67c.91,3.8-.29,7.8-3.15,10.48l-33.21,31.09-11.11-16.26,26.16-25.72-4.58-26.43"/>
  <path className="cls-1" d="m165.22,218.48h-2.41s12.07,133.6,12.07,133.6c0,0-22.53,5.1-54.73,5.1-32.19,0-54.73-5.1-54.73-5.1l12.07-133.6h-2.41"/>
  <path className="cls-1" d="m13.11,174.22l-5.85,2.92c-1.26.63-1.87,2.1-1.42,3.44h0c.47,1.41,1.94,2.22,3.38,1.86l8.08-2.02c1.46-.37,3-.28,4.41.25h0c2.62.98,5.57.41,7.63-1.48l5.24-4.8"/>
  <path className="cls-1" d="m22.45,166.81l-1.29,1.77-10.25.68c-1.18.08-2.31.55-3.2,1.33l-7.34,6.45"/>
  <path className="cls-1" d="m144.19,180.37l-10.65,6.41c-2.95,1.78-6.37,2.63-9.8,2.45l-8.93-.47c-.71-.04-1.4-.27-1.99-.66l-2.52-1.68c-.92-.61-1.67-1.46-2.16-2.45l-.99-1.98c-.42-.84-.42-1.84,0-2.68l1.21-2.42c.33-.66,1-1.07,1.74-1.07h11.68l2.14-2.95-3.75-.95-3.2,2.05c-1.02.66-2.3.78-3.43.34l-.81-.32c-.69-.27-.84-1.18-.27-1.66l3.9-3.27c.4-.33.86-.58,1.35-.73l3.53-1.06c2.44-.73,5.06-.64,7.44.25l3.77,1.29,3.43-1.65"/>
  <line className="cls-1" x1="107.41" y1="178.78" x2="120.82" y2="178.78"/>
  <line className="cls-1" x1="107.68" y1="183.07" x2="120.96" y2="183.07"/>
  <line className="cls-1" x1="110.36" y1="186.47" x2="120.96" y2="186.47"/>
  <path className="cls-1" d="m101.08,357.18c.11.82.3,1.62.58,2.41l3.29,9.33c.98,2.79-1.08,5.71-4.04,5.71h-21.89c-3.04,0-5.11-3.08-3.96-5.9l3.93-9.64c.57-1.39.95-2.84,1.15-4.32"/>
  <path className="cls-1" d="m80.14,364.25c1.96-1.76,5.63-2.94,9.84-2.94s7.87,1.18,9.84,2.94"/>
  <path className="cls-1" d="m139.23,357.18c-.11.82-.3,1.62-.58,2.41l-3.29,9.33c-.98,2.79,1.08,5.71,4.04,5.71h21.89c3.04,0,5.11-3.08,3.96-5.9l-3.93-9.64c-.57-1.39-.95-2.84-1.15-4.32"/>
  <path className="cls-1" d="m160.16,364.25c-1.96-1.76-5.63-2.94-9.84-2.94s-7.87,1.18-9.84,2.94"/>
  <path className="cls-1" d="m101.96,10.86c3.67-6.27,10.47-10.48,18.26-10.48s14.59,4.21,18.26,10.48"/>
  <rect className="cls-1" x="98.7" y="10.86" width="43.02" height="3.13" rx=".68" ry=".68"/>
  <rect className="cls-1" x="98.7" y="13.99" width="43.02" height="3.13" rx=".68" ry=".68"/>
  <path className="cls-1" d="m100.27,17.12h0c-2.44,0-4.43,1.98-4.43,4.43v18.98"/>
  <path className="cls-1" d="m120.21,42.85c-7.2,0-9.77,3.65-9.92,4.32h9.92"/>
  <path className="cls-1" d="m105.17,30.54v10.16c0,3.57,2.62,6.47,5.85,6.47h0"/>
  <path className="cls-1" d="m107.09,25.73h0c0-3.13,2.54-5.68,5.68-5.68h.1"/>
  <line className="cls-1" x1="106.77" y1="59.87" x2="106.77" y2="63.25"/>
  <rect className="cls-1" x="98.58" y="10.86" width="43.02" height="3.13" rx=".68" ry=".68" transform="translate(240.19 24.84) rotate(180)"/>
  <path className="cls-1" d="m150.24,71.14v-24.78c0-3.23-2.62-5.84-5.84-5.84h-2.3c-2.22,0-4.03-1.8-4.03-4.03h0s1.58,0,1.58,0c1.49,0,2.69-1.21,2.69-2.69h0c0-1.49-1.21-2.69-2.69-2.69h-1.04c-2.97,0-5.38-2.41-5.38-5.38h0s1.24,0,1.24,0c1.57,0,2.84-1.27,2.84-2.84h0c0-1.57-1.27-2.84-2.84-2.84h-14.36s.12,0,.12,0h-14.36c-1.57,0-2.84,1.27-2.84,2.84h0c0,1.57,1.27,2.84,2.84,2.84h1.24c0,2.97-2.41,5.38-5.38,5.38h-1.04c-1.49,0-2.69,1.21-2.69,2.69h0c0,1.49,1.21,2.69,2.69,2.69h1.58c0,2.22-1.8,4.03-4.03,4.03h-2.3c-3.23,0-5.84,2.62-5.84,5.84v24.78"/>
  <path className="cls-1" d="m133.21,25.73h0c0-3.13-2.54-5.68-5.68-5.68h-.1"/>
  <path className="cls-1" d="m140.04,17.12h0c2.44,0,4.43,1.98,4.43,4.43v18.98"/>
  <path className="cls-1" d="m120.09,42.85c7.2,0,9.77,3.65,9.92,4.32-4.17,0-9.92,0-9.92,0"/>
  <path className="cls-1" d="m129.14,47.16c0,3.83-3.11,6.94-6.94,6.94h0c0-1.11-.89-2.01-1.99-2.03h0s-.05,0-.05,0h-.07c-1.1.03-1.99.93-1.99,2.04-3.83,0-6.94-3.11-6.94-6.94"/>
  <path className="cls-1" d="m102.74,31.01v21.56c0,1,.27,1.98.78,2.84,1.76,3,6.69,9.45,16.57,9.5h0s.04,0,.06,0,.04,0,.06,0h0c9.88-.06,14.81-6.5,16.57-9.51.51-.86.78-1.84.78-2.84v-21.56"/>
  <path className="cls-1" d="m135.14,30.54v10.16c0,3.57-2.62,6.47-5.85,6.47h0"/>
  <line className="cls-1" x1="133.54" y1="59.87" x2="133.54" y2="63.25"/>
  <path className="cls-1" d="m72.67,76.83s8.97,34.57,2.41,45.07c1.77,16.19,0,96.58,0,96.58h20.45c3.46-3.46,5.4-5.4,8.85-8.85v-95.77l-5.12-46.37"/>
  <polyline className="cls-1" points="135.9 166.09 135.9 113.85 141.02 67.49"/>
  <path className="cls-1" d="m160.31,170.34c2.28,24.81,4.89,48.14,4.89,48.14h-20.45c-3.46-3.46-5.4-5.4-8.85-8.85v-23.9"/>
  <path className="cls-1" d="m167.61,76.83s-10.51,22.88-10.44,37.83c-.54,4.91-.01,16.37.98,29.97"/>
  <polyline className="cls-1" points="115.76 169.21 115.76 68.11 124.42 68.11 124.42 166.46"/>
  <line className="cls-1" x1="120.09" y1="39.06" x2="120.09" y2="32.54"/>
</svg>