<svg width="171" height="171" viewBox="0 0 171 171" fill="none" xmlns="http://www.w3.org/2000/svg">
<circle cx="85.1259" cy="85.1259" r="85.1259" fill="white" fill-opacity="0.26"/>
<g clip-path="url(#clip0_481_749)">
<path d="M137.454 87.1467C137.454 87.1467 105.19 64.1509 75.8824 70.572C64.3162 73.1054 72.1322 68.9974 60.8892 85.2792L137.456 87.1442L137.454 87.1467Z" fill="#66B351"/>
<path d="M114.534 85.482C114.534 85.482 107.079 76.5826 96.3043 72.1366L102.775 72.3869C123.513 77.5514 133.052 85.895 133.052 85.895L114.534 85.482Z" fill="#94D6E2"/>
<path d="M113.146 85.5296C113.146 85.5296 106.247 76.6126 96.3043 72.1366L100.465 72.3243C119.6 77.5413 132.158 86.4107 132.158 86.4107L113.146 85.5296Z" fill="#BCE1EA"/>
<path d="M84.4149 112C88.531 112 91.8677 108.365 91.8677 103.882C91.8677 99.398 88.531 95.7632 84.4149 95.7632C80.2989 95.7632 76.9622 99.398 76.9622 103.882C76.9622 108.365 80.2989 112 84.4149 112Z" fill="#07323F"/>
<path d="M83.0346 112C87.1506 112 90.4874 108.365 90.4874 103.882C90.4874 99.398 87.1506 95.7632 83.0346 95.7632C78.9185 95.7632 75.5818 99.398 75.5818 103.882C75.5818 108.365 78.9185 112 83.0346 112Z" fill="#0F4B64"/>
<path d="M83.0346 106.798C84.6603 106.798 85.9781 105.362 85.9781 103.591C85.9781 101.82 84.6603 100.384 83.0346 100.384C81.4089 100.384 80.0911 101.82 80.0911 103.591C80.0911 105.362 81.4089 106.798 83.0346 106.798Z" fill="#07323F"/>
<path d="M140.057 112C144.173 112 147.509 108.365 147.509 103.882C147.509 99.398 144.173 95.7632 140.057 95.7632C135.94 95.7632 132.604 99.398 132.604 103.882C132.604 108.365 135.94 112 140.057 112Z" fill="#07323F"/>
<path d="M138.676 112C142.792 112 146.129 108.365 146.129 103.882C146.129 99.398 142.792 95.7632 138.676 95.7632C134.56 95.7632 131.223 99.398 131.223 103.882C131.223 108.365 134.56 112 138.676 112Z" fill="#0F4B64"/>
<path d="M138.676 107.552C140.331 107.552 141.672 106.09 141.672 104.287C141.672 102.484 140.331 101.023 138.676 101.023C137.021 101.023 135.68 102.484 135.68 104.287C135.68 106.09 137.021 107.552 138.676 107.552Z" fill="#07323F"/>
<path d="M157.881 105.238C157.881 105.238 161.881 87.4396 143.934 86.0527C132.245 85.149 72.9739 83.7772 62.6552 83.5444C60.4381 83.4943 57.665 84.731 56.6905 86.8613C55.5556 89.3421 54.3657 95.6481 55.3928 103.043L148.609 105.238H157.883H157.881Z" fill="#66B351"/>
<path d="M112.232 85.935C112.232 85.935 98.2458 69.8134 85.9806 69.4855C69.6972 69.0499 66.9666 71.5758 51.6151 85.3267L112.232 85.9325V85.935Z" fill="#79C95F"/>
<path d="M108.833 85.3593C108.833 85.3593 96.6876 72.3469 86.6069 71.2479C75.1133 69.9962 66.4205 73.576 55.9565 84.1952L108.833 85.3593Z" fill="#94D6E2"/>
<path d="M108.833 85.3593C108.833 85.3593 97.1811 72.3469 87.5113 71.2479C76.4862 69.9962 68.1466 73.576 58.106 84.1952L108.833 85.3593Z" fill="#BCE1EA"/>
<path d="M146.73 105.238C146.73 105.238 152.061 87.009 133.506 85.6221C122.45 84.796 69.2137 83.9399 52.0585 83.6195C50.4603 83.5894 43.3507 84.8962 41.3265 89.3797C40.1967 91.8805 39.866 97.1075 40.9307 104.5L146.735 105.238H146.73Z" fill="#66B351"/>
<path d="M71.9118 86.9389H78.4402C78.4831 86.9389 78.5178 86.9042 78.5178 86.8613V85.86C78.5178 85.8171 78.4831 85.7824 78.4402 85.7824H71.9118C71.8689 85.7824 71.8341 85.8171 71.8341 85.86V86.8613C71.8341 86.9042 71.8689 86.9389 71.9118 86.9389Z" fill="#0F4B64"/>
<path d="M39.5002 105.238L148.136 105.238V101.924L39.5002 101.924V105.238Z" fill="#88889B"/>
<path d="M159.036 101.927H148.138V105.241H159.036V101.927Z" fill="#78788A"/>
<path d="M112.242 103.882C112.242 98.1364 116.914 94.0284 122.676 94.0284C128.438 94.0284 133.11 98.1364 133.11 103.882C133.11 104.242 133.057 104.891 133.022 105.238H112.239C112.227 105.033 112.245 104.089 112.245 103.882H112.242Z" fill="#4E4E5E"/>
<path d="M113.873 103.964C113.873 98.5745 118.179 94.7219 123.49 94.7219C128.801 94.7219 133.107 98.577 133.107 103.964C133.107 104.302 133.06 104.911 133.025 105.238H113.868C113.858 105.046 113.873 104.16 113.873 103.964Z" fill="#5C5C6E"/>
<path d="M123.362 112C127.478 112 130.815 108.365 130.815 103.882C130.815 99.398 127.478 95.7632 123.362 95.7632C119.246 95.7632 115.91 99.398 115.91 103.882C115.91 108.365 119.246 112 123.362 112Z" fill="#07323F"/>
<path d="M121.985 112C126.101 112 129.437 108.365 129.437 103.882C129.437 99.398 126.101 95.7632 121.985 95.7632C117.868 95.7632 114.532 99.398 114.532 103.882C114.532 108.365 117.868 112 121.985 112Z" fill="#0F4B64"/>
<path d="M121.985 106.801C123.464 106.801 124.663 105.494 124.663 103.882C124.663 102.27 123.464 100.963 121.985 100.963C120.505 100.963 119.307 102.27 119.307 103.882C119.307 105.494 120.505 106.801 121.985 106.801Z" fill="#07323F"/>
<path d="M56.6003 103.882C56.6003 98.1364 61.2724 94.0284 67.0343 94.0284C72.7961 94.0284 77.4682 98.1364 77.4682 103.882C77.4682 104.242 77.4907 104.891 77.4556 105.238H56.6154C56.6028 105.033 56.6028 104.089 56.6028 103.882H56.6003Z" fill="#4E4E5E"/>
<path d="M58.106 103.954C58.106 98.5194 62.4398 94.6342 67.7858 94.6342C73.1318 94.6342 77.4657 98.5194 77.4657 103.954C77.4657 104.295 77.4857 104.908 77.4532 105.238H58.1185C58.106 105.043 58.106 104.152 58.106 103.954Z" fill="#5C5C6E"/>
<path d="M67.7232 112C71.8392 112 75.176 108.365 75.176 103.882C75.176 99.398 71.8392 95.7632 67.7232 95.7632C63.6071 95.7632 60.2704 99.398 60.2704 103.882C60.2704 108.365 63.6071 112 67.7232 112Z" fill="#07323F"/>
<path d="M66.3428 112C70.4589 112 73.7956 108.365 73.7956 103.882C73.7956 99.398 70.4589 95.7632 66.3428 95.7632C62.2267 95.7632 58.89 99.398 58.89 103.882C58.89 108.365 62.2267 112 66.3428 112Z" fill="#0F4B64"/>
<path d="M66.3428 106.801C67.8218 106.801 69.0208 105.494 69.0208 103.882C69.0208 102.27 67.8218 100.963 66.3428 100.963C64.8638 100.963 63.6648 102.27 63.6648 103.882C63.6648 105.494 64.8638 106.801 66.3428 106.801Z" fill="#07323F"/>
<path d="M134.801 101.944L135.164 101.909C135.154 101.804 134.024 91.3599 122.09 91.3599H122.072C117.002 91.3649 110.899 94.1311 110.398 101.914L110.764 101.937C111.25 94.4064 117.16 91.7279 122.072 91.7254H122.09C133.686 91.7254 134.761 101.526 134.801 101.944Z" fill="#0F4B64"/>
<path d="M79.1591 101.944L79.5224 101.909C79.5123 101.804 78.3875 91.3599 66.5257 91.3599H66.5082C61.4653 91.3649 55.4004 94.1311 54.9019 101.914L55.2676 101.937C55.7511 94.4064 61.6231 91.7279 66.5082 91.7254H66.5257C78.0518 91.7254 79.119 101.526 79.1591 101.944Z" fill="#0F4B64"/>
<path d="M145.167 101.328H148.724C148.865 101.328 148.98 101.214 148.98 101.073V97.811C148.98 97.6699 148.865 97.5556 148.724 97.5556H145.167C145.026 97.5556 144.912 97.6699 144.912 97.811V101.073C144.912 101.214 145.026 101.328 145.167 101.328Z" fill="white"/>
<path d="M156.864 101.075H159.744C159.886 101.075 160 100.961 160 100.82V97.5582C160 97.4171 159.886 97.3028 159.744 97.3028H156.864C156.722 97.3028 156.608 97.4171 156.608 97.5582V100.82C156.608 100.961 156.722 101.075 156.864 101.075Z" fill="white"/>
<path d="M39.7582 91.5426H46.0311C46.1722 91.5426 46.2866 91.4283 46.2866 91.2873V88.0254C46.2866 87.8844 46.1722 87.77 46.0311 87.77H39.7582C39.6171 87.77 39.5027 87.8844 39.5027 88.0254V91.2873C39.5027 91.4283 39.6171 91.5426 39.7582 91.5426Z" fill="white"/>
<path d="M69.2062 91.5501L69.8099 73.7512L69.4367 73.929L68.8405 91.5376L69.2062 91.5501Z" fill="#0F4B64"/>
<mask id="mask0_481_749" style="mask-type:luminance" maskUnits="userSpaceOnUse" x="15" y="43" width="75" height="69">
<path d="M89.7534 43.2629H15V111.106H89.7534V43.2629Z" fill="white"/>
</mask>
<g mask="url(#mask0_481_749)">
<mask id="mask1_481_749" style="mask-type:luminance" maskUnits="userSpaceOnUse" x="15" y="43" width="75" height="69">
<path d="M89.9713 43H15V111.106H89.9713V43Z" fill="white"/>
</mask>
<g mask="url(#mask1_481_749)">
<mask id="mask2_481_749" style="mask-type:luminance" maskUnits="userSpaceOnUse" x="15" y="43" width="75" height="69">
<path d="M89.6757 43.338H15.0776V111.029H89.6757V43.338Z" fill="white"/>
</mask>
<g mask="url(#mask2_481_749)">
<path d="M70.529 56.1376V67.613H69.091C67.7457 67.613 66.656 66.5241 66.656 65.1798H67.608C68.5073 65.1798 69.2363 64.4513 69.2363 63.5526C69.2363 63.102 69.0534 62.6964 68.7578 62.4035C68.4622 62.1081 68.0564 61.9254 67.608 61.9254H66.9767C66.7612 61.9254 66.5508 61.9029 66.3504 61.8653C65.7892 61.7552 65.2857 61.5073 64.8673 61.1544C64.1634 60.5561 63.72 59.6674 63.72 58.671H64.469C65.416 58.671 66.1825 57.905 66.1825 56.9537C66.1825 56.4831 65.9896 56.0525 65.679 55.7421C65.3684 55.4317 64.94 55.2389 64.4665 55.2389H47.1635C46.2141 55.2389 45.445 56.005 45.445 56.9512C45.445 57.4269 45.6379 57.8549 45.9485 58.1654C46.2592 58.4758 46.6875 58.6685 47.1635 58.6685H47.9126C47.9126 59.5672 47.5468 60.3808 46.9606 60.9716C46.8879 61.0442 46.8078 61.1143 46.7301 61.1819C46.3193 61.5199 45.8233 61.7602 45.2796 61.8628C45.0792 61.9029 44.8688 61.9229 44.6559 61.9229H44.0246C43.1227 61.9229 42.3962 62.6539 42.3962 63.5501C42.3962 64.0007 42.5791 64.4087 42.8747 64.6991C43.1678 64.9945 43.5762 65.1773 44.0246 65.1773H44.9765C44.9765 65.8507 44.706 66.459 44.2651 66.8996C43.8242 67.3402 43.2154 67.6105 42.5415 67.6105H41.1011V56.1351C41.1011 54.6556 42.301 53.4615 43.7816 53.4615H67.8459C69.3265 53.4615 70.5264 54.6582 70.5264 56.1351" fill="white"/>
<path d="M64.8673 61.1494C65.2857 61.5023 65.7892 61.7527 66.3504 61.8603V74.9003C66.3504 75.5061 66.185 76.0969 65.8819 76.6176C65.4961 77.276 64.8548 78.2097 63.9129 79.1335C63.5572 79.4814 63.1588 79.8269 62.7104 80.1598C61.0846 81.364 58.845 82.3503 55.8564 82.3653H55.7837C51.9709 82.3428 49.3756 80.7531 47.7222 79.1285C46.7802 78.2097 46.1414 77.276 45.7556 76.6176C45.4475 76.0969 45.2847 75.5061 45.2847 74.9003V61.8603C45.8258 61.7577 46.3243 61.5173 46.7351 61.1794L46.7527 61.2119V67.7182C46.7527 69.7183 48.1105 71.3706 49.8641 71.6009C49.8616 71.6134 49.8591 71.6234 49.854 71.6309H50.3801C50.3801 73.9465 52.259 75.824 54.5787 75.824C54.5787 75.1556 55.1148 74.6099 55.7812 74.5949L55.8088 74.5924H55.8539C56.1895 74.6024 56.4877 74.7426 56.7056 74.9629C56.921 75.1857 57.0563 75.4886 57.0563 75.824C59.3736 75.824 61.2524 73.9465 61.2524 71.6309H61.7835C61.7835 71.6309 61.7785 71.6134 61.7735 71.6009C63.5271 71.3706 64.8849 69.7183 64.8849 67.7182L64.8673 61.1494Z" fill="#848484"/>
<path d="M64.8848 67.7181C64.8848 69.7183 63.527 71.3705 61.7734 71.6008C61.6231 71.1352 60.0599 69.0449 55.8538 69.0199H55.7811C51.575 69.0449 50.0118 71.1352 49.8615 71.6008C48.1079 71.3705 46.7501 69.7183 46.7501 67.7181V61.2119L46.7325 61.1794C46.8127 61.1118 46.8904 61.0417 46.963 60.9691C47.5517 60.3783 47.915 59.5622 47.915 58.666C47.915 56.7734 49.4531 55.2364 51.347 55.2364H60.2854C62.1817 55.2364 63.7199 56.7734 63.7199 58.666C63.7199 59.6598 64.1633 60.5485 64.8673 61.1493L64.8848 67.7181Z" fill="#FBD1B9"/>
<path d="M47.5368 81.4065L47.7171 79.1309H47.7196C49.373 80.7531 51.9684 82.3452 55.7812 82.3653H55.8538C58.845 82.3502 61.0821 81.3639 62.7079 80.1598C63.1563 79.8294 63.5546 79.4814 63.9104 79.1334L63.963 81.5216L63.9905 81.5667C62.3647 82.583 59.8345 83.9123 57.2216 84.2928H54.4084C51.6652 83.8948 49.0073 82.4429 47.4015 81.4115L47.5393 81.4065H47.5368Z" fill="#FBD1B9"/>
<path d="M47.7171 79.131L47.5368 81.4065L47.399 81.4115C46.4345 80.7932 45.8483 80.3251 45.8483 80.3251L45.0993 83.244L43.1778 83.9199L37.6089 85.88V71.1503C37.6089 69.2127 39.1671 67.638 41.1011 67.6155H42.5415C43.2154 67.6155 43.8241 67.3451 44.265 66.9046C44.7059 66.464 44.9765 65.8557 44.9765 65.1823H45.2771V74.9053C45.2771 75.5111 45.4425 76.1019 45.7481 76.6226C46.1339 77.281 46.7752 78.2147 47.7146 79.1335H47.7121L47.7171 79.131Z" fill="white"/>
<path d="M63.9629 81.5217L63.9103 79.1335C64.8547 78.2072 65.4935 77.2735 65.8793 76.6176C66.1849 76.0969 66.3478 75.5061 66.3478 74.9003V65.1772H66.6534C66.6534 66.5215 67.7431 67.6105 69.0884 67.6105H70.5264C72.4603 67.6355 74.0185 69.2077 74.0185 71.1452V85.875L68.4421 83.9149L66.5231 83.239L65.7841 80.32C65.7841 80.32 65.1002 80.8683 63.9879 81.5617L63.9604 81.5167L63.9629 81.5217Z" fill="white"/>
<path d="M68.4446 83.9198L65.5186 110.408C63.0335 110.365 60.7013 110.335 58.4015 110.313V84.2928H57.2191C59.832 83.9123 62.3622 82.583 63.988 81.5667C65.1003 80.8732 65.7842 80.325 65.7842 80.325L66.5232 83.2439L68.4421 83.9198H68.4446Z" fill="white"/>
<path d="M68.4447 83.9199L74.0236 85.88L84.5352 89.5699C84.5352 89.5699 78.9387 101.674 78.33 110.648V110.701C73.4324 110.573 69.3014 110.475 65.5187 110.408L68.4447 83.9199Z" fill="#0F4B64"/>
<path d="M37.6114 85.88L43.1803 83.9199L46.0913 110.273C41.5044 110.278 36.3663 110.3 29.9757 110.328C30.2588 101.741 27.0823 89.5749 27.0823 89.5749L37.6089 85.88H37.6114Z" fill="#0F4B64"/>
<path d="M27.0848 89.575C27.0848 89.575 30.2613 101.741 29.9782 110.328C25.6543 110.345 20.7618 110.365 15.0776 110.38L27.0848 89.575Z" fill="white"/>
<path d="M54.4083 84.2953H53.1558V110.28C50.8911 110.27 48.5689 110.268 46.0913 110.275L43.1803 83.9223L45.1017 83.2464L45.8508 80.3275C45.8508 80.3275 46.4345 80.7956 47.4015 81.414C49.0073 82.4454 51.6652 83.8973 54.4083 84.2953Z" fill="white"/>
<path d="M54.4083 84.2953C54.8768 84.3679 55.3452 84.403 55.8162 84.403C56.2872 84.403 56.7531 84.3704 57.2241 84.2953H58.4065V110.313C56.6554 110.298 54.9219 110.285 53.1608 110.28V84.2953H54.4133H54.4083Z" fill="#0F4B64"/>
<path d="M84.5477 89.575L89.6757 111.031C85.442 110.904 81.7044 110.793 78.33 110.703V110.651C78.9387 101.676 84.5352 89.575 84.5352 89.575H84.5477Z" fill="white"/>
<path d="M68.868 51.7592V53.2713C68.868 53.3789 68.7828 53.464 68.6801 53.464H43.0275C42.9198 53.464 42.8346 53.3789 42.8346 53.2713V51.7592C42.8346 51.6566 42.9198 51.5715 43.0275 51.5715H68.6801C68.7828 51.5715 68.868 51.6566 68.868 51.7592Z" fill="#B87FB7"/>
<path d="M68.7602 62.401C69.0558 62.6964 69.2387 63.102 69.2387 63.5501C69.2387 64.4513 68.5072 65.1772 67.6104 65.1772H66.3528V61.8603C66.5532 61.9003 66.7636 61.9204 66.9791 61.9204H67.6104C68.0613 61.9204 68.4671 62.1031 68.7602 62.3985" fill="white"/>
<path d="M68.7954 49.8667V51.3787C68.7954 51.4864 68.7102 51.5715 68.6075 51.5715H43.0275C42.9198 51.5715 42.8346 51.4864 42.8346 51.3787V49.8667C42.8346 49.7641 42.9198 49.679 43.0275 49.679H68.6075C68.7102 49.679 68.7954 49.7641 68.7954 49.8667Z" fill="#B87FB7"/>
<path d="M66.9015 49.6764H44.8062C47.0232 45.8839 51.1391 43.338 55.8538 43.338C60.5685 43.338 64.6819 45.8839 66.9015 49.6764Z" fill="white"/>
<path d="M65.6814 55.7396C65.992 56.05 66.1849 56.4781 66.1849 56.9512C66.1849 57.9 65.4184 58.6685 64.4714 58.6685H63.7224C63.7224 56.776 62.1842 55.2389 60.2878 55.2389H64.4714C64.9424 55.2389 65.3733 55.4317 65.6839 55.7421" fill="white"/>
<path d="M61.7735 71.6034C61.6332 71.6259 61.4904 71.6334 61.3451 71.6334H50.2924C50.1471 71.6334 50.0043 71.6234 49.864 71.6034C50.0143 71.1377 51.5775 69.0474 55.7837 69.0224H55.8563C60.0624 69.0474 61.6256 71.1377 61.776 71.6034" fill="#848484"/>
<path d="M55.8539 71.6334H61.2524C61.2524 73.949 59.3736 75.8265 57.0563 75.8265C57.0563 75.491 56.9236 75.1881 56.7056 74.9653C56.4852 74.7425 56.187 74.6023 55.8539 74.5973L55.8238 74.5948H55.7812C55.1148 74.6124 54.5787 75.1581 54.5787 75.8265C52.259 75.8265 50.3801 73.949 50.3801 71.6334H55.8564H55.8539Z" fill="#FBD1B9"/>
<path d="M47.166 55.2364H51.3471C49.4532 55.2364 47.9151 56.7734 47.9151 58.666H47.166C46.6901 58.666 46.2617 58.4732 45.951 58.1628C45.6404 57.8524 45.4475 57.4243 45.4475 56.9487C45.4475 56.0024 46.2141 55.2364 47.166 55.2364Z" fill="white"/>
<path d="M45.2821 61.8628V65.1797H44.027C43.5761 65.1797 43.1678 64.997 42.8772 64.7016C42.5816 64.4087 42.3987 64.0007 42.3987 63.5526C42.3987 62.6539 43.1277 61.9254 44.027 61.9254H44.6583C44.8713 61.9254 45.0817 61.9028 45.2821 61.8653" fill="white"/>
</g>
</g>
<path d="M89.6758 111.029C85.4421 110.901 81.7044 110.791 78.33 110.701C73.4324 110.573 69.3015 110.475 65.5187 110.408C63.0336 110.365 60.7013 110.335 58.4016 110.313C56.6505 110.295 54.9169 110.283 53.1558 110.275C50.8912 110.265 48.5689 110.263 46.0913 110.27C41.5044 110.275 36.3664 110.298 29.9758 110.325C25.6519 110.343 20.7594 110.363 15.0752 110.378" stroke="#B87EB7" stroke-width="0.42" stroke-linecap="round" stroke-linejoin="round"/>
<path d="M15.0776 110.378L27.0848 89.5724L37.6114 85.8775L43.1803 83.9173L45.1017 83.2414L45.8508 80.3225C45.8508 80.3225 46.4345 80.7906 47.4015 81.409C49.0072 82.4403 51.6652 83.8923 54.4083 84.2903C54.8768 84.3629 55.3453 84.398 55.8162 84.398" stroke="#B87EB7" stroke-width="0.42" stroke-linecap="round" stroke-linejoin="round"/>
<path d="M89.6757 111.029L84.5477 89.5724H84.5352L74.0236 85.8775L68.4446 83.9173L66.5257 83.2414L65.7867 80.3225C65.7867 80.3225 65.1028 80.8707 63.9905 81.5642C62.3647 82.5805 59.8345 83.9098 57.2216 84.2903C56.7531 84.3629 56.2847 84.398 55.8137 84.398" stroke="#B87EB7" stroke-width="0.42" stroke-linecap="round" stroke-linejoin="round"/>
<path d="M44.8062 49.6764C47.0232 45.8839 51.1391 43.338 55.8538 43.338C60.5685 43.338 64.6819 45.8839 66.9015 49.6764" stroke="#B87EB7" stroke-width="0.42" stroke-linecap="round" stroke-linejoin="round"/>
<path d="M43.0275 49.6765C42.9198 49.6765 42.8346 49.7616 42.8346 49.8642V51.3762C42.8346 51.4839 42.9198 51.569 43.0275 51.569" stroke="#B87EB7" stroke-width="0.42" stroke-linecap="round" stroke-linejoin="round"/>
<path d="M68.6802 51.5715C68.7829 51.5715 68.8681 51.4864 68.8681 51.3787V49.8667C68.8681 49.7641 68.7829 49.679 68.6802 49.679H68.6075" stroke="#B87EB7" stroke-width="0.42" stroke-linecap="round" stroke-linejoin="round"/>
<path d="M43.0275 51.5715C42.9198 51.5715 42.8346 51.6566 42.8346 51.7592V53.2713C42.8346 53.3789 42.9198 53.464 43.0275 53.464H68.6801C68.7828 53.464 68.868 53.3789 68.868 53.2713V51.7592C68.868 51.6566 68.7828 51.5715 68.6801 51.5715H68.6075" stroke="#B87EB7" stroke-width="0.42" stroke-linecap="round" stroke-linejoin="round"/>
<path d="M43.784 53.4641C42.3035 53.4641 41.1035 54.6607 41.1035 56.1376V67.613" stroke="#B87EB7" stroke-width="0.42" stroke-linecap="round" stroke-linejoin="round"/>
<path d="M55.7812 69.0224C51.5751 69.0474 50.0119 71.1377 49.8616 71.6034C49.8591 71.6159 49.8566 71.6259 49.8516 71.6334H55.7812" stroke="#B87EB7" stroke-width="0.42" stroke-linecap="round" stroke-linejoin="round"/>
<path d="M46.7501 61.2144V67.7206C46.7501 69.7208 48.1079 71.373 49.8615 71.6033C50.0018 71.6259 50.1446 71.6334 50.2899 71.6334" stroke="#B87EB7" stroke-width="0.42" stroke-linecap="round" stroke-linejoin="round"/>
<path d="M47.915 58.666C47.915 56.7734 49.4532 55.2364 51.3471 55.2364" stroke="#B87EB7" stroke-width="0.42" stroke-linecap="round" stroke-linejoin="round"/>
<path d="M47.7171 79.1309L47.5367 81.4065" stroke="#B87EB7" stroke-width="0.42" stroke-linecap="round" stroke-linejoin="round"/>
<path d="M43.0275 51.5715H42.9549C42.8471 51.5715 42.762 51.4864 42.762 51.3787V49.8667C42.762 49.7641 42.8471 49.679 42.9549 49.679H68.6075C68.7102 49.679 68.7954 49.7641 68.7954 49.8667V51.3787C68.7954 51.4864 68.7102 51.5715 68.6075 51.5715H43.0275Z" stroke="#B87EB7" stroke-width="0.42" stroke-linecap="round" stroke-linejoin="round"/>
<path d="M60.2278 55.2364H47.1685C46.219 55.2364 45.45 56.0024 45.45 56.9487C45.45 57.4243 45.6429 57.8524 45.9535 58.1628C46.2641 58.4732 46.6925 58.666 47.1685 58.666H47.9175C47.9175 59.5647 47.5518 60.3783 46.9656 60.9691C46.8929 61.0417 46.8128 61.1118 46.7351 61.1794C46.3243 61.5173 45.8282 61.7576 45.2846 61.8603C45.0842 61.9003 44.8738 61.9203 44.6609 61.9203H44.0296C43.1277 61.9203 42.4012 62.6513 42.4012 63.5475C42.4012 63.9981 42.5841 64.4062 42.8797 64.6966C43.1728 64.992 43.5811 65.1747 44.0296 65.1747H44.9815C44.9815 65.8481 44.711 66.4564 44.27 66.897C43.8291 67.3376 43.2204 67.608 42.5465 67.608H41.1061C39.1721 67.633 37.6139 69.2051 37.6139 71.1427V85.8725" stroke="#B87EB7" stroke-width="0.42" stroke-linecap="round" stroke-linejoin="round"/>
<path d="M74.0237 85.88V71.1502C74.0211 69.2126 72.4604 67.638 70.529 67.6155H69.091C67.7458 67.6155 66.656 66.5265 66.656 65.1822H67.608C68.5073 65.1822 69.2363 64.4537 69.2363 63.555C69.2363 63.1044 69.0535 62.6989 68.7578 62.406C68.4622 62.1131 68.0564 61.9279 67.608 61.9279H66.9767C66.7613 61.9279 66.5508 61.9053 66.3504 61.8678C65.7893 61.7576 65.2857 61.5098 64.8674 61.1568C64.1634 60.5585 63.72 59.6698 63.72 58.6735H64.469C65.416 58.6735 66.1826 57.9075 66.1826 56.9562C66.1826 56.4856 65.9897 56.055 65.679 55.7446C65.3684 55.4342 64.94 55.2414 64.4665 55.2414H60.283" stroke="#B87EB7" stroke-width="0.42" stroke-linecap="round" stroke-linejoin="round"/>
<path d="M63.7199 58.666C63.7199 56.7734 62.1818 55.2364 60.2854 55.2364H60.2278" stroke="#B87EB7" stroke-width="0.42" stroke-linecap="round" stroke-linejoin="round"/>
<path d="M67.8484 53.4641C69.3289 53.4641 70.5289 54.6607 70.5289 56.1376V67.613" stroke="#B87EB7" stroke-width="0.42" stroke-linecap="round" stroke-linejoin="round"/>
<path d="M55.7811 69.0224H55.8538C60.0599 69.0474 61.6231 71.1377 61.7734 71.6034C61.7759 71.6159 61.7784 71.6259 61.7834 71.6334H55.7811" stroke="#B87EB7" stroke-width="0.42" stroke-linecap="round" stroke-linejoin="round"/>
<path d="M61.2524 71.6334C61.2524 73.949 59.3736 75.8265 57.0563 75.8265C57.0563 75.491 56.9236 75.1881 56.7056 74.9653C56.4852 74.7425 56.187 74.6023 55.8539 74.5973L55.8238 74.5948H55.7812C55.1148 74.6124 54.5787 75.1581 54.5787 75.8265C52.259 75.8265 50.3801 73.949 50.3801 71.6334" stroke="#B87EB7" stroke-width="0.42" stroke-linecap="round" stroke-linejoin="round"/>
<path d="M45.2821 61.8628V74.9028C45.2821 75.5086 45.4474 76.0994 45.7531 76.6201C46.1389 77.2785 46.7802 78.2122 47.7196 79.1309C49.373 80.7556 51.9683 82.3478 55.7811 82.3678H55.8538C58.8449 82.3528 61.082 81.3664 62.7079 80.1623C63.1563 79.8319 63.5546 79.4839 63.9103 79.1359C64.8548 78.2097 65.4936 77.276 65.8794 76.6201C66.185 76.0994 66.3478 75.5086 66.3478 74.9028V61.8628" stroke="#B87EB7" stroke-width="0.42" stroke-linecap="round" stroke-linejoin="round"/>
<path d="M64.8673 61.1494L64.8849 67.7182C64.8849 69.7183 63.5271 71.3706 61.7735 71.6009C61.6332 71.6234 61.4904 71.6309 61.3451 71.6309" stroke="#B87EB7" stroke-width="0.42" stroke-linecap="round" stroke-linejoin="round"/>
<path d="M63.9104 79.1334L63.963 81.5216" stroke="#B87EB7" stroke-width="0.42" stroke-linecap="round" stroke-linejoin="round"/>
<path d="M46.0938 110.31L46.0913 110.273L43.1803 83.9199" stroke="#B87EB7" stroke-width="0.42" stroke-linecap="round" stroke-linejoin="round"/>
<path d="M27.0848 89.575C27.0848 89.575 30.2614 101.741 29.9783 110.328" stroke="#B87EB7" stroke-width="0.42" stroke-linecap="round" stroke-linejoin="round"/>
<path d="M68.4447 83.9199L65.5187 110.408V110.413" stroke="#B87EB7" stroke-width="0.42" stroke-linecap="round" stroke-linejoin="round"/>
<path d="M84.5352 89.575C84.5352 89.575 78.9387 101.676 78.33 110.651" stroke="#B87EB7" stroke-width="0.42" stroke-linecap="round" stroke-linejoin="round"/>
<path d="M53.1558 110.278V84.2953H54.4083H57.2216H58.4015V110.31" stroke="#B87EB7" stroke-width="0.42" stroke-linecap="round" stroke-linejoin="round"/>
<path d="M55.7811 66.7293V62.789" stroke="#B87EB7" stroke-width="0.42" stroke-linecap="round" stroke-linejoin="round"/>
</g>
</g>
<defs>
<clipPath id="clip0_481_749">
<rect width="145" height="69" fill="white" transform="translate(15 43)"/>
</clipPath>
</defs>
</svg>
