<svg width="349" height="33" viewBox="0 0 349 33" fill="none" xmlns="http://www.w3.org/2000/svg">
<path d="M269.667 7.82312C270.656 7.82312 271.458 7.02102 271.458 6.03157C271.458 5.04213 270.656 4.24002 269.667 4.24002C268.678 4.24002 267.876 5.04213 267.876 6.03157C267.876 7.02102 268.678 7.82312 269.667 7.82312Z" stroke="white" stroke-width="0.5" stroke-miterlimit="10"/>
<path d="M269.337 4.26755C270.171 4.41914 270.803 5.15414 270.803 6.03154C270.803 6.90894 270.171 7.63934 269.337 7.79553" stroke="white" stroke-width="0.5" stroke-miterlimit="10"/>
<path d="M269.667 4.23541V0" stroke="white" stroke-width="0.5" stroke-miterlimit="10"/>
<path d="M269.667 12.0631V7.82309" stroke="white" stroke-width="0.5" stroke-miterlimit="10"/>
<path d="M271.458 6.03152H275.694" stroke="white" stroke-width="0.5" stroke-miterlimit="10"/>
<path d="M264.125 6.03152H267.872" stroke="white" stroke-width="0.5" stroke-miterlimit="10"/>
<path d="M268.971 4.35027L267.807 1.5481" stroke="white" stroke-width="0.5" stroke-miterlimit="10"/>
<path d="M271.522 10.515L270.363 7.71286" stroke="white" stroke-width="0.5" stroke-miterlimit="10"/>
<path d="M271.352 5.32871L274.146 4.17569" stroke="white" stroke-width="0.5" stroke-miterlimit="10"/>
<path d="M265.183 7.88738L267.977 6.72977" stroke="white" stroke-width="0.5" stroke-miterlimit="10"/>
<path d="M268.399 4.76372L265.403 1.76862" stroke="white" stroke-width="0.5" stroke-miterlimit="10"/>
<path d="M273.926 10.2945L270.931 7.29944" stroke="white" stroke-width="0.5" stroke-miterlimit="10"/>
<path d="M270.931 4.76372L273.926 1.76862" stroke="white" stroke-width="0.5" stroke-miterlimit="10"/>
<path d="M265.403 10.2945L268.399 7.29944" stroke="white" stroke-width="0.5" stroke-miterlimit="10"/>
<path d="M267.977 5.32871L265.183 4.17569" stroke="white" stroke-width="0.5" stroke-miterlimit="10"/>
<path d="M274.146 7.88738L271.352 6.72977" stroke="white" stroke-width="0.5" stroke-miterlimit="10"/>
<path d="M270.359 4.35027L271.522 1.5481" stroke="white" stroke-width="0.5" stroke-miterlimit="10"/>
<path d="M267.807 10.515L268.971 7.70825" stroke="white" stroke-width="0.5" stroke-miterlimit="10"/>
<path d="M250.125 21.4205C249.855 20.3318 249.836 19.0777 249.836 19.0777" stroke="white" stroke-width="0.5" stroke-miterlimit="10"/>
<path d="M250.835 20.9244C250.583 19.9046 250.45 18.2646 250.45 18.2646" stroke="white" stroke-width="0.5" stroke-miterlimit="10"/>
<path d="M251.545 20.4282C251.311 19.4773 251.114 17.6674 251.114 17.6674" stroke="white" stroke-width="0.5" stroke-miterlimit="10"/>
<path d="M252.255 19.9321C252.039 19.0547 251.824 17.2402 251.824 17.2402" stroke="white" stroke-width="0.5" stroke-miterlimit="10"/>
<path d="M252.969 19.436C252.772 18.6275 252.557 16.9049 252.557 16.9049" stroke="white" stroke-width="0.5" stroke-miterlimit="10"/>
<path d="M253.679 18.9445C253.496 18.2049 253.326 16.7165 253.326 16.7165" stroke="white" stroke-width="0.5" stroke-miterlimit="10"/>
<path d="M254.389 18.4484C254.224 17.7823 254.119 16.6384 254.119 16.6384" stroke="white" stroke-width="0.5" stroke-miterlimit="10"/>
<path d="M255.099 17.9522C254.952 17.3551 254.938 16.6706 254.938 16.6706" stroke="white" stroke-width="0.5" stroke-miterlimit="10"/>
<path d="M256.157 16.983C255.19 16.5741 254.086 16.4639 252.987 16.7349C250.537 17.3367 248.953 19.6244 249.172 22.0453" stroke="white" stroke-width="0.5" stroke-miterlimit="10"/>
<path d="M249.049 14.6172C249.786 13.7674 250.794 13.0324 250.794 13.0324" stroke="white" stroke-width="0.5" stroke-miterlimit="10"/>
<path d="M249.864 14.9112C250.551 14.1165 251.815 13.0645 251.815 13.0645" stroke="white" stroke-width="0.5" stroke-miterlimit="10"/>
<path d="M250.679 15.2052C251.32 14.4656 252.69 13.2621 252.69 13.2621" stroke="white" stroke-width="0.5" stroke-miterlimit="10"/>
<path d="M251.494 15.4992C252.09 14.8147 253.445 13.5974 253.445 13.5974" stroke="white" stroke-width="0.5" stroke-miterlimit="10"/>
<path d="M252.31 15.7932C252.855 15.1638 254.141 13.997 254.141 13.997" stroke="white" stroke-width="0.5" stroke-miterlimit="10"/>
<path d="M253.125 16.0872C253.624 15.513 254.741 14.5162 254.741 14.5162" stroke="white" stroke-width="0.5" stroke-miterlimit="10"/>
<path d="M253.94 16.3812C254.389 15.8621 255.264 15.1179 255.264 15.1179" stroke="white" stroke-width="0.5" stroke-miterlimit="10"/>
<path d="M254.755 16.6798C255.158 16.2158 255.712 15.8116 255.712 15.8116" stroke="white" stroke-width="0.5" stroke-miterlimit="10"/>
<path d="M256.157 16.983C255.932 15.9586 255.387 14.9939 254.535 14.2497C252.63 12.596 249.85 12.6189 248 14.1946" stroke="white" stroke-width="0.5" stroke-miterlimit="10"/>
<path d="M262.184 21.4205C262.454 20.3318 262.472 19.0777 262.472 19.0777" stroke="white" stroke-width="0.5" stroke-miterlimit="10"/>
<path d="M261.474 20.9244C261.726 19.9046 261.858 18.2646 261.858 18.2646" stroke="white" stroke-width="0.5" stroke-miterlimit="10"/>
<path d="M260.764 20.4282C260.997 19.4773 261.194 17.6674 261.194 17.6674" stroke="white" stroke-width="0.5" stroke-miterlimit="10"/>
<path d="M260.054 19.9321C260.269 19.0547 260.484 17.2402 260.484 17.2402" stroke="white" stroke-width="0.5" stroke-miterlimit="10"/>
<path d="M259.344 19.436C259.541 18.6275 259.756 16.9049 259.756 16.9049" stroke="white" stroke-width="0.5" stroke-miterlimit="10"/>
<path d="M258.63 18.9445C258.813 18.2049 258.982 16.7165 258.982 16.7165" stroke="white" stroke-width="0.5" stroke-miterlimit="10"/>
<path d="M257.92 18.4484C258.085 17.7823 258.19 16.6384 258.19 16.6384" stroke="white" stroke-width="0.5" stroke-miterlimit="10"/>
<path d="M257.21 17.9522C257.356 17.3551 257.37 16.6706 257.37 16.6706" stroke="white" stroke-width="0.5" stroke-miterlimit="10"/>
<path d="M256.157 16.983C257.123 16.5741 258.227 16.4639 259.326 16.7349C261.776 17.3367 263.361 19.6244 263.141 22.0453" stroke="white" stroke-width="0.5" stroke-miterlimit="10"/>
<path d="M263.26 14.6172C262.523 13.7674 261.515 13.0324 261.515 13.0324" stroke="white" stroke-width="0.5" stroke-miterlimit="10"/>
<path d="M262.445 14.9112C261.758 14.1165 260.494 13.0645 260.494 13.0645" stroke="white" stroke-width="0.5" stroke-miterlimit="10"/>
<path d="M261.63 15.2052C260.988 14.4656 259.619 13.2621 259.619 13.2621" stroke="white" stroke-width="0.5" stroke-miterlimit="10"/>
<path d="M260.814 15.4992C260.219 14.8147 258.863 13.5974 258.863 13.5974" stroke="white" stroke-width="0.5" stroke-miterlimit="10"/>
<path d="M259.999 15.7932C259.454 15.1638 258.167 13.997 258.167 13.997" stroke="white" stroke-width="0.5" stroke-miterlimit="10"/>
<path d="M259.184 16.0872C258.685 15.513 257.567 14.5162 257.567 14.5162" stroke="white" stroke-width="0.5" stroke-miterlimit="10"/>
<path d="M258.369 16.3812C257.92 15.8621 257.045 15.1179 257.045 15.1179" stroke="white" stroke-width="0.5" stroke-miterlimit="10"/>
<path d="M257.553 16.6798C257.15 16.2158 256.596 15.8116 256.596 15.8116" stroke="white" stroke-width="0.5" stroke-miterlimit="10"/>
<path d="M256.157 16.983C256.381 15.9586 256.926 14.9939 257.778 14.2497C259.683 12.596 262.463 12.6189 264.313 14.1946" stroke="white" stroke-width="0.5" stroke-miterlimit="10"/>
<path d="M256.578 16.836V32.1652" stroke="white" stroke-width="0.5" stroke-miterlimit="10"/>
<path d="M255.726 16.8222V32.1652" stroke="white" stroke-width="0.5" stroke-miterlimit="10"/>
<path d="M269.91 20.3134L268.403 22.7802H271.417L269.91 20.3134Z" stroke="white" stroke-width="0.5" stroke-miterlimit="10"/>
<path d="M269.91 26.5701L268.403 29.0369H271.417L269.91 26.5701Z" stroke="white" stroke-width="0.5" stroke-miterlimit="10"/>
<path d="M266.232 23.4418L264.73 25.9086H267.739L266.232 23.4418Z" stroke="white" stroke-width="0.5" stroke-miterlimit="10"/>
<path d="M262.559 26.5701L261.052 29.0369H264.066L262.559 26.5701Z" stroke="white" stroke-width="0.5" stroke-miterlimit="10"/>
<path d="M273.583 23.4418L275.09 25.9086H272.081L273.583 23.4418Z" stroke="white" stroke-width="0.5" stroke-miterlimit="10"/>
<path d="M266.232 29.6984L264.73 32.1652H267.739L266.232 29.6984Z" stroke="white" stroke-width="0.5" stroke-miterlimit="10"/>
<path d="M273.583 29.6984L275.09 32.1652H272.081L273.583 29.6984Z" stroke="white" stroke-width="0.5" stroke-miterlimit="10"/>
<path d="M277.261 26.5701L278.763 29.0369H275.754L277.261 26.5701Z" stroke="white" stroke-width="0.5" stroke-miterlimit="10"/>
<path d="M297.562 7.82312C298.551 7.82312 299.353 7.02102 299.353 6.03157C299.353 5.04213 298.551 4.24002 297.562 4.24002C296.574 4.24002 295.772 5.04213 295.772 6.03157C295.772 7.02102 296.574 7.82312 297.562 7.82312Z" stroke="white" stroke-width="0.5" stroke-miterlimit="10"/>
<path d="M297.237 4.26755C298.071 4.41914 298.703 5.15414 298.703 6.03154C298.703 6.90894 298.071 7.63934 297.237 7.79553" stroke="white" stroke-width="0.5" stroke-miterlimit="10"/>
<path d="M297.562 4.23541V0" stroke="white" stroke-width="0.5" stroke-miterlimit="10"/>
<path d="M297.563 12.0631V7.82309" stroke="white" stroke-width="0.5" stroke-miterlimit="10"/>
<path d="M299.353 6.03152H303.59" stroke="white" stroke-width="0.5" stroke-miterlimit="10"/>
<path d="M292.021 6.03152H295.767" stroke="white" stroke-width="0.5" stroke-miterlimit="10"/>
<path d="M296.867 4.35027L295.703 1.5481" stroke="white" stroke-width="0.5" stroke-miterlimit="10"/>
<path d="M299.417 10.515L298.259 7.71286" stroke="white" stroke-width="0.5" stroke-miterlimit="10"/>
<path d="M299.248 5.32871L302.042 4.17569" stroke="white" stroke-width="0.5" stroke-miterlimit="10"/>
<path d="M293.079 7.88738L295.873 6.72977" stroke="white" stroke-width="0.5" stroke-miterlimit="10"/>
<path d="M296.294 4.76372L293.299 1.76862" stroke="white" stroke-width="0.5" stroke-miterlimit="10"/>
<path d="M301.826 10.2945L298.826 7.29944" stroke="white" stroke-width="0.5" stroke-miterlimit="10"/>
<path d="M298.826 4.76372L301.826 1.76862" stroke="white" stroke-width="0.5" stroke-miterlimit="10"/>
<path d="M293.299 10.2945L296.294 7.29944" stroke="white" stroke-width="0.5" stroke-miterlimit="10"/>
<path d="M295.873 5.32871L293.079 4.17569" stroke="white" stroke-width="0.5" stroke-miterlimit="10"/>
<path d="M302.042 7.88738L299.248 6.72977" stroke="white" stroke-width="0.5" stroke-miterlimit="10"/>
<path d="M298.259 4.35027L299.417 1.5481" stroke="white" stroke-width="0.5" stroke-miterlimit="10"/>
<path d="M295.703 10.515L296.867 7.70825" stroke="white" stroke-width="0.5" stroke-miterlimit="10"/>
<path d="M278.021 21.4205C277.75 20.3318 277.732 19.0777 277.732 19.0777" stroke="white" stroke-width="0.5" stroke-miterlimit="10"/>
<path d="M278.735 20.9244C278.483 19.9046 278.35 18.2646 278.35 18.2646" stroke="white" stroke-width="0.5" stroke-miterlimit="10"/>
<path d="M279.445 20.4282C279.211 19.4773 279.014 17.6674 279.014 17.6674" stroke="white" stroke-width="0.5" stroke-miterlimit="10"/>
<path d="M280.155 19.9321C279.939 19.0547 279.724 17.2402 279.724 17.2402" stroke="white" stroke-width="0.5" stroke-miterlimit="10"/>
<path d="M280.865 19.436C280.668 18.6275 280.453 16.9049 280.453 16.9049" stroke="white" stroke-width="0.5" stroke-miterlimit="10"/>
<path d="M281.575 18.9445C281.391 18.2049 281.222 16.7165 281.222 16.7165" stroke="white" stroke-width="0.5" stroke-miterlimit="10"/>
<path d="M282.284 18.4484C282.12 17.7823 282.014 16.6384 282.014 16.6384" stroke="white" stroke-width="0.5" stroke-miterlimit="10"/>
<path d="M282.994 17.9522C282.848 17.3551 282.834 16.6706 282.834 16.6706" stroke="white" stroke-width="0.5" stroke-miterlimit="10"/>
<path d="M284.052 16.983C283.086 16.5741 281.982 16.4639 280.883 16.7349C278.433 17.3367 276.848 19.6244 277.068 22.0453" stroke="white" stroke-width="0.5" stroke-miterlimit="10"/>
<path d="M276.949 14.6172C277.686 13.7674 278.694 13.0324 278.694 13.0324" stroke="white" stroke-width="0.5" stroke-miterlimit="10"/>
<path d="M277.764 14.9112C278.451 14.1165 279.715 13.0645 279.715 13.0645" stroke="white" stroke-width="0.5" stroke-miterlimit="10"/>
<path d="M278.579 15.2052C279.22 14.4656 280.59 13.2621 280.59 13.2621" stroke="white" stroke-width="0.5" stroke-miterlimit="10"/>
<path d="M279.39 15.4992C279.985 14.8147 281.341 13.5974 281.341 13.5974" stroke="white" stroke-width="0.5" stroke-miterlimit="10"/>
<path d="M280.205 15.7932C280.75 15.1638 282.037 13.997 282.037 13.997" stroke="white" stroke-width="0.5" stroke-miterlimit="10"/>
<path d="M281.02 16.0872C281.519 15.513 282.637 14.5162 282.637 14.5162" stroke="white" stroke-width="0.5" stroke-miterlimit="10"/>
<path d="M281.836 16.3812C282.284 15.8621 283.159 15.1179 283.159 15.1179" stroke="white" stroke-width="0.5" stroke-miterlimit="10"/>
<path d="M282.651 16.6798C283.054 16.2158 283.608 15.8116 283.608 15.8116" stroke="white" stroke-width="0.5" stroke-miterlimit="10"/>
<path d="M284.052 16.983C283.828 15.9586 283.283 14.9939 282.431 14.2497C280.526 12.596 277.746 12.6189 275.896 14.1946" stroke="white" stroke-width="0.5" stroke-miterlimit="10"/>
<path d="M290.079 21.4205C290.349 20.3318 290.368 19.0777 290.368 19.0777" stroke="white" stroke-width="0.5" stroke-miterlimit="10"/>
<path d="M289.369 20.9244C289.621 19.9046 289.754 18.2646 289.754 18.2646" stroke="white" stroke-width="0.5" stroke-miterlimit="10"/>
<path d="M288.659 20.4282C288.893 19.4773 289.09 17.6674 289.09 17.6674" stroke="white" stroke-width="0.5" stroke-miterlimit="10"/>
<path d="M287.95 19.9321C288.165 19.0547 288.38 17.2402 288.38 17.2402" stroke="white" stroke-width="0.5" stroke-miterlimit="10"/>
<path d="M287.24 19.436C287.437 18.6275 287.652 16.9049 287.652 16.9049" stroke="white" stroke-width="0.5" stroke-miterlimit="10"/>
<path d="M286.53 18.9445C286.713 18.2049 286.882 16.7165 286.882 16.7165" stroke="white" stroke-width="0.5" stroke-miterlimit="10"/>
<path d="M285.82 18.4484C285.985 17.7823 286.09 16.6384 286.09 16.6384" stroke="white" stroke-width="0.5" stroke-miterlimit="10"/>
<path d="M285.106 17.9522C285.252 17.3551 285.266 16.6706 285.266 16.6706" stroke="white" stroke-width="0.5" stroke-miterlimit="10"/>
<path d="M284.052 16.983C285.019 16.5741 286.122 16.4639 287.222 16.7349C289.672 17.3367 291.256 19.6244 291.037 22.0453" stroke="white" stroke-width="0.5" stroke-miterlimit="10"/>
<path d="M291.156 14.6172C290.418 13.7674 289.411 13.0324 289.411 13.0324" stroke="white" stroke-width="0.5" stroke-miterlimit="10"/>
<path d="M290.34 14.9112C289.653 14.1165 288.389 13.0645 288.389 13.0645" stroke="white" stroke-width="0.5" stroke-miterlimit="10"/>
<path d="M289.525 15.2052C288.884 14.4656 287.515 13.2621 287.515 13.2621" stroke="white" stroke-width="0.5" stroke-miterlimit="10"/>
<path d="M288.71 15.4992C288.115 14.8147 286.759 13.5974 286.759 13.5974" stroke="white" stroke-width="0.5" stroke-miterlimit="10"/>
<path d="M287.895 15.7932C287.35 15.1638 286.063 13.997 286.063 13.997" stroke="white" stroke-width="0.5" stroke-miterlimit="10"/>
<path d="M287.079 16.0872C286.58 15.513 285.463 14.5162 285.463 14.5162" stroke="white" stroke-width="0.5" stroke-miterlimit="10"/>
<path d="M286.264 16.3812C285.815 15.8621 284.941 15.1179 284.941 15.1179" stroke="white" stroke-width="0.5" stroke-miterlimit="10"/>
<path d="M285.449 16.6798C285.046 16.2158 284.492 15.8116 284.492 15.8116" stroke="white" stroke-width="0.5" stroke-miterlimit="10"/>
<path d="M284.052 16.983C284.277 15.9586 284.822 14.9939 285.674 14.2497C287.579 12.596 290.359 12.6189 292.209 14.1946" stroke="white" stroke-width="0.5" stroke-miterlimit="10"/>
<path d="M284.474 16.836V32.1652" stroke="white" stroke-width="0.5" stroke-miterlimit="10"/>
<path d="M283.622 16.8222V32.1652" stroke="white" stroke-width="0.5" stroke-miterlimit="10"/>
<path d="M297.805 20.3134L296.299 22.7802H299.312L297.805 20.3134Z" stroke="white" stroke-width="0.5" stroke-miterlimit="10"/>
<path d="M297.805 26.5701L296.299 29.0369H299.312L297.805 26.5701Z" stroke="white" stroke-width="0.5" stroke-miterlimit="10"/>
<path d="M294.132 23.4418L292.626 25.9086H295.634L294.132 23.4418Z" stroke="white" stroke-width="0.5" stroke-miterlimit="10"/>
<path d="M290.455 26.5701L288.953 29.0369H291.961L290.455 26.5701Z" stroke="white" stroke-width="0.5" stroke-miterlimit="10"/>
<path d="M301.483 23.4418L302.985 25.9086H299.976L301.483 23.4418Z" stroke="white" stroke-width="0.5" stroke-miterlimit="10"/>
<path d="M294.132 29.6984L292.626 32.1652H295.634L294.132 29.6984Z" stroke="white" stroke-width="0.5" stroke-miterlimit="10"/>
<path d="M301.483 29.6984L302.985 32.1652H299.976L301.483 29.6984Z" stroke="white" stroke-width="0.5" stroke-miterlimit="10"/>
<path d="M305.156 26.5701L306.663 29.0369H303.649L305.156 26.5701Z" stroke="white" stroke-width="0.5" stroke-miterlimit="10"/>
<path d="M325.458 7.82312C326.447 7.82312 327.249 7.02102 327.249 6.03157C327.249 5.04213 326.447 4.24002 325.458 4.24002C324.469 4.24002 323.667 5.04213 323.667 6.03157C323.667 7.02102 324.469 7.82312 325.458 7.82312Z" stroke="white" stroke-width="0.5" stroke-miterlimit="10"/>
<path d="M325.133 4.26755C325.967 4.41914 326.599 5.15414 326.599 6.03154C326.599 6.90894 325.967 7.63934 325.133 7.79553" stroke="white" stroke-width="0.5" stroke-miterlimit="10"/>
<path d="M325.458 4.23541V0" stroke="white" stroke-width="0.5" stroke-miterlimit="10"/>
<path d="M325.458 12.0631V7.82309" stroke="white" stroke-width="0.5" stroke-miterlimit="10"/>
<path d="M327.249 6.03152H331.485" stroke="white" stroke-width="0.5" stroke-miterlimit="10"/>
<path d="M319.917 6.03152H323.667" stroke="white" stroke-width="0.5" stroke-miterlimit="10"/>
<path d="M324.762 4.35027L323.603 1.5481" stroke="white" stroke-width="0.5" stroke-miterlimit="10"/>
<path d="M327.313 10.515L326.154 7.71286" stroke="white" stroke-width="0.5" stroke-miterlimit="10"/>
<path d="M327.148 5.32871L329.937 4.17569" stroke="white" stroke-width="0.5" stroke-miterlimit="10"/>
<path d="M320.979 7.88738L323.768 6.72977" stroke="white" stroke-width="0.5" stroke-miterlimit="10"/>
<path d="M324.19 4.76372L321.194 1.76862" stroke="white" stroke-width="0.5" stroke-miterlimit="10"/>
<path d="M329.722 10.2945L326.727 7.29944" stroke="white" stroke-width="0.5" stroke-miterlimit="10"/>
<path d="M326.727 4.76372L329.722 1.76862" stroke="white" stroke-width="0.5" stroke-miterlimit="10"/>
<path d="M321.194 10.2945L324.19 7.29944" stroke="white" stroke-width="0.5" stroke-miterlimit="10"/>
<path d="M323.768 5.32871L320.979 4.17569" stroke="white" stroke-width="0.5" stroke-miterlimit="10"/>
<path d="M329.937 7.88738L327.148 6.72977" stroke="white" stroke-width="0.5" stroke-miterlimit="10"/>
<path d="M326.154 4.35027L327.313 1.5481" stroke="white" stroke-width="0.5" stroke-miterlimit="10"/>
<path d="M323.603 10.515L324.762 7.70825" stroke="white" stroke-width="0.5" stroke-miterlimit="10"/>
<path d="M305.921 21.4205C305.65 20.3318 305.632 19.0777 305.632 19.0777" stroke="white" stroke-width="0.5" stroke-miterlimit="10"/>
<path d="M306.631 20.9244C306.379 19.9046 306.246 18.2646 306.246 18.2646" stroke="white" stroke-width="0.5" stroke-miterlimit="10"/>
<path d="M307.34 20.4282C307.107 19.4773 306.91 17.6674 306.91 17.6674" stroke="white" stroke-width="0.5" stroke-miterlimit="10"/>
<path d="M308.05 19.9321C307.835 19.0547 307.62 17.2402 307.62 17.2402" stroke="white" stroke-width="0.5" stroke-miterlimit="10"/>
<path d="M308.76 19.436C308.563 18.6275 308.348 16.9049 308.348 16.9049" stroke="white" stroke-width="0.5" stroke-miterlimit="10"/>
<path d="M309.47 18.9445C309.287 18.2049 309.117 16.7165 309.117 16.7165" stroke="white" stroke-width="0.5" stroke-miterlimit="10"/>
<path d="M310.18 18.4484C310.015 17.7823 309.91 16.6384 309.91 16.6384" stroke="white" stroke-width="0.5" stroke-miterlimit="10"/>
<path d="M310.89 17.9522C310.743 17.3551 310.729 16.6706 310.729 16.6706" stroke="white" stroke-width="0.5" stroke-miterlimit="10"/>
<path d="M311.948 16.983C310.981 16.5741 309.878 16.4639 308.778 16.7349C306.328 17.3367 304.744 19.6244 304.963 22.0453" stroke="white" stroke-width="0.5" stroke-miterlimit="10"/>
<path d="M304.845 14.6172C305.582 13.7674 306.589 13.0324 306.589 13.0324" stroke="white" stroke-width="0.5" stroke-miterlimit="10"/>
<path d="M305.66 14.9112C306.347 14.1165 307.611 13.0645 307.611 13.0645" stroke="white" stroke-width="0.5" stroke-miterlimit="10"/>
<path d="M306.475 15.2052C307.116 14.4656 308.485 13.2621 308.485 13.2621" stroke="white" stroke-width="0.5" stroke-miterlimit="10"/>
<path d="M307.29 15.4992C307.885 14.8147 309.241 13.5974 309.241 13.5974" stroke="white" stroke-width="0.5" stroke-miterlimit="10"/>
<path d="M308.105 15.7932C308.65 15.1638 309.937 13.997 309.937 13.997" stroke="white" stroke-width="0.5" stroke-miterlimit="10"/>
<path d="M308.92 16.0872C309.42 15.513 310.537 14.5162 310.537 14.5162" stroke="white" stroke-width="0.5" stroke-miterlimit="10"/>
<path d="M309.736 16.3812C310.184 15.8621 311.059 15.1179 311.059 15.1179" stroke="white" stroke-width="0.5" stroke-miterlimit="10"/>
<path d="M310.546 16.6798C310.949 16.2158 311.503 15.8116 311.503 15.8116" stroke="white" stroke-width="0.5" stroke-miterlimit="10"/>
<path d="M311.948 16.983C311.723 15.9586 311.178 14.9939 310.326 14.2497C308.421 12.596 305.641 12.6189 303.791 14.1946" stroke="white" stroke-width="0.5" stroke-miterlimit="10"/>
<path d="M317.975 21.4205C318.245 20.3318 318.263 19.0777 318.263 19.0777" stroke="white" stroke-width="0.5" stroke-miterlimit="10"/>
<path d="M317.265 20.9244C317.517 19.9046 317.649 18.2646 317.649 18.2646" stroke="white" stroke-width="0.5" stroke-miterlimit="10"/>
<path d="M316.555 20.4282C316.789 19.4773 316.985 17.6674 316.985 17.6674" stroke="white" stroke-width="0.5" stroke-miterlimit="10"/>
<path d="M315.845 19.9321C316.06 19.0547 316.276 17.2402 316.276 17.2402" stroke="white" stroke-width="0.5" stroke-miterlimit="10"/>
<path d="M315.135 19.436C315.332 18.6275 315.547 16.9049 315.547 16.9049" stroke="white" stroke-width="0.5" stroke-miterlimit="10"/>
<path d="M314.425 18.9445C314.608 18.2049 314.778 16.7165 314.778 16.7165" stroke="white" stroke-width="0.5" stroke-miterlimit="10"/>
<path d="M313.715 18.4484C313.88 17.7823 313.986 16.6384 313.986 16.6384" stroke="white" stroke-width="0.5" stroke-miterlimit="10"/>
<path d="M313.006 17.9522C313.152 17.3551 313.166 16.6706 313.166 16.6706" stroke="white" stroke-width="0.5" stroke-miterlimit="10"/>
<path d="M311.948 16.983C312.914 16.5741 314.018 16.4639 315.117 16.7349C317.567 17.3367 319.152 19.6244 318.932 22.0453" stroke="white" stroke-width="0.5" stroke-miterlimit="10"/>
<path d="M319.051 14.6172C318.314 13.7674 317.306 13.0324 317.306 13.0324" stroke="white" stroke-width="0.5" stroke-miterlimit="10"/>
<path d="M318.236 14.9112C317.549 14.1165 316.285 13.0645 316.285 13.0645" stroke="white" stroke-width="0.5" stroke-miterlimit="10"/>
<path d="M317.421 15.2052C316.779 14.4656 315.41 13.2621 315.41 13.2621" stroke="white" stroke-width="0.5" stroke-miterlimit="10"/>
<path d="M316.605 15.4992C316.01 14.8147 314.654 13.5974 314.654 13.5974" stroke="white" stroke-width="0.5" stroke-miterlimit="10"/>
<path d="M315.79 15.7932C315.245 15.1638 313.958 13.997 313.958 13.997" stroke="white" stroke-width="0.5" stroke-miterlimit="10"/>
<path d="M314.975 16.0872C314.476 15.513 313.358 14.5162 313.358 14.5162" stroke="white" stroke-width="0.5" stroke-miterlimit="10"/>
<path d="M314.16 16.3812C313.711 15.8621 312.836 15.1179 312.836 15.1179" stroke="white" stroke-width="0.5" stroke-miterlimit="10"/>
<path d="M313.349 16.6798C312.946 16.2158 312.392 15.8116 312.392 15.8116" stroke="white" stroke-width="0.5" stroke-miterlimit="10"/>
<path d="M311.948 16.983C312.172 15.9586 312.717 14.9939 313.569 14.2497C315.474 12.596 318.254 12.6189 320.104 14.1946" stroke="white" stroke-width="0.5" stroke-miterlimit="10"/>
<path d="M312.369 16.836V32.1652" stroke="white" stroke-width="0.5" stroke-miterlimit="10"/>
<path d="M311.522 16.8222V32.1652" stroke="white" stroke-width="0.5" stroke-miterlimit="10"/>
<path d="M325.701 20.3134L324.199 22.7802H327.208L325.701 20.3134Z" stroke="white" stroke-width="0.5" stroke-miterlimit="10"/>
<path d="M325.701 26.5701L324.199 29.0369H327.208L325.701 26.5701Z" stroke="white" stroke-width="0.5" stroke-miterlimit="10"/>
<path d="M322.028 23.4418L320.521 25.9086H323.535L322.028 23.4418Z" stroke="white" stroke-width="0.5" stroke-miterlimit="10"/>
<path d="M318.35 26.5701L316.848 29.0369H319.857L318.35 26.5701Z" stroke="white" stroke-width="0.5" stroke-miterlimit="10"/>
<path d="M329.379 23.4418L330.881 25.9086H327.872L329.379 23.4418Z" stroke="white" stroke-width="0.5" stroke-miterlimit="10"/>
<path d="M322.028 29.6984L320.521 32.1652H323.535L322.028 29.6984Z" stroke="white" stroke-width="0.5" stroke-miterlimit="10"/>
<path d="M329.379 29.6984L330.881 32.1652H327.872L329.379 29.6984Z" stroke="white" stroke-width="0.5" stroke-miterlimit="10"/>
<path d="M333.051 26.5701L334.558 29.0369H331.545L333.051 26.5701Z" stroke="white" stroke-width="0.5" stroke-miterlimit="10"/>
<path d="M333.816 21.4205C333.546 20.3318 333.528 19.0777 333.528 19.0777" stroke="white" stroke-width="0.5" stroke-miterlimit="10"/>
<path d="M334.526 20.9244C334.274 19.9046 334.142 18.2646 334.142 18.2646" stroke="white" stroke-width="0.5" stroke-miterlimit="10"/>
<path d="M335.236 20.4282C335.003 19.4773 334.806 17.6674 334.806 17.6674" stroke="white" stroke-width="0.5" stroke-miterlimit="10"/>
<path d="M335.946 19.9321C335.731 19.0547 335.516 17.2402 335.516 17.2402" stroke="white" stroke-width="0.5" stroke-miterlimit="10"/>
<path d="M336.656 19.436C336.459 18.6275 336.244 16.9049 336.244 16.9049" stroke="white" stroke-width="0.5" stroke-miterlimit="10"/>
<path d="M337.366 18.9445C337.182 18.2049 337.013 16.7165 337.013 16.7165" stroke="white" stroke-width="0.5" stroke-miterlimit="10"/>
<path d="M338.076 18.4484C337.911 17.7823 337.805 16.6384 337.805 16.6384" stroke="white" stroke-width="0.5" stroke-miterlimit="10"/>
<path d="M338.79 17.9522C338.643 17.3551 338.63 16.6706 338.63 16.6706" stroke="white" stroke-width="0.5" stroke-miterlimit="10"/>
<path d="M339.843 16.983C338.877 16.5741 337.773 16.4639 336.674 16.7349C334.224 17.3367 332.639 19.6244 332.859 22.0453" stroke="white" stroke-width="0.5" stroke-miterlimit="10"/>
<path d="M332.74 14.6172C333.478 13.7674 334.485 13.0324 334.485 13.0324" stroke="white" stroke-width="0.5" stroke-miterlimit="10"/>
<path d="M333.555 14.9112C334.242 14.1165 335.506 13.0645 335.506 13.0645" stroke="white" stroke-width="0.5" stroke-miterlimit="10"/>
<path d="M334.371 15.2052C335.012 14.4656 336.381 13.2621 336.381 13.2621" stroke="white" stroke-width="0.5" stroke-miterlimit="10"/>
<path d="M335.186 15.4992C335.781 14.8147 337.137 13.5974 337.137 13.5974" stroke="white" stroke-width="0.5" stroke-miterlimit="10"/>
<path d="M336.001 15.7932C336.546 15.1638 337.833 13.997 337.833 13.997" stroke="white" stroke-width="0.5" stroke-miterlimit="10"/>
<path d="M336.816 16.0872C337.315 15.513 338.433 14.5162 338.433 14.5162" stroke="white" stroke-width="0.5" stroke-miterlimit="10"/>
<path d="M337.631 16.3812C338.08 15.8621 338.955 15.1179 338.955 15.1179" stroke="white" stroke-width="0.5" stroke-miterlimit="10"/>
<path d="M338.447 16.6798C338.85 16.2158 339.404 15.8116 339.404 15.8116" stroke="white" stroke-width="0.5" stroke-miterlimit="10"/>
<path d="M339.843 16.983C339.619 15.9586 339.074 14.9939 338.222 14.2497C336.317 12.596 333.537 12.6189 331.687 14.1946" stroke="white" stroke-width="0.5" stroke-miterlimit="10"/>
<path d="M345.875 21.4205C346.145 20.3318 346.164 19.0777 346.164 19.0777" stroke="white" stroke-width="0.5" stroke-miterlimit="10"/>
<path d="M345.161 20.9244C345.412 19.9046 345.545 18.2646 345.545 18.2646" stroke="white" stroke-width="0.5" stroke-miterlimit="10"/>
<path d="M344.451 20.4282C344.684 19.4773 344.881 17.6674 344.881 17.6674" stroke="white" stroke-width="0.5" stroke-miterlimit="10"/>
<path d="M343.741 19.9321C343.956 19.0547 344.171 17.2402 344.171 17.2402" stroke="white" stroke-width="0.5" stroke-miterlimit="10"/>
<path d="M343.031 19.436C343.228 18.6275 343.443 16.9049 343.443 16.9049" stroke="white" stroke-width="0.5" stroke-miterlimit="10"/>
<path d="M342.321 18.9445C342.504 18.2049 342.674 16.7165 342.674 16.7165" stroke="white" stroke-width="0.5" stroke-miterlimit="10"/>
<path d="M341.611 18.4484C341.776 17.7823 341.881 16.6384 341.881 16.6384" stroke="white" stroke-width="0.5" stroke-miterlimit="10"/>
<path d="M340.901 17.9522C341.048 17.3551 341.062 16.6706 341.062 16.6706" stroke="white" stroke-width="0.5" stroke-miterlimit="10"/>
<path d="M339.843 16.983C340.81 16.5741 341.913 16.4639 343.013 16.7349C345.463 17.3367 347.047 19.6244 346.828 22.0453" stroke="white" stroke-width="0.5" stroke-miterlimit="10"/>
<path d="M346.947 14.6172C346.209 13.7674 345.202 13.0324 345.202 13.0324" stroke="white" stroke-width="0.5" stroke-miterlimit="10"/>
<path d="M346.131 14.9112C345.444 14.1165 344.18 13.0645 344.18 13.0645" stroke="white" stroke-width="0.5" stroke-miterlimit="10"/>
<path d="M345.316 15.2052C344.675 14.4656 343.306 13.2621 343.306 13.2621" stroke="white" stroke-width="0.5" stroke-miterlimit="10"/>
<path d="M344.506 15.4992C343.91 14.8147 342.555 13.5974 342.555 13.5974" stroke="white" stroke-width="0.5" stroke-miterlimit="10"/>
<path d="M343.69 15.7932C343.145 15.1638 341.858 13.997 341.858 13.997" stroke="white" stroke-width="0.5" stroke-miterlimit="10"/>
<path d="M342.875 16.0872C342.376 15.513 341.259 14.5162 341.259 14.5162" stroke="white" stroke-width="0.5" stroke-miterlimit="10"/>
<path d="M342.06 16.3812C341.611 15.8621 340.737 15.1179 340.737 15.1179" stroke="white" stroke-width="0.5" stroke-miterlimit="10"/>
<path d="M341.245 16.6798C340.842 16.2158 340.288 15.8116 340.288 15.8116" stroke="white" stroke-width="0.5" stroke-miterlimit="10"/>
<path d="M339.843 16.983C340.068 15.9586 340.613 14.9939 341.465 14.2497C343.37 12.596 346.15 12.6189 348 14.1946" stroke="white" stroke-width="0.5" stroke-miterlimit="10"/>
<path d="M340.265 16.836V32.1652" stroke="white" stroke-width="0.5" stroke-miterlimit="10"/>
<path d="M339.418 16.8222V32.1652" stroke="white" stroke-width="0.5" stroke-miterlimit="10"/>
<path d="M22.667 7.82426C23.656 7.82426 24.4578 7.02204 24.4578 6.03245C24.4578 5.04285 23.656 4.24063 22.667 4.24063C21.6781 4.24063 20.8763 5.04285 20.8763 6.03245C20.8763 7.02204 21.6781 7.82426 22.667 7.82426Z" stroke="white" stroke-width="0.5" stroke-miterlimit="10"/>
<path d="M22.3373 4.26819C23.1708 4.4198 23.8028 5.15491 23.8028 6.03244C23.8028 6.90997 23.1708 7.64048 22.3373 7.79669" stroke="white" stroke-width="0.5" stroke-miterlimit="10"/>
<path d="M22.667 4.23604V0" stroke="white" stroke-width="0.5" stroke-miterlimit="10"/>
<path d="M22.667 12.0649V7.82425" stroke="white" stroke-width="0.5" stroke-miterlimit="10"/>
<path d="M24.4577 6.03244H28.694" stroke="white" stroke-width="0.5" stroke-miterlimit="10"/>
<path d="M17.1255 6.03244H20.8717" stroke="white" stroke-width="0.5" stroke-miterlimit="10"/>
<path d="M21.9708 4.35089L20.8075 1.54831" stroke="white" stroke-width="0.5" stroke-miterlimit="10"/>
<path d="M24.5218 10.5166L23.3631 7.71402" stroke="white" stroke-width="0.5" stroke-miterlimit="10"/>
<path d="M24.3523 5.32949L27.146 4.1763" stroke="white" stroke-width="0.5" stroke-miterlimit="10"/>
<path d="M18.1833 7.88853L20.977 6.73074" stroke="white" stroke-width="0.5" stroke-miterlimit="10"/>
<path d="M21.3985 4.76441L18.4033 1.76886" stroke="white" stroke-width="0.5" stroke-miterlimit="10"/>
<path d="M26.9262 10.2961L23.931 7.30051" stroke="white" stroke-width="0.5" stroke-miterlimit="10"/>
<path d="M23.931 4.76441L26.9262 1.76886" stroke="white" stroke-width="0.5" stroke-miterlimit="10"/>
<path d="M18.4033 10.2961L21.3985 7.30051" stroke="white" stroke-width="0.5" stroke-miterlimit="10"/>
<path d="M20.977 5.32949L18.1833 4.1763" stroke="white" stroke-width="0.5" stroke-miterlimit="10"/>
<path d="M27.146 7.88853L24.3523 6.73074" stroke="white" stroke-width="0.5" stroke-miterlimit="10"/>
<path d="M23.3586 4.35089L24.5218 1.54831" stroke="white" stroke-width="0.5" stroke-miterlimit="10"/>
<path d="M20.8075 10.5166L21.9708 7.70938" stroke="white" stroke-width="0.5" stroke-miterlimit="10"/>
<path d="M3.12492 21.4236C2.85471 20.3348 2.8364 19.0805 2.8364 19.0805" stroke="white" stroke-width="0.5" stroke-miterlimit="10"/>
<path d="M3.83487 20.9275C3.58298 19.9075 3.45016 18.2673 3.45016 18.2673" stroke="white" stroke-width="0.5" stroke-miterlimit="10"/>
<path d="M4.54473 20.4313C4.31116 19.4802 4.11423 17.67 4.11423 17.67" stroke="white" stroke-width="0.5" stroke-miterlimit="10"/>
<path d="M5.25462 19.9351C5.03937 19.0576 4.82413 17.2428 4.82413 17.2428" stroke="white" stroke-width="0.5" stroke-miterlimit="10"/>
<path d="M5.96895 19.4389C5.77202 18.6303 5.55676 16.9074 5.55676 16.9074" stroke="white" stroke-width="0.5" stroke-miterlimit="10"/>
<path d="M6.67899 18.9473C6.4958 18.2076 6.32635 16.719 6.32635 16.719" stroke="white" stroke-width="0.5" stroke-miterlimit="10"/>
<path d="M7.38886 18.4511C7.22399 17.7849 7.11865 16.6409 7.11865 16.6409" stroke="white" stroke-width="0.5" stroke-miterlimit="10"/>
<path d="M8.09774 17.9549C7.95193 17.3576 7.93826 16.6731 7.93826 16.6731" stroke="white" stroke-width="0.5" stroke-miterlimit="10"/>
<path d="M9.15654 16.9855C8.19021 16.5766 7.08647 16.4663 5.98732 16.7374C3.53712 17.3393 1.95251 19.6273 2.17234 22.0485" stroke="white" stroke-width="0.5" stroke-miterlimit="10"/>
<path d="M2.04865 14.6192C2.78599 13.7693 3.79355 13.0342 3.79355 13.0342" stroke="white" stroke-width="0.5" stroke-miterlimit="10"/>
<path d="M2.86389 14.9134C3.55086 14.1186 4.81489 13.0665 4.81489 13.0665" stroke="white" stroke-width="0.5" stroke-miterlimit="10"/>
<path d="M3.67923 15.2075C4.3204 14.4678 5.68977 13.264 5.68977 13.264" stroke="white" stroke-width="0.5" stroke-miterlimit="10"/>
<path d="M4.49445 15.5015C5.08982 14.8169 6.44544 13.5994 6.44544 13.5994" stroke="white" stroke-width="0.5" stroke-miterlimit="10"/>
<path d="M5.30948 15.7955C5.85448 15.1661 7.1414 13.9991 7.1414 13.9991" stroke="white" stroke-width="0.5" stroke-miterlimit="10"/>
<path d="M6.12473 16.0896C6.62392 15.5153 7.7414 14.5183 7.7414 14.5183" stroke="white" stroke-width="0.5" stroke-miterlimit="10"/>
<path d="M6.93997 16.3836C7.38879 15.8644 8.26354 15.1201 8.26354 15.1201" stroke="white" stroke-width="0.5" stroke-miterlimit="10"/>
<path d="M7.75513 16.6822C8.15815 16.2182 8.7123 15.8139 8.7123 15.8139" stroke="white" stroke-width="0.5" stroke-miterlimit="10"/>
<path d="M9.15663 16.9855C8.93222 15.9609 8.38723 14.9961 7.53538 14.2518C5.63018 12.5978 2.85024 12.6208 1 14.1967" stroke="white" stroke-width="0.5" stroke-miterlimit="10"/>
<path d="M15.1837 21.4236C15.4539 20.3348 15.4722 19.0805 15.4722 19.0805" stroke="white" stroke-width="0.5" stroke-miterlimit="10"/>
<path d="M14.4738 20.9275C14.7256 19.9075 14.8585 18.2673 14.8585 18.2673" stroke="white" stroke-width="0.5" stroke-miterlimit="10"/>
<path d="M13.7638 20.4313C13.9974 19.4802 14.1943 17.67 14.1943 17.67" stroke="white" stroke-width="0.5" stroke-miterlimit="10"/>
<path d="M13.0539 19.9351C13.2691 19.0576 13.4844 17.2428 13.4844 17.2428" stroke="white" stroke-width="0.5" stroke-miterlimit="10"/>
<path d="M12.344 19.4389C12.541 18.6303 12.7562 16.9074 12.7562 16.9074" stroke="white" stroke-width="0.5" stroke-miterlimit="10"/>
<path d="M11.6298 18.9473C11.813 18.2076 11.9824 16.719 11.9824 16.719" stroke="white" stroke-width="0.5" stroke-miterlimit="10"/>
<path d="M10.9197 18.4511C11.0846 17.7849 11.1899 16.6409 11.1899 16.6409" stroke="white" stroke-width="0.5" stroke-miterlimit="10"/>
<path d="M10.2099 17.9549C10.3557 17.3576 10.3694 16.6731 10.3694 16.6731" stroke="white" stroke-width="0.5" stroke-miterlimit="10"/>
<path d="M9.15652 16.9855C10.1229 16.5766 11.2266 16.4663 12.3257 16.7374C14.7759 17.3393 16.3606 19.6273 16.1407 22.0485" stroke="white" stroke-width="0.5" stroke-miterlimit="10"/>
<path d="M16.2599 14.6192C15.5226 13.7693 14.515 13.0342 14.515 13.0342" stroke="white" stroke-width="0.5" stroke-miterlimit="10"/>
<path d="M15.4446 14.9134C14.7577 14.1186 13.4937 13.0665 13.4937 13.0665" stroke="white" stroke-width="0.5" stroke-miterlimit="10"/>
<path d="M14.6296 15.2075C13.9884 14.4678 12.619 13.264 12.619 13.264" stroke="white" stroke-width="0.5" stroke-miterlimit="10"/>
<path d="M13.8142 15.5015C13.2188 14.8169 11.8632 13.5994 11.8632 13.5994" stroke="white" stroke-width="0.5" stroke-miterlimit="10"/>
<path d="M12.9991 15.7955C12.4541 15.1661 11.1672 13.9991 11.1672 13.9991" stroke="white" stroke-width="0.5" stroke-miterlimit="10"/>
<path d="M12.1838 16.0896C11.6846 15.5153 10.5672 14.5183 10.5672 14.5183" stroke="white" stroke-width="0.5" stroke-miterlimit="10"/>
<path d="M11.3687 16.3836C10.9198 15.8644 10.0451 15.1201 10.0451 15.1201" stroke="white" stroke-width="0.5" stroke-miterlimit="10"/>
<path d="M10.5533 16.6822C10.1503 16.2182 9.59613 15.8139 9.59613 15.8139" stroke="white" stroke-width="0.5" stroke-miterlimit="10"/>
<path d="M9.15652 16.9855C9.38094 15.9609 9.92594 14.9961 10.7778 14.2518C12.683 12.5978 15.4629 12.6208 17.3132 14.1967" stroke="white" stroke-width="0.5" stroke-miterlimit="10"/>
<path d="M9.57797 16.8385V32.17" stroke="white" stroke-width="0.5" stroke-miterlimit="10"/>
<path d="M8.72604 16.8247V32.17" stroke="white" stroke-width="0.5" stroke-miterlimit="10"/>
<path d="M22.9098 20.3164L21.403 22.7836H24.4165L22.9098 20.3164Z" stroke="white" stroke-width="0.5" stroke-miterlimit="10"/>
<path d="M22.9098 26.574L21.403 29.0412H24.4165L22.9098 26.574Z" stroke="white" stroke-width="0.5" stroke-miterlimit="10"/>
<path d="M19.2322 23.4453L17.73 25.9124H20.7389L19.2322 23.4453Z" stroke="white" stroke-width="0.5" stroke-miterlimit="10"/>
<path d="M15.5592 26.574L14.0524 29.0412H17.0659L15.5592 26.574Z" stroke="white" stroke-width="0.5" stroke-miterlimit="10"/>
<path d="M26.5827 23.4453L28.0895 25.9124H25.0806L26.5827 23.4453Z" stroke="white" stroke-width="0.5" stroke-miterlimit="10"/>
<path d="M19.2322 29.7028L17.73 32.1699H20.7389L19.2322 29.7028Z" stroke="white" stroke-width="0.5" stroke-miterlimit="10"/>
<path d="M26.5827 29.7028L28.0895 32.1699H25.0806L26.5827 29.7028Z" stroke="white" stroke-width="0.5" stroke-miterlimit="10"/>
<path d="M30.2605 26.574L31.7627 29.0412H28.7537L30.2605 26.574Z" stroke="white" stroke-width="0.5" stroke-miterlimit="10"/>
<path d="M50.5625 7.82426C51.5515 7.82426 52.3532 7.02204 52.3532 6.03245C52.3532 5.04285 51.5515 4.24063 50.5625 4.24063C49.5735 4.24063 48.7718 5.04285 48.7718 6.03245C48.7718 7.02204 49.5735 7.82426 50.5625 7.82426Z" stroke="white" stroke-width="0.5" stroke-miterlimit="10"/>
<path d="M50.2374 4.26819C51.071 4.4198 51.703 5.15491 51.703 6.03244C51.703 6.90997 51.071 7.64048 50.2374 7.79669" stroke="white" stroke-width="0.5" stroke-miterlimit="10"/>
<path d="M50.5625 4.23604V0" stroke="white" stroke-width="0.5" stroke-miterlimit="10"/>
<path d="M50.5626 12.0649V7.82425" stroke="white" stroke-width="0.5" stroke-miterlimit="10"/>
<path d="M52.3532 6.03244H56.5895" stroke="white" stroke-width="0.5" stroke-miterlimit="10"/>
<path d="M45.021 6.03244H48.7673" stroke="white" stroke-width="0.5" stroke-miterlimit="10"/>
<path d="M49.8666 4.35089L48.7033 1.54831" stroke="white" stroke-width="0.5" stroke-miterlimit="10"/>
<path d="M52.4174 10.5166L51.2587 7.71402" stroke="white" stroke-width="0.5" stroke-miterlimit="10"/>
<path d="M52.2479 5.32949L55.0416 4.1763" stroke="white" stroke-width="0.5" stroke-miterlimit="10"/>
<path d="M46.0789 7.88853L48.8726 6.73074" stroke="white" stroke-width="0.5" stroke-miterlimit="10"/>
<path d="M49.2939 4.76441L46.2987 1.76886" stroke="white" stroke-width="0.5" stroke-miterlimit="10"/>
<path d="M54.8263 10.2961L51.8265 7.30051" stroke="white" stroke-width="0.5" stroke-miterlimit="10"/>
<path d="M51.8265 4.76441L54.8263 1.76886" stroke="white" stroke-width="0.5" stroke-miterlimit="10"/>
<path d="M46.2987 10.2961L49.2939 7.30051" stroke="white" stroke-width="0.5" stroke-miterlimit="10"/>
<path d="M48.8726 5.32949L46.0789 4.1763" stroke="white" stroke-width="0.5" stroke-miterlimit="10"/>
<path d="M55.0416 7.88853L52.2479 6.73074" stroke="white" stroke-width="0.5" stroke-miterlimit="10"/>
<path d="M51.2587 4.35089L52.4174 1.54831" stroke="white" stroke-width="0.5" stroke-miterlimit="10"/>
<path d="M48.7033 10.5166L49.8666 7.70938" stroke="white" stroke-width="0.5" stroke-miterlimit="10"/>
<path d="M31.0207 21.4236C30.7505 20.3348 30.7322 19.0805 30.7322 19.0805" stroke="white" stroke-width="0.5" stroke-miterlimit="10"/>
<path d="M31.735 20.9275C31.4832 19.9075 31.3503 18.2673 31.3503 18.2673" stroke="white" stroke-width="0.5" stroke-miterlimit="10"/>
<path d="M32.4447 20.4313C32.2112 19.4802 32.0142 17.67 32.0142 17.67" stroke="white" stroke-width="0.5" stroke-miterlimit="10"/>
<path d="M33.1547 19.9351C32.9395 19.0576 32.7242 17.2428 32.7242 17.2428" stroke="white" stroke-width="0.5" stroke-miterlimit="10"/>
<path d="M33.8647 19.4389C33.6678 18.6303 33.4525 16.9074 33.4525 16.9074" stroke="white" stroke-width="0.5" stroke-miterlimit="10"/>
<path d="M34.5745 18.9473C34.3913 18.2076 34.2219 16.719 34.2219 16.719" stroke="white" stroke-width="0.5" stroke-miterlimit="10"/>
<path d="M35.2844 18.4511C35.1196 17.7849 35.0142 16.6409 35.0142 16.6409" stroke="white" stroke-width="0.5" stroke-miterlimit="10"/>
<path d="M35.9935 17.9549C35.8477 17.3576 35.834 16.6731 35.834 16.6731" stroke="white" stroke-width="0.5" stroke-miterlimit="10"/>
<path d="M37.0522 16.9855C36.0859 16.5766 34.9822 16.4663 33.883 16.7374C31.4328 17.3393 29.8482 19.6273 30.068 22.0485" stroke="white" stroke-width="0.5" stroke-miterlimit="10"/>
<path d="M29.949 14.6192C30.6863 13.7693 31.6939 13.0342 31.6939 13.0342" stroke="white" stroke-width="0.5" stroke-miterlimit="10"/>
<path d="M30.7641 14.9134C31.4511 14.1186 32.7151 13.0665 32.7151 13.0665" stroke="white" stroke-width="0.5" stroke-miterlimit="10"/>
<path d="M31.5792 15.2075C32.2204 14.4678 33.5898 13.264 33.5898 13.264" stroke="white" stroke-width="0.5" stroke-miterlimit="10"/>
<path d="M32.39 15.5015C32.9854 14.8169 34.341 13.5994 34.341 13.5994" stroke="white" stroke-width="0.5" stroke-miterlimit="10"/>
<path d="M33.2051 15.7955C33.7501 15.1661 35.0371 13.9991 35.0371 13.9991" stroke="white" stroke-width="0.5" stroke-miterlimit="10"/>
<path d="M34.0203 16.0896C34.5195 15.5153 35.6369 14.5183 35.6369 14.5183" stroke="white" stroke-width="0.5" stroke-miterlimit="10"/>
<path d="M34.8355 16.3836C35.2843 15.8644 36.1591 15.1201 36.1591 15.1201" stroke="white" stroke-width="0.5" stroke-miterlimit="10"/>
<path d="M35.6508 16.6822C36.0538 16.2182 36.6079 15.8139 36.6079 15.8139" stroke="white" stroke-width="0.5" stroke-miterlimit="10"/>
<path d="M37.0522 16.9855C36.8278 15.9609 36.2828 14.9961 35.4309 14.2518C33.5257 12.5978 30.7458 12.6208 28.8956 14.1967" stroke="white" stroke-width="0.5" stroke-miterlimit="10"/>
<path d="M43.0793 21.4236C43.3495 20.3348 43.3678 19.0805 43.3678 19.0805" stroke="white" stroke-width="0.5" stroke-miterlimit="10"/>
<path d="M42.3694 20.9275C42.6213 19.9075 42.7541 18.2673 42.7541 18.2673" stroke="white" stroke-width="0.5" stroke-miterlimit="10"/>
<path d="M41.6595 20.4313C41.8931 19.4802 42.09 17.67 42.09 17.67" stroke="white" stroke-width="0.5" stroke-miterlimit="10"/>
<path d="M40.9496 19.9351C41.1649 19.0576 41.3801 17.2428 41.3801 17.2428" stroke="white" stroke-width="0.5" stroke-miterlimit="10"/>
<path d="M40.2398 19.4389C40.4367 18.6303 40.652 16.9074 40.652 16.9074" stroke="white" stroke-width="0.5" stroke-miterlimit="10"/>
<path d="M39.5298 18.9473C39.713 18.2076 39.8824 16.719 39.8824 16.719" stroke="white" stroke-width="0.5" stroke-miterlimit="10"/>
<path d="M38.82 18.4511C38.9849 17.7849 39.0902 16.6409 39.0902 16.6409" stroke="white" stroke-width="0.5" stroke-miterlimit="10"/>
<path d="M38.1056 17.9549C38.2514 17.3576 38.2651 16.6731 38.2651 16.6731" stroke="white" stroke-width="0.5" stroke-miterlimit="10"/>
<path d="M37.0523 16.9855C38.0186 16.5766 39.1224 16.4663 40.2215 16.7374C42.6717 17.3393 44.2563 19.6273 44.0365 22.0485" stroke="white" stroke-width="0.5" stroke-miterlimit="10"/>
<path d="M44.1555 14.6192C43.4182 13.7693 42.4106 13.0342 42.4106 13.0342" stroke="white" stroke-width="0.5" stroke-miterlimit="10"/>
<path d="M43.3404 14.9134C42.6534 14.1186 41.3894 13.0665 41.3894 13.0665" stroke="white" stroke-width="0.5" stroke-miterlimit="10"/>
<path d="M42.5251 15.2075C41.8839 14.4678 40.5146 13.264 40.5146 13.264" stroke="white" stroke-width="0.5" stroke-miterlimit="10"/>
<path d="M41.7099 15.5015C41.1145 14.8169 39.7589 13.5994 39.7589 13.5994" stroke="white" stroke-width="0.5" stroke-miterlimit="10"/>
<path d="M40.8947 15.7955C40.3497 15.1661 39.0627 13.9991 39.0627 13.9991" stroke="white" stroke-width="0.5" stroke-miterlimit="10"/>
<path d="M40.0794 16.0896C39.5802 15.5153 38.4628 14.5183 38.4628 14.5183" stroke="white" stroke-width="0.5" stroke-miterlimit="10"/>
<path d="M39.2642 16.3836C38.8154 15.8644 37.9407 15.1201 37.9407 15.1201" stroke="white" stroke-width="0.5" stroke-miterlimit="10"/>
<path d="M38.4491 16.6822C38.046 16.2182 37.4919 15.8139 37.4919 15.8139" stroke="white" stroke-width="0.5" stroke-miterlimit="10"/>
<path d="M37.0523 16.9855C37.2767 15.9609 37.8217 14.9961 38.6736 14.2518C40.5788 12.5978 43.3587 12.6208 45.2089 14.1967" stroke="white" stroke-width="0.5" stroke-miterlimit="10"/>
<path d="M37.4735 16.8385V32.17" stroke="white" stroke-width="0.5" stroke-miterlimit="10"/>
<path d="M36.6216 16.8247V32.17" stroke="white" stroke-width="0.5" stroke-miterlimit="10"/>
<path d="M50.8053 20.3164L49.2985 22.7836H52.312L50.8053 20.3164Z" stroke="white" stroke-width="0.5" stroke-miterlimit="10"/>
<path d="M50.8053 26.574L49.2985 29.0412H52.312L50.8053 26.574Z" stroke="white" stroke-width="0.5" stroke-miterlimit="10"/>
<path d="M47.1323 23.4453L45.6255 25.9124H48.6345L47.1323 23.4453Z" stroke="white" stroke-width="0.5" stroke-miterlimit="10"/>
<path d="M43.4547 26.574L41.9525 29.0412H44.9614L43.4547 26.574Z" stroke="white" stroke-width="0.5" stroke-miterlimit="10"/>
<path d="M54.483 23.4453L55.9852 25.9124H52.9763L54.483 23.4453Z" stroke="white" stroke-width="0.5" stroke-miterlimit="10"/>
<path d="M47.1323 29.7028L45.6255 32.1699H48.6345L47.1323 29.7028Z" stroke="white" stroke-width="0.5" stroke-miterlimit="10"/>
<path d="M54.483 29.7028L55.9852 32.1699H52.9763L54.483 29.7028Z" stroke="white" stroke-width="0.5" stroke-miterlimit="10"/>
<path d="M58.1559 26.574L59.6626 29.0412H56.6491L58.1559 26.574Z" stroke="white" stroke-width="0.5" stroke-miterlimit="10"/>
<path d="M78.4581 7.82426C79.4471 7.82426 80.2488 7.02204 80.2488 6.03245C80.2488 5.04285 79.4471 4.24063 78.4581 4.24063C77.4691 4.24063 76.6674 5.04285 76.6674 6.03245C76.6674 7.02204 77.4691 7.82426 78.4581 7.82426Z" stroke="white" stroke-width="0.5" stroke-miterlimit="10"/>
<path d="M78.1331 4.26819C78.9666 4.4198 79.5986 5.15491 79.5986 6.03244C79.5986 6.90997 78.9666 7.64048 78.1331 7.79669" stroke="white" stroke-width="0.5" stroke-miterlimit="10"/>
<path d="M78.4583 4.23604V0" stroke="white" stroke-width="0.5" stroke-miterlimit="10"/>
<path d="M78.4583 12.0649V7.82425" stroke="white" stroke-width="0.5" stroke-miterlimit="10"/>
<path d="M80.2488 6.03244H84.4852" stroke="white" stroke-width="0.5" stroke-miterlimit="10"/>
<path d="M72.9166 6.03244H76.6675" stroke="white" stroke-width="0.5" stroke-miterlimit="10"/>
<path d="M77.762 4.35089L76.6033 1.54831" stroke="white" stroke-width="0.5" stroke-miterlimit="10"/>
<path d="M80.3131 10.5166L79.1544 7.71402" stroke="white" stroke-width="0.5" stroke-miterlimit="10"/>
<path d="M80.1481 5.32949L82.9372 4.1763" stroke="white" stroke-width="0.5" stroke-miterlimit="10"/>
<path d="M73.9791 7.88853L76.7682 6.73074" stroke="white" stroke-width="0.5" stroke-miterlimit="10"/>
<path d="M77.1895 4.76441L74.1943 1.76886" stroke="white" stroke-width="0.5" stroke-miterlimit="10"/>
<path d="M82.722 10.2961L79.7268 7.30051" stroke="white" stroke-width="0.5" stroke-miterlimit="10"/>
<path d="M79.7268 4.76441L82.722 1.76886" stroke="white" stroke-width="0.5" stroke-miterlimit="10"/>
<path d="M74.1943 10.2961L77.1895 7.30051" stroke="white" stroke-width="0.5" stroke-miterlimit="10"/>
<path d="M76.7682 5.32949L73.9791 4.1763" stroke="white" stroke-width="0.5" stroke-miterlimit="10"/>
<path d="M82.9372 7.88853L80.1481 6.73074" stroke="white" stroke-width="0.5" stroke-miterlimit="10"/>
<path d="M79.1544 4.35089L80.3131 1.54831" stroke="white" stroke-width="0.5" stroke-miterlimit="10"/>
<path d="M76.6033 10.5166L77.762 7.70938" stroke="white" stroke-width="0.5" stroke-miterlimit="10"/>
<path d="M58.9207 21.4236C58.6505 20.3348 58.6321 19.0805 58.6321 19.0805" stroke="white" stroke-width="0.5" stroke-miterlimit="10"/>
<path d="M59.6306 20.9275C59.3787 19.9075 59.2459 18.2673 59.2459 18.2673" stroke="white" stroke-width="0.5" stroke-miterlimit="10"/>
<path d="M60.3404 20.4313C60.1068 19.4802 59.9099 17.67 59.9099 17.67" stroke="white" stroke-width="0.5" stroke-miterlimit="10"/>
<path d="M61.0503 19.9351C60.8351 19.0576 60.6198 17.2428 60.6198 17.2428" stroke="white" stroke-width="0.5" stroke-miterlimit="10"/>
<path d="M61.7602 19.4389C61.5633 18.6303 61.348 16.9074 61.348 16.9074" stroke="white" stroke-width="0.5" stroke-miterlimit="10"/>
<path d="M62.47 18.9473C62.2868 18.2076 62.1173 16.719 62.1173 16.719" stroke="white" stroke-width="0.5" stroke-miterlimit="10"/>
<path d="M63.1799 18.4511C63.015 17.7849 62.9097 16.6409 62.9097 16.6409" stroke="white" stroke-width="0.5" stroke-miterlimit="10"/>
<path d="M63.8889 17.9549C63.7431 17.3576 63.7294 16.6731 63.7294 16.6731" stroke="white" stroke-width="0.5" stroke-miterlimit="10"/>
<path d="M64.9477 16.9855C63.9813 16.5766 62.8776 16.4663 61.7785 16.7374C59.3283 17.3393 57.7436 19.6273 57.9635 22.0485" stroke="white" stroke-width="0.5" stroke-miterlimit="10"/>
<path d="M57.8445 14.6192C58.5819 13.7693 59.5894 13.0342 59.5894 13.0342" stroke="white" stroke-width="0.5" stroke-miterlimit="10"/>
<path d="M58.6597 14.9134C59.3467 14.1186 60.6107 13.0665 60.6107 13.0665" stroke="white" stroke-width="0.5" stroke-miterlimit="10"/>
<path d="M59.4749 15.2075C60.1161 14.4678 61.4855 13.264 61.4855 13.264" stroke="white" stroke-width="0.5" stroke-miterlimit="10"/>
<path d="M60.29 15.5015C60.8854 14.8169 62.241 13.5994 62.241 13.5994" stroke="white" stroke-width="0.5" stroke-miterlimit="10"/>
<path d="M61.1052 15.7955C61.6502 15.1661 62.9371 13.9991 62.9371 13.9991" stroke="white" stroke-width="0.5" stroke-miterlimit="10"/>
<path d="M61.9205 16.0896C62.4197 15.5153 63.5371 14.5183 63.5371 14.5183" stroke="white" stroke-width="0.5" stroke-miterlimit="10"/>
<path d="M62.7357 16.3836C63.1845 15.8644 64.0592 15.1201 64.0592 15.1201" stroke="white" stroke-width="0.5" stroke-miterlimit="10"/>
<path d="M63.5462 16.6822C63.9492 16.2182 64.5034 15.8139 64.5034 15.8139" stroke="white" stroke-width="0.5" stroke-miterlimit="10"/>
<path d="M64.9476 16.9855C64.7232 15.9609 64.1782 14.9961 63.3264 14.2518C61.4212 12.5978 58.6413 12.6208 56.791 14.1967" stroke="white" stroke-width="0.5" stroke-miterlimit="10"/>
<path d="M70.9747 21.4236C71.2449 20.3348 71.2632 19.0805 71.2632 19.0805" stroke="white" stroke-width="0.5" stroke-miterlimit="10"/>
<path d="M70.2648 20.9275C70.5167 19.9075 70.6495 18.2673 70.6495 18.2673" stroke="white" stroke-width="0.5" stroke-miterlimit="10"/>
<path d="M69.5549 20.4313C69.7885 19.4802 69.9854 17.67 69.9854 17.67" stroke="white" stroke-width="0.5" stroke-miterlimit="10"/>
<path d="M68.8451 19.9351C69.0603 19.0576 69.2756 17.2428 69.2756 17.2428" stroke="white" stroke-width="0.5" stroke-miterlimit="10"/>
<path d="M68.1352 19.4389C68.3321 18.6303 68.5474 16.9074 68.5474 16.9074" stroke="white" stroke-width="0.5" stroke-miterlimit="10"/>
<path d="M67.4253 18.9473C67.6085 18.2076 67.7779 16.719 67.7779 16.719" stroke="white" stroke-width="0.5" stroke-miterlimit="10"/>
<path d="M66.7155 18.4511C66.8803 17.7849 66.9857 16.6409 66.9857 16.6409" stroke="white" stroke-width="0.5" stroke-miterlimit="10"/>
<path d="M66.0057 17.9549C66.1515 17.3576 66.1651 16.6731 66.1651 16.6731" stroke="white" stroke-width="0.5" stroke-miterlimit="10"/>
<path d="M64.9477 16.9855C65.914 16.5766 67.0178 16.4663 68.1169 16.7374C70.5671 17.3393 72.1517 19.6273 71.9319 22.0485" stroke="white" stroke-width="0.5" stroke-miterlimit="10"/>
<path d="M72.0509 14.6192C71.3135 13.7693 70.306 13.0342 70.306 13.0342" stroke="white" stroke-width="0.5" stroke-miterlimit="10"/>
<path d="M71.2358 14.9134C70.5488 14.1186 69.2848 13.0665 69.2848 13.0665" stroke="white" stroke-width="0.5" stroke-miterlimit="10"/>
<path d="M70.4206 15.2075C69.7794 14.4678 68.41 13.264 68.41 13.264" stroke="white" stroke-width="0.5" stroke-miterlimit="10"/>
<path d="M69.6053 15.5015C69.01 14.8169 67.6544 13.5994 67.6544 13.5994" stroke="white" stroke-width="0.5" stroke-miterlimit="10"/>
<path d="M68.7901 15.7955C68.2451 15.1661 66.9582 13.9991 66.9582 13.9991" stroke="white" stroke-width="0.5" stroke-miterlimit="10"/>
<path d="M67.9748 16.0896C67.4756 15.5153 66.3582 14.5183 66.3582 14.5183" stroke="white" stroke-width="0.5" stroke-miterlimit="10"/>
<path d="M67.1597 16.3836C66.7109 15.8644 65.8361 15.1201 65.8361 15.1201" stroke="white" stroke-width="0.5" stroke-miterlimit="10"/>
<path d="M66.349 16.6822C65.946 16.2182 65.3918 15.8139 65.3918 15.8139" stroke="white" stroke-width="0.5" stroke-miterlimit="10"/>
<path d="M64.9477 16.9855C65.1721 15.9609 65.7171 14.9961 66.5689 14.2518C68.4741 12.5978 71.2541 12.6208 73.1043 14.1967" stroke="white" stroke-width="0.5" stroke-miterlimit="10"/>
<path d="M65.369 16.8385V32.17" stroke="white" stroke-width="0.5" stroke-miterlimit="10"/>
<path d="M64.5217 16.8247V32.17" stroke="white" stroke-width="0.5" stroke-miterlimit="10"/>
<path d="M78.7009 20.3164L77.1987 22.7836H80.2077L78.7009 20.3164Z" stroke="white" stroke-width="0.5" stroke-miterlimit="10"/>
<path d="M78.7009 26.574L77.1987 29.0412H80.2077L78.7009 26.574Z" stroke="white" stroke-width="0.5" stroke-miterlimit="10"/>
<path d="M75.028 23.4453L73.5212 25.9124H76.5347L75.028 23.4453Z" stroke="white" stroke-width="0.5" stroke-miterlimit="10"/>
<path d="M71.3503 26.574L69.8481 29.0412H72.857L71.3503 26.574Z" stroke="white" stroke-width="0.5" stroke-miterlimit="10"/>
<path d="M82.3786 23.4453L83.8808 25.9124H80.8719L82.3786 23.4453Z" stroke="white" stroke-width="0.5" stroke-miterlimit="10"/>
<path d="M75.028 29.7028L73.5212 32.1699H76.5347L75.028 29.7028Z" stroke="white" stroke-width="0.5" stroke-miterlimit="10"/>
<path d="M82.3786 29.7028L83.8808 32.1699H80.8719L82.3786 29.7028Z" stroke="white" stroke-width="0.5" stroke-miterlimit="10"/>
<path d="M86.0515 26.574L87.5582 29.0412H84.5447L86.0515 26.574Z" stroke="white" stroke-width="0.5" stroke-miterlimit="10"/>
<path d="M86.8165 21.4236C86.5463 20.3348 86.528 19.0805 86.528 19.0805" stroke="white" stroke-width="0.5" stroke-miterlimit="10"/>
<path d="M87.5263 20.9275C87.2744 19.9075 87.1416 18.2673 87.1416 18.2673" stroke="white" stroke-width="0.5" stroke-miterlimit="10"/>
<path d="M88.2361 20.4313C88.0025 19.4802 87.8056 17.67 87.8056 17.67" stroke="white" stroke-width="0.5" stroke-miterlimit="10"/>
<path d="M88.946 19.9351C88.7308 19.0576 88.5155 17.2428 88.5155 17.2428" stroke="white" stroke-width="0.5" stroke-miterlimit="10"/>
<path d="M89.6558 19.4389C89.4589 18.6303 89.2437 16.9074 89.2437 16.9074" stroke="white" stroke-width="0.5" stroke-miterlimit="10"/>
<path d="M90.3656 18.9473C90.1824 18.2076 90.0129 16.719 90.0129 16.719" stroke="white" stroke-width="0.5" stroke-miterlimit="10"/>
<path d="M91.0755 18.4511C90.9106 17.7849 90.8053 16.6409 90.8053 16.6409" stroke="white" stroke-width="0.5" stroke-miterlimit="10"/>
<path d="M91.7892 17.9549C91.6434 17.3576 91.6298 16.6731 91.6298 16.6731" stroke="white" stroke-width="0.5" stroke-miterlimit="10"/>
<path d="M92.8434 16.9855C91.877 16.5766 90.7733 16.4663 89.6741 16.7374C87.2239 17.3393 85.6393 19.6273 85.8592 22.0485" stroke="white" stroke-width="0.5" stroke-miterlimit="10"/>
<path d="M85.7402 14.6192C86.4775 13.7693 87.4851 13.0342 87.4851 13.0342" stroke="white" stroke-width="0.5" stroke-miterlimit="10"/>
<path d="M86.5554 14.9134C87.2423 14.1186 88.5064 13.0665 88.5064 13.0665" stroke="white" stroke-width="0.5" stroke-miterlimit="10"/>
<path d="M87.3706 15.2075C88.0118 14.4678 89.3811 13.264 89.3811 13.264" stroke="white" stroke-width="0.5" stroke-miterlimit="10"/>
<path d="M88.1857 15.5015C88.7811 14.8169 90.1367 13.5994 90.1367 13.5994" stroke="white" stroke-width="0.5" stroke-miterlimit="10"/>
<path d="M89.0009 15.7955C89.5459 15.1661 90.8328 13.9991 90.8328 13.9991" stroke="white" stroke-width="0.5" stroke-miterlimit="10"/>
<path d="M89.8161 16.0896C90.3153 15.5153 91.4328 14.5183 91.4328 14.5183" stroke="white" stroke-width="0.5" stroke-miterlimit="10"/>
<path d="M90.6313 16.3836C91.0801 15.8644 91.9549 15.1201 91.9549 15.1201" stroke="white" stroke-width="0.5" stroke-miterlimit="10"/>
<path d="M91.4467 16.6822C91.8497 16.2182 92.4038 15.8139 92.4038 15.8139" stroke="white" stroke-width="0.5" stroke-miterlimit="10"/>
<path d="M92.8434 16.9855C92.619 15.9609 92.074 14.9961 91.2221 14.2518C89.3169 12.5978 86.537 12.6208 84.6868 14.1967" stroke="white" stroke-width="0.5" stroke-miterlimit="10"/>
<path d="M98.875 21.4236C99.1452 20.3348 99.1635 19.0805 99.1635 19.0805" stroke="white" stroke-width="0.5" stroke-miterlimit="10"/>
<path d="M98.1606 20.9275C98.4125 19.9075 98.5453 18.2673 98.5453 18.2673" stroke="white" stroke-width="0.5" stroke-miterlimit="10"/>
<path d="M97.4507 20.4313C97.6843 19.4802 97.8812 17.67 97.8812 17.67" stroke="white" stroke-width="0.5" stroke-miterlimit="10"/>
<path d="M96.7409 19.9351C96.9562 19.0576 97.1714 17.2428 97.1714 17.2428" stroke="white" stroke-width="0.5" stroke-miterlimit="10"/>
<path d="M96.031 19.4389C96.2279 18.6303 96.4432 16.9074 96.4432 16.9074" stroke="white" stroke-width="0.5" stroke-miterlimit="10"/>
<path d="M95.3212 18.9473C95.5044 18.2076 95.6738 16.719 95.6738 16.719" stroke="white" stroke-width="0.5" stroke-miterlimit="10"/>
<path d="M94.6113 18.4511C94.7761 17.7849 94.8815 16.6409 94.8815 16.6409" stroke="white" stroke-width="0.5" stroke-miterlimit="10"/>
<path d="M93.9014 17.9549C94.0472 17.3576 94.0609 16.6731 94.0609 16.6731" stroke="white" stroke-width="0.5" stroke-miterlimit="10"/>
<path d="M92.8433 16.9855C93.8097 16.5766 94.9134 16.4663 96.0125 16.7374C98.4627 17.3393 100.047 19.6273 99.8275 22.0485" stroke="white" stroke-width="0.5" stroke-miterlimit="10"/>
<path d="M99.9467 14.6192C99.2093 13.7693 98.2018 13.0342 98.2018 13.0342" stroke="white" stroke-width="0.5" stroke-miterlimit="10"/>
<path d="M99.1315 14.9134C98.4445 14.1186 97.1805 13.0665 97.1805 13.0665" stroke="white" stroke-width="0.5" stroke-miterlimit="10"/>
<path d="M98.3162 15.2075C97.675 14.4678 96.3057 13.264 96.3057 13.264" stroke="white" stroke-width="0.5" stroke-miterlimit="10"/>
<path d="M97.5057 15.5015C96.9104 14.8169 95.5547 13.5994 95.5547 13.5994" stroke="white" stroke-width="0.5" stroke-miterlimit="10"/>
<path d="M96.6904 15.7955C96.1454 15.1661 94.8585 13.9991 94.8585 13.9991" stroke="white" stroke-width="0.5" stroke-miterlimit="10"/>
<path d="M95.8752 16.0896C95.376 15.5153 94.2585 14.5183 94.2585 14.5183" stroke="white" stroke-width="0.5" stroke-miterlimit="10"/>
<path d="M95.0601 16.3836C94.6113 15.8644 93.7365 15.1201 93.7365 15.1201" stroke="white" stroke-width="0.5" stroke-miterlimit="10"/>
<path d="M94.2448 16.6822C93.8418 16.2182 93.2877 15.8139 93.2877 15.8139" stroke="white" stroke-width="0.5" stroke-miterlimit="10"/>
<path d="M92.8433 16.9855C93.0677 15.9609 93.6127 14.9961 94.4646 14.2518C96.3698 12.5978 99.1497 12.6208 101 14.1967" stroke="white" stroke-width="0.5" stroke-miterlimit="10"/>
<path d="M93.2648 16.8385V32.17" stroke="white" stroke-width="0.5" stroke-miterlimit="10"/>
<path d="M92.4176 16.8247V32.17" stroke="white" stroke-width="0.5" stroke-miterlimit="10"/>
</svg>
