<svg width="55" height="55" viewBox="0 0 55 55" fill="none" xmlns="http://www.w3.org/2000/svg">
<path fill-rule="evenodd" clip-rule="evenodd" d="M11.7087 6.75488H44.1326C46.3711 6.75488 48.1856 8.56932 48.1856 10.8079V43.2317C48.1856 45.4703 46.3711 47.2847 44.1326 47.2847H11.7087C9.4702 47.2847 7.65576 45.4703 7.65576 43.2317V10.8079C7.65576 8.56932 9.4702 6.75488 11.7087 6.75488Z" fill="white"/>
<path fill-rule="evenodd" clip-rule="evenodd" d="M33.1054 44.0422C34.3387 44.0422 35.3385 43.0505 35.3385 41.8273C35.3385 40.6042 34.3387 39.6123 33.1054 39.6123H32.769C34.0023 39.6123 35.0021 40.6042 35.0021 41.8273C35.0021 43.0505 34.0023 44.0422 32.769 44.0422H33.1054Z" fill="white"/>
<path fill-rule="evenodd" clip-rule="evenodd" d="M32.7385 39.6123H32.4021C31.1689 39.6123 30.1689 40.6042 30.1689 41.8273C30.1689 43.0505 31.1689 44.0422 32.4021 44.0422H32.7385C31.5051 44.0422 30.5053 43.0505 30.5053 41.8273C30.5053 40.6042 31.5051 39.6123 32.7385 39.6123V39.6123Z" fill="#104C65"/>
<path fill-rule="evenodd" clip-rule="evenodd" d="M15.7612 39.734V38.6113H19.8295L19.4624 39.7643H18.3919V44.012H17.0763V39.734H15.7612ZM26.5284 39.734V38.6113H30.5966L30.2296 39.7643H29.1591V44.012H27.8435V39.734H26.5284ZM20.7162 38.6113C20.3615 38.6113 20.0744 38.8967 20.0744 39.2485C20.0744 39.6003 20.3615 39.8854 20.7162 39.8856C21.0714 39.8856 21.3587 39.6003 21.3587 39.2485C21.3587 38.8967 21.0713 38.6113 20.7162 38.6113ZM21.3587 40.3408H20.0744V44.012H21.3587V40.3408ZM21.9094 44.012V38.6113H23.1942V41.1294L24.4787 39.8551H26.0386L24.4174 41.433L26.2223 44.0423H24.8459L23.5919 42.252L23.1942 42.6165V44.012H21.9094ZM35.7658 44.012V38.6113H37.0507V41.1294L38.3355 39.8551H39.8954L38.2742 41.433L40.0791 44.0423H38.7026L37.4482 42.252L37.0507 42.6165V44.012H35.7658ZM35.0019 41.8275C35.0019 43.0507 34.0019 44.0424 32.7687 44.0424H32.7382C31.505 44.0424 30.5052 43.0507 30.5052 41.8275C30.5052 40.6043 31.505 39.6125 32.7382 39.6125H32.7687C34.0019 39.6125 35.0019 40.6043 35.0019 41.8275ZM32.7538 40.7505C32.1539 40.7505 31.6676 41.2325 31.6676 41.8275C31.6676 42.4225 32.1539 42.9046 32.7538 42.9048C33.3531 42.9048 33.8395 42.4225 33.8395 41.8275C33.8395 41.2325 33.3531 40.7505 32.7538 40.7505Z" fill="#104C65"/>
<path fill-rule="evenodd" clip-rule="evenodd" d="M33.7839 19.9167C35.5581 21.1843 37.7318 21.9302 40.0793 21.9302V17.415C39.635 17.4152 39.1918 17.3689 38.7572 17.2767V20.8309C36.4099 20.8309 34.2365 20.085 32.4618 18.8174V28.0314C32.4618 32.6408 28.7233 36.3771 24.1118 36.3771C22.3913 36.3771 20.7919 35.8572 19.4634 34.9656C20.9797 36.5151 23.0942 37.4765 25.4336 37.4765C30.0454 37.4765 33.784 33.7401 33.784 29.1306V19.9167H33.7839ZM35.4148 15.3615C34.508 14.3714 33.9127 13.0918 33.7839 11.6771V11.0964H32.531C32.8463 12.8943 33.922 14.4304 35.4148 15.3615ZM22.3801 31.4286C21.8735 30.7647 21.5997 29.9525 21.6009 29.1174C21.6009 27.0092 23.311 25.3 25.4206 25.3C25.8137 25.2998 26.2045 25.3601 26.5793 25.4788V20.8628C26.1414 20.8029 25.6995 20.7774 25.2577 20.7868V24.3797C24.8828 24.2609 24.4918 24.2006 24.0985 24.2009C21.9889 24.2009 20.279 25.9101 20.279 28.0184C20.279 29.5091 21.1337 30.7999 22.3801 31.4286Z" fill="white"/>
<path fill-rule="evenodd" clip-rule="evenodd" d="M32.4618 18.8174C34.2365 20.085 36.4099 20.8309 38.7572 20.8309V17.2767C37.447 16.9979 36.287 16.3134 35.4148 15.3615C33.922 14.4304 32.8463 12.8943 32.531 11.0964H29.2402V29.1304C29.2327 31.2328 27.5256 32.935 25.4205 32.935C24.1799 32.935 23.0779 32.3441 22.3799 31.4286C21.1336 30.7999 20.2789 29.5091 20.2789 28.0184C20.2789 25.9101 21.9887 24.2009 24.0984 24.2009C24.5026 24.2009 24.8921 24.2638 25.2575 24.3797V20.7868C20.7271 20.8803 17.0835 24.5802 17.0835 29.1306C17.0835 31.402 17.9909 33.4613 19.4634 34.9657C20.792 35.8574 22.3913 36.3773 24.1119 36.3773C28.7233 36.3773 32.4618 32.6408 32.4618 28.0316V18.8174Z" fill="#104C65"/>
<path fill-rule="evenodd" clip-rule="evenodd" d="M38.7574 17.2768V16.3157C37.5757 16.3175 36.4175 15.9868 35.415 15.3614C36.3024 16.3324 37.4709 17.0021 38.7574 17.2768ZM32.5312 11.0965C32.5011 10.9247 32.478 10.7517 32.462 10.578V9.99731H27.9181V28.0315C27.9108 30.1337 26.2038 31.8359 24.0985 31.8359C23.4804 31.8359 22.8969 31.6894 22.3801 31.4287C23.078 32.3442 24.1801 32.9351 25.4206 32.9351C27.5256 32.9351 29.2329 31.2328 29.2403 29.1305V11.0965H32.5312ZM25.2579 20.7868V19.7637C24.8782 19.7118 24.4954 19.6858 24.1122 19.686C19.5002 19.686 15.7617 23.4226 15.7617 28.0315C15.7617 30.9211 17.231 33.4676 19.4637 34.9656C17.9912 33.4612 17.0838 31.4019 17.0838 29.1305C17.0838 24.5803 20.7273 20.8804 25.2579 20.7868Z" fill="#104C65"/>
</svg>
