<?xml version="1.0" encoding="UTF-8"?>
<svg id="Layer_1" data-name="Layer 1" xmlns="http://www.w3.org/2000/svg" viewBox="0 0 188.49 155.58">
  <defs>
    <style>
      .cls-1 {
        fill: none;
        stroke: #61b848;
        stroke-linecap: round;
        stroke-linejoin: round;
        stroke-width: .75px;
      }
    </style>
  </defs>
  <g>
    <g>
      <g>
        <path className="cls-1" d="m15.47,59.79c-1.9-7.71-2.05-16.55-2.05-16.55"/>
        <path className="cls-1" d="m20.49,56.28c-1.78-7.21-2.73-18.78-2.73-18.78"/>
        <path className="cls-1" d="m25.52,52.78c-1.65-6.71-3.04-19.5-3.04-19.5"/>
        <path className="cls-1" d="m30.55,49.27c-1.53-6.21-3.05-19-3.05-19"/>
        <path className="cls-1" d="m35.57,45.77c-1.41-5.71-2.91-17.9-2.91-17.9"/>
        <path className="cls-1" d="m40.6,42.26c-1.29-5.21-2.5-15.72-2.5-15.72"/>
        <path className="cls-1" d="m45.63,38.76c-1.16-4.72-1.91-12.8-1.91-12.8"/>
        <path className="cls-1" d="m50.66,35.26c-1.04-4.22-1.12-9.06-1.12-9.06"/>
        <path className="cls-1" d="m58.13,28.42c-6.84-2.88-14.64-3.67-22.43-1.76-17.33,4.25-28.56,20.41-27,37.5"/>
      </g>
      <g>
        <path className="cls-1" d="m7.86,11.71C13.07,5.72,20.22.5,20.22.5"/>
        <path className="cls-1" d="m13.62,13.79C18.5,8.19,27.43.74,27.43.74"/>
        <path className="cls-1" d="m19.39,15.87c4.54-5.22,14.22-13.72,14.22-13.72"/>
        <path className="cls-1" d="m25.16,17.95c4.2-4.83,13.8-13.44,13.8-13.44"/>
        <path className="cls-1" d="m30.93,20.03c3.87-4.44,12.98-12.69,12.98-12.69"/>
        <path className="cls-1" d="m36.69,22.11c3.53-4.05,11.43-11.11,11.43-11.11"/>
        <path className="cls-1" d="m42.46,24.19c3.19-3.67,9.37-8.94,9.37-8.94"/>
        <path className="cls-1" d="m48.23,26.27c2.85-3.28,6.77-6.14,6.77-6.14"/>
        <path className="cls-1" d="m58.13,28.42c-1.58-7.24-5.44-14.06-11.49-19.3C33.17-2.55,13.47-2.4.38,8.73"/>
      </g>
      <g>
        <path className="cls-1" d="m100.8,59.79c1.9-7.71,2.05-16.55,2.05-16.55"/>
        <path className="cls-1" d="m95.77,56.28c1.78-7.21,2.73-18.78,2.73-18.78"/>
        <path className="cls-1" d="m90.75,52.78c1.65-6.71,3.04-19.5,3.04-19.5"/>
        <path className="cls-1" d="m85.72,49.27c1.53-6.21,3.05-19,3.05-19"/>
        <path className="cls-1" d="m80.69,45.77c1.41-5.71,2.91-17.9,2.91-17.9"/>
        <path className="cls-1" d="m75.66,42.26c1.29-5.21,2.5-15.72,2.5-15.72"/>
        <path className="cls-1" d="m70.64,38.76c1.16-4.72,1.91-12.8,1.91-12.8"/>
        <path className="cls-1" d="m65.61,35.26c1.04-4.22,1.12-9.06,1.12-9.06"/>
        <path className="cls-1" d="m58.13,28.42c6.84-2.88,14.64-3.67,22.43-1.76,17.33,4.25,28.56,20.41,27,37.5"/>
      </g>
      <g>
        <path className="cls-1" d="m108.41,11.71c-5.21-5.99-12.37-11.21-12.37-11.21"/>
        <path className="cls-1" d="m102.64,13.79c-4.88-5.6-13.8-13.05-13.8-13.05"/>
        <path className="cls-1" d="m96.87,15.87c-4.54-5.22-14.22-13.72-14.22-13.72"/>
        <path className="cls-1" d="m91.11,17.95c-4.2-4.83-13.8-13.44-13.8-13.44"/>
        <path className="cls-1" d="m85.34,20.03c-3.87-4.44-12.98-12.69-12.98-12.69"/>
        <path className="cls-1" d="m79.57,22.11c-3.53-4.05-11.43-11.11-11.43-11.11"/>
        <path className="cls-1" d="m73.8,24.19c-3.19-3.67-9.37-8.94-9.37-8.94"/>
        <path className="cls-1" d="m68.04,26.27c-2.85-3.28-6.77-6.14-6.77-6.14"/>
        <path className="cls-1" d="m58.13,28.42c1.58-7.24,5.44-14.06,11.49-19.3,13.47-11.68,33.17-11.52,46.27-.39"/>
      </g>
    </g>
    <line className="cls-1" x1="61.12" y1="27.99" x2="61.12" y2="133.97"/>
    <line className="cls-1" x1="55.4" y1="27.99" x2="55.4" y2="130.77"/>
  </g>
  <g>
    <g>
      <g>
        <path className="cls-1" d="m87.69,122.83c-1.9-7.71-2.05-16.55-2.05-16.55"/>
        <path className="cls-1" d="m92.71,119.33c-1.78-7.21-2.73-18.78-2.73-18.78"/>
        <path className="cls-1" d="m97.74,115.83c-1.65-6.71-3.04-19.5-3.04-19.5"/>
        <path className="cls-1" d="m102.77,112.32c-1.53-6.21-3.05-19-3.05-19"/>
        <path className="cls-1" d="m107.8,108.82c-1.41-5.71-2.91-17.9-2.91-17.9"/>
        <path className="cls-1" d="m112.82,105.31c-1.29-5.21-2.5-15.72-2.5-15.72"/>
        <path className="cls-1" d="m117.85,101.81c-1.16-4.72-1.91-12.8-1.91-12.8"/>
        <path className="cls-1" d="m122.88,98.3c-1.04-4.22-1.12-9.06-1.12-9.06"/>
        <path className="cls-1" d="m130.35,91.47c-6.84-2.88-14.64-3.67-22.43-1.76-17.33,4.25-28.56,20.41-27,37.5"/>
      </g>
      <g>
        <path className="cls-1" d="m80.08,74.76c5.21-5.99,12.37-11.21,12.37-11.21"/>
        <path className="cls-1" d="m85.85,76.84c4.88-5.6,13.8-13.05,13.8-13.05"/>
        <path className="cls-1" d="m91.61,78.92c4.54-5.22,14.22-13.72,14.22-13.72"/>
        <path className="cls-1" d="m97.38,81c4.2-4.83,13.8-13.44,13.8-13.44"/>
        <path className="cls-1" d="m103.15,83.08c3.87-4.44,12.98-12.69,12.98-12.69"/>
        <path className="cls-1" d="m108.91,85.16c3.53-4.05,11.43-11.11,11.43-11.11"/>
        <path className="cls-1" d="m114.68,87.24c3.19-3.67,9.37-8.94,9.37-8.94"/>
        <path className="cls-1" d="m120.45,89.31c2.85-3.28,6.77-6.14,6.77-6.14"/>
        <path className="cls-1" d="m130.35,91.47c-1.58-7.24-5.44-14.06-11.49-19.3-13.47-11.68-33.17-11.52-46.27-.39"/>
      </g>
      <g>
        <path className="cls-1" d="m173.02,122.83c1.9-7.71,2.05-16.55,2.05-16.55"/>
        <path className="cls-1" d="m167.99,119.33c1.78-7.21,2.73-18.78,2.73-18.78"/>
        <path className="cls-1" d="m162.97,115.83c1.65-6.71,3.04-19.5,3.04-19.5"/>
        <path className="cls-1" d="m157.94,112.32c1.53-6.21,3.05-19,3.05-19"/>
        <path className="cls-1" d="m152.91,108.82c1.41-5.71,2.91-17.9,2.91-17.9"/>
        <path className="cls-1" d="m147.88,105.31c1.29-5.21,2.5-15.72,2.5-15.72"/>
        <path className="cls-1" d="m142.86,101.81c1.16-4.72,1.91-12.8,1.91-12.8"/>
        <path className="cls-1" d="m137.83,98.3c1.04-4.22,1.12-9.06,1.12-9.06"/>
        <path className="cls-1" d="m130.35,91.47c6.84-2.88,14.64-3.67,22.43-1.76,17.33,4.25,28.56,20.41,27,37.5"/>
      </g>
      <g>
        <path className="cls-1" d="m180.63,74.76c-5.21-5.99-12.37-11.21-12.37-11.21"/>
        <path className="cls-1" d="m174.86,76.84c-4.88-5.6-13.8-13.05-13.8-13.05"/>
        <path className="cls-1" d="m169.09,78.92c-4.54-5.22-14.22-13.72-14.22-13.72"/>
        <path className="cls-1" d="m163.33,81c-4.2-4.83-13.8-13.44-13.8-13.44"/>
        <path className="cls-1" d="m157.56,83.08c-3.87-4.44-12.98-12.69-12.98-12.69"/>
        <path className="cls-1" d="m151.79,85.16c-3.53-4.05-11.43-11.11-11.43-11.11"/>
        <path className="cls-1" d="m146.02,87.24c-3.19-3.67-9.37-8.94-9.37-8.94"/>
        <path className="cls-1" d="m140.26,89.31c-2.85-3.28-6.77-6.14-6.77-6.14"/>
        <path className="cls-1" d="m130.35,91.47c1.58-7.24,5.44-14.06,11.49-19.3,13.47-11.68,33.17-11.52,46.27-.39"/>
      </g>
    </g>
    <line className="cls-1" x1="133.34" y1="91.04" x2="133.34" y2="155.58"/>
    <line className="cls-1" x1="127.62" y1="91.04" x2="127.62" y2="155.04"/>
  </g>
</svg>