<svg width="54" height="54" viewBox="0 0 54 54" fill="none" xmlns="http://www.w3.org/2000/svg">
<path d="M48.5597 16.0893C48.5921 16.5698 48.5921 17.0502 48.5921 17.535C48.5921 32.3088 37.6254 49.3475 17.5722 49.3475V49.3386C11.6484 49.3475 5.84769 47.6073 0.86084 44.3262C1.7222 44.4325 2.58789 44.4856 3.45573 44.4878C8.36486 44.4922 13.1337 42.803 16.9958 39.6924C12.3306 39.6016 8.23965 36.4821 6.81052 31.928C8.44474 32.2512 10.1286 32.1848 11.7326 31.7354C6.64645 30.6815 2.98727 26.0986 2.98727 20.7763C2.98727 20.7276 2.98727 20.6811 2.98727 20.6346C4.50275 21.5002 6.19957 21.9807 7.93526 22.0338C3.14486 18.7505 1.66823 12.2149 4.56104 7.10507C10.0962 14.0901 18.263 18.3365 27.0299 18.7859C26.1513 14.9026 27.3516 10.8334 30.1839 8.10357C34.575 3.87047 41.481 4.08744 45.6086 8.58842C48.0502 8.09471 50.3904 7.17592 52.5319 5.87411C51.7181 8.46223 50.0148 10.6607 47.7394 12.0577C49.9003 11.7965 52.0117 11.2031 53.9999 10.2976C52.5363 12.547 50.6926 14.5063 48.5597 16.0893Z" fill="white"/>
</svg>
