<svg width="39" height="39" viewBox="0 0 39 39" fill="none" xmlns="http://www.w3.org/2000/svg">
<g clip-path="url(#clip0_173_2039)">
<path d="M19.5002 0C8.74761 0 0.000231207 8.74737 0.000231207 19.5C0.000231207 23.2554 1.06298 26.8824 3.08123 30.0235L0.0538562 37.895C-0.0598938 38.1924 0.00998119 38.5271 0.230981 38.7546C0.386981 38.9139 0.596606 39 0.812731 39C0.905356 39 0.996356 38.9854 1.08573 38.9529L9.20911 36.0522C12.3031 37.9827 15.8537 39 19.5002 39C30.2529 39 39.0002 30.2526 39.0002 19.5C39.0002 8.74737 30.2529 0 19.5002 0ZM29.2502 25.1875C29.2502 27.0156 26.9996 29.25 24.3752 29.25C21.8224 29.25 16.9214 26.1966 14.8625 24.1378C12.8036 22.0772 9.75023 17.1763 9.75023 14.625C9.75023 11.999 11.9846 9.75 13.8127 9.75H15.4377C15.7465 9.75 16.0292 9.9255 16.1657 10.2034C16.1657 10.2034 17.1456 12.194 17.7859 13.442C18.5074 14.8509 17.1505 16.5084 16.3786 17.29C16.6549 17.9985 17.3 19.4025 18.4489 20.5514C19.5977 21.7003 21.0017 22.347 21.7102 22.6216C22.4902 21.8481 24.1477 20.4896 25.5582 21.2144C26.8062 21.8563 28.7952 22.8329 28.7952 22.8329C29.0747 22.9694 29.2502 23.2537 29.2502 23.5625V25.1875Z" fill="white"/>
</g>
<defs>
<clipPath id="clip0_173_2039">
<rect width="39" height="39" fill="white"/>
</clipPath>
</defs>
</svg>
